G04 #@! TF.GenerationSoftware,KiCad,Pcbnew,(6.0.0)*
G04 #@! TF.CreationDate,2022-02-07T00:58:47-05:00*
G04 #@! TF.ProjectId,ergodash,6572676f-6461-4736-982e-6b696361645f,2.0*
G04 #@! TF.SameCoordinates,Original*
G04 #@! TF.FileFunction,Legend,Bot*
G04 #@! TF.FilePolarity,Positive*
%FSLAX46Y46*%
G04 Gerber Fmt 4.6, Leading zero omitted, Abs format (unit mm)*
G04 Created by KiCad (PCBNEW (6.0.0)) date 2022-02-07 00:58:47*
%MOMM*%
%LPD*%
G01*
G04 APERTURE LIST*
G04 Aperture macros list*
%AMRoundRect*
0 Rectangle with rounded corners*
0 $1 Rounding radius*
0 $2 $3 $4 $5 $6 $7 $8 $9 X,Y pos of 4 corners*
0 Add a 4 corners polygon primitive as box body*
4,1,4,$2,$3,$4,$5,$6,$7,$8,$9,$2,$3,0*
0 Add four circle primitives for the rounded corners*
1,1,$1+$1,$2,$3*
1,1,$1+$1,$4,$5*
1,1,$1+$1,$6,$7*
1,1,$1+$1,$8,$9*
0 Add four rect primitives between the rounded corners*
20,1,$1+$1,$2,$3,$4,$5,0*
20,1,$1+$1,$4,$5,$6,$7,0*
20,1,$1+$1,$6,$7,$8,$9,0*
20,1,$1+$1,$8,$9,$2,$3,0*%
%AMHorizOval*
0 Thick line with rounded ends*
0 $1 width*
0 $2 $3 position (X,Y) of the first rounded end (center of the circle)*
0 $4 $5 position (X,Y) of the second rounded end (center of the circle)*
0 Add line between two ends*
20,1,$1,$2,$3,$4,$5,0*
0 Add two circle primitives to create the rounded ends*
1,1,$1,$2,$3*
1,1,$1,$4,$5*%
%AMRotRect*
0 Rectangle, with rotation*
0 The origin of the aperture is its center*
0 $1 length*
0 $2 width*
0 $3 Rotation angle, in degrees counterclockwise*
0 Add horizontal line*
21,1,$1,$2,0,0,$3*%
G04 Aperture macros list end*
%ADD10C,0.500000*%
%ADD11C,0.300000*%
%ADD12C,0.200000*%
%ADD13C,0.250000*%
%ADD14C,0.150000*%
%ADD15C,0.120000*%
%ADD16R,1.905000X1.905000*%
%ADD17C,1.905000*%
%ADD18RotRect,1.905000X1.905000X60.000000*%
%ADD19RotRect,1.905000X1.905000X240.000000*%
%ADD20C,1.524000*%
%ADD21C,1.900000*%
%ADD22C,1.700000*%
%ADD23C,4.000000*%
%ADD24O,2.300000X3.337000*%
%ADD25HorizOval,2.400000X-0.578509X0.689440X0.578509X-0.689440X0*%
%ADD26HorizOval,2.400000X-0.578509X-0.689440X0.578509X0.689440X0*%
%ADD27C,2.000000*%
%ADD28HorizOval,2.000000X0.000000X0.000000X0.000000X0.000000X0*%
%ADD29O,2.000000X2.000000*%
%ADD30C,1.924000*%
%ADD31C,2.200000*%
%ADD32C,5.400000*%
%ADD33RoundRect,0.200000X-0.762000X-0.762000X0.762000X-0.762000X0.762000X0.762000X-0.762000X0.762000X0*%
%ADD34C,1.610000*%
%ADD35O,1.700000X2.600000*%
%ADD36RoundRect,0.200000X-0.600000X0.700000X-0.600000X-0.700000X0.600000X-0.700000X0.600000X0.700000X0*%
%ADD37RoundRect,0.200000X0.700000X0.600000X-0.700000X0.600000X-0.700000X-0.600000X0.700000X-0.600000X0*%
%ADD38RoundRect,0.200000X-0.700000X-0.600000X0.700000X-0.600000X0.700000X0.600000X-0.700000X0.600000X0*%
%ADD39RoundRect,0.200000X0.600000X-0.700000X0.600000X0.700000X-0.600000X0.700000X-0.600000X-0.700000X0*%
%ADD40RoundRect,0.200000X-0.906218X-0.169615X0.306218X-0.869615X0.906218X0.169615X-0.306218X0.869615X0*%
%ADD41HorizOval,2.000000X0.000000X0.000000X0.000000X0.000000X0*%
%ADD42RoundRect,0.200000X-0.952500X-0.952500X0.952500X-0.952500X0.952500X0.952500X-0.952500X0.952500X0*%
%ADD43C,2.305000*%
%ADD44RoundRect,0.200000X0.348639X-1.301139X1.301139X0.348639X-0.348639X1.301139X-1.301139X-0.348639X0*%
%ADD45RoundRect,0.200000X0.952500X0.952500X-0.952500X0.952500X-0.952500X-0.952500X0.952500X-0.952500X0*%
%ADD46RoundRect,0.200000X0.292820X-1.092820X1.092820X0.292820X-0.292820X1.092820X-1.092820X-0.292820X0*%
%ADD47RoundRect,0.200000X0.119615X-0.992820X0.919615X0.392820X-0.119615X0.992820X-0.919615X-0.392820X0*%
%ADD48HorizOval,2.000000X0.000000X0.000000X0.000000X0.000000X0*%
%ADD49RoundRect,0.200000X-0.450000X-0.400000X0.450000X-0.400000X0.450000X0.400000X-0.450000X0.400000X0*%
%ADD50C,2.300000*%
%ADD51C,4.400000*%
%ADD52C,2.100000*%
%ADD53HorizOval,2.800000X0.578509X0.689440X-0.578509X-0.689440X0*%
%ADD54O,2.700000X3.737000*%
%ADD55HorizOval,2.800000X0.578509X-0.689440X-0.578509X0.689440X0*%
%ADD56HorizOval,2.800000X0.307818X-0.845723X-0.307818X0.845723X0*%
%ADD57HorizOval,2.700000X-0.449034X0.259250X0.449034X-0.259250X0*%
%ADD58HorizOval,2.800000X-0.886327X-0.156283X0.886327X0.156283X0*%
%ADD59HorizOval,2.800000X-0.307818X0.845723X0.307818X-0.845723X0*%
%ADD60HorizOval,2.800000X0.886327X0.156283X-0.886327X-0.156283X0*%
%ADD61HorizOval,2.800000X-0.578509X-0.689440X0.578509X0.689440X0*%
%ADD62HorizOval,2.800000X-0.578509X0.689440X0.578509X-0.689440X0*%
%ADD63RoundRect,0.200000X-0.348639X1.301139X-1.301139X-0.348639X0.348639X-1.301139X1.301139X0.348639X0*%
%ADD64RoundRect,0.200000X0.906218X0.169615X-0.306218X0.869615X-0.906218X-0.169615X0.306218X-0.869615X0*%
%ADD65HorizOval,2.000000X0.000000X0.000000X0.000000X0.000000X0*%
%ADD66RoundRect,0.200000X0.600000X-0.800000X0.600000X0.800000X-0.600000X0.800000X-0.600000X-0.800000X0*%
%ADD67RoundRect,0.200000X0.800000X-0.800000X0.800000X0.800000X-0.800000X0.800000X-0.800000X-0.800000X0*%
%ADD68RoundRect,0.200000X0.992820X0.119615X-0.392820X0.919615X-0.992820X-0.119615X0.392820X-0.919615X0*%
%ADD69RoundRect,0.200000X1.092820X0.292820X-0.292820X1.092820X-1.092820X-0.292820X0.292820X-1.092820X0*%
%ADD70C,3.448000*%
%ADD71C,4.387800*%
%ADD72RoundRect,0.200000X-0.700000X-0.900000X0.700000X-0.900000X0.700000X0.900000X-0.700000X0.900000X0*%
%ADD73RoundRect,0.200000X0.900000X-0.700000X0.900000X0.700000X-0.900000X0.700000X-0.900000X-0.700000X0*%
%ADD74RoundRect,0.200000X1.056218X0.429423X-0.156218X1.129423X-1.056218X-0.429423X0.156218X-1.129423X0*%
%ADD75RoundRect,0.200000X0.700000X0.900000X-0.700000X0.900000X-0.700000X-0.900000X0.700000X-0.900000X0*%
G04 APERTURE END LIST*
D10*
X153919961Y-108585147D02*
X156459961Y-108585147D01*
X153919961Y-121539147D02*
X156459961Y-121539147D01*
X156459961Y-121539147D02*
X156459961Y-108585147D01*
X153797000Y-108585000D02*
X153797000Y-121539000D01*
X151003000Y-121539000D02*
X153924000Y-121539000D01*
X151003000Y-108585000D02*
X151003000Y-121539000D01*
D11*
X123892285Y-44366571D02*
X123892285Y-42866571D01*
X123249428Y-43009428D02*
X123178000Y-42938000D01*
X123035142Y-42866571D01*
X122678000Y-42866571D01*
X122535142Y-42938000D01*
X122463714Y-43009428D01*
X122392285Y-43152285D01*
X122392285Y-43295142D01*
X122463714Y-43509428D01*
X123320857Y-44366571D01*
X122392285Y-44366571D01*
X120892285Y-44223714D02*
X120963714Y-44295142D01*
X121178000Y-44366571D01*
X121320857Y-44366571D01*
X121535142Y-44295142D01*
X121678000Y-44152285D01*
X121749428Y-44009428D01*
X121820857Y-43723714D01*
X121820857Y-43509428D01*
X121749428Y-43223714D01*
X121678000Y-43080857D01*
X121535142Y-42938000D01*
X121320857Y-42866571D01*
X121178000Y-42866571D01*
X120963714Y-42938000D01*
X120892285Y-43009428D01*
X134568755Y-44743631D02*
X133068755Y-44743631D01*
X133211612Y-45386488D02*
X133140184Y-45457917D01*
X133068755Y-45600774D01*
X133068755Y-45957917D01*
X133140184Y-46100774D01*
X133211612Y-46172202D01*
X133354469Y-46243631D01*
X133497326Y-46243631D01*
X133711612Y-46172202D01*
X134568755Y-45315059D01*
X134568755Y-46243631D01*
X134425898Y-47743631D02*
X134497326Y-47672202D01*
X134568755Y-47457917D01*
X134568755Y-47315059D01*
X134497326Y-47100774D01*
X134354469Y-46957917D01*
X134211612Y-46886488D01*
X133925898Y-46815059D01*
X133711612Y-46815059D01*
X133425898Y-46886488D01*
X133283041Y-46957917D01*
X133140184Y-47100774D01*
X133068755Y-47315059D01*
X133068755Y-47457917D01*
X133140184Y-47672202D01*
X133211612Y-47743631D01*
X109542056Y-46240908D02*
X109281584Y-44763697D01*
X108673300Y-45016015D02*
X108590553Y-44958075D01*
X108437463Y-44912538D01*
X108085746Y-44974555D01*
X107957462Y-45069706D01*
X107899523Y-45152452D01*
X107853986Y-45305543D01*
X107878793Y-45446229D01*
X107986347Y-45644856D01*
X108979309Y-46340136D01*
X108064844Y-46501381D01*
X106562826Y-46621166D02*
X106645573Y-46679106D01*
X106869007Y-46712239D01*
X107009693Y-46687432D01*
X107208320Y-46579879D01*
X107324200Y-46414385D01*
X107369737Y-46261295D01*
X107390466Y-45967517D01*
X107353256Y-45756487D01*
X107233299Y-45487517D01*
X107138148Y-45359234D01*
X106972655Y-45243354D01*
X106749221Y-45210221D01*
X106608534Y-45235027D01*
X106409907Y-45342581D01*
X106351967Y-45425328D01*
X116574142Y-47383000D02*
X116717000Y-47311571D01*
X116931285Y-47311571D01*
X117145571Y-47383000D01*
X117288428Y-47525857D01*
X117359857Y-47668714D01*
X117431285Y-47954428D01*
X117431285Y-48168714D01*
X117359857Y-48454428D01*
X117288428Y-48597285D01*
X117145571Y-48740142D01*
X116931285Y-48811571D01*
X116788428Y-48811571D01*
X116574142Y-48740142D01*
X116502714Y-48668714D01*
X116502714Y-48168714D01*
X116788428Y-48168714D01*
D12*
X153244428Y-122370857D02*
X153130142Y-122408952D01*
X153092047Y-122447047D01*
X153053952Y-122523238D01*
X153053952Y-122637523D01*
X153092047Y-122713714D01*
X153130142Y-122751809D01*
X153206333Y-122789904D01*
X153511095Y-122789904D01*
X153511095Y-121989904D01*
X153244428Y-121989904D01*
X153168238Y-122028000D01*
X153130142Y-122066095D01*
X153092047Y-122142285D01*
X153092047Y-122218476D01*
X153130142Y-122294666D01*
X153168238Y-122332761D01*
X153244428Y-122370857D01*
X153511095Y-122370857D01*
X152330142Y-122789904D02*
X152711095Y-122789904D01*
X152711095Y-121989904D01*
X151644428Y-122789904D02*
X152101571Y-122789904D01*
X151873000Y-122789904D02*
X151873000Y-121989904D01*
X151949190Y-122104190D01*
X152025380Y-122180380D01*
X152101571Y-122218476D01*
X151301571Y-122789904D02*
X151301571Y-121989904D01*
X151225380Y-122485142D02*
X150996809Y-122789904D01*
X150996809Y-122256571D02*
X151301571Y-122561333D01*
D13*
X168235380Y-38385904D02*
X168235380Y-38957333D01*
X169235380Y-38671619D02*
X168235380Y-38671619D01*
X168235380Y-39195428D02*
X169235380Y-39862095D01*
X168235380Y-39862095D02*
X169235380Y-39195428D01*
X168235380Y-40433523D02*
X168235380Y-40528761D01*
X168283000Y-40624000D01*
X168330619Y-40671619D01*
X168425857Y-40719238D01*
X168616333Y-40766857D01*
X168854428Y-40766857D01*
X169044904Y-40719238D01*
X169140142Y-40671619D01*
X169187761Y-40624000D01*
X169235380Y-40528761D01*
X169235380Y-40433523D01*
X169187761Y-40338285D01*
X169140142Y-40290666D01*
X169044904Y-40243047D01*
X168854428Y-40195428D01*
X168616333Y-40195428D01*
X168425857Y-40243047D01*
X168330619Y-40290666D01*
X168283000Y-40338285D01*
X168235380Y-40433523D01*
D11*
X91194000Y-47565571D02*
X91694000Y-49065571D01*
X92194000Y-47565571D01*
X100191142Y-47383000D02*
X100334000Y-47311571D01*
X100548285Y-47311571D01*
X100762571Y-47383000D01*
X100905428Y-47525857D01*
X100976857Y-47668714D01*
X101048285Y-47954428D01*
X101048285Y-48168714D01*
X100976857Y-48454428D01*
X100905428Y-48597285D01*
X100762571Y-48740142D01*
X100548285Y-48811571D01*
X100405428Y-48811571D01*
X100191142Y-48740142D01*
X100119714Y-48668714D01*
X100119714Y-48168714D01*
X100405428Y-48168714D01*
X158114190Y-137947142D02*
X157447523Y-137947142D01*
X157161809Y-138994761D02*
X158114190Y-138994761D01*
X158114190Y-136994761D01*
X157161809Y-136994761D01*
X156304666Y-138994761D02*
X156304666Y-137661428D01*
X156304666Y-138042380D02*
X156209428Y-137851904D01*
X156114190Y-137756666D01*
X155923714Y-137661428D01*
X155733238Y-137661428D01*
X154209428Y-137661428D02*
X154209428Y-139280476D01*
X154304666Y-139470952D01*
X154399904Y-139566190D01*
X154590380Y-139661428D01*
X154876095Y-139661428D01*
X155066571Y-139566190D01*
X154209428Y-138899523D02*
X154399904Y-138994761D01*
X154780857Y-138994761D01*
X154971333Y-138899523D01*
X155066571Y-138804285D01*
X155161809Y-138613809D01*
X155161809Y-138042380D01*
X155066571Y-137851904D01*
X154971333Y-137756666D01*
X154780857Y-137661428D01*
X154399904Y-137661428D01*
X154209428Y-137756666D01*
X152971333Y-138994761D02*
X153161809Y-138899523D01*
X153257047Y-138804285D01*
X153352285Y-138613809D01*
X153352285Y-138042380D01*
X153257047Y-137851904D01*
X153161809Y-137756666D01*
X152971333Y-137661428D01*
X152685619Y-137661428D01*
X152495142Y-137756666D01*
X152399904Y-137851904D01*
X152304666Y-138042380D01*
X152304666Y-138613809D01*
X152399904Y-138804285D01*
X152495142Y-138899523D01*
X152685619Y-138994761D01*
X152971333Y-138994761D01*
X151447523Y-138994761D02*
X151447523Y-136994761D01*
X150971333Y-136994761D01*
X150685619Y-137090000D01*
X150495142Y-137280476D01*
X150399904Y-137470952D01*
X150304666Y-137851904D01*
X150304666Y-138137619D01*
X150399904Y-138518571D01*
X150495142Y-138709047D01*
X150685619Y-138899523D01*
X150971333Y-138994761D01*
X151447523Y-138994761D01*
X148590380Y-138994761D02*
X148590380Y-137947142D01*
X148685619Y-137756666D01*
X148876095Y-137661428D01*
X149257047Y-137661428D01*
X149447523Y-137756666D01*
X148590380Y-138899523D02*
X148780857Y-138994761D01*
X149257047Y-138994761D01*
X149447523Y-138899523D01*
X149542761Y-138709047D01*
X149542761Y-138518571D01*
X149447523Y-138328095D01*
X149257047Y-138232857D01*
X148780857Y-138232857D01*
X148590380Y-138137619D01*
X147733238Y-138899523D02*
X147542761Y-138994761D01*
X147161809Y-138994761D01*
X146971333Y-138899523D01*
X146876095Y-138709047D01*
X146876095Y-138613809D01*
X146971333Y-138423333D01*
X147161809Y-138328095D01*
X147447523Y-138328095D01*
X147638000Y-138232857D01*
X147733238Y-138042380D01*
X147733238Y-137947142D01*
X147638000Y-137756666D01*
X147447523Y-137661428D01*
X147161809Y-137661428D01*
X146971333Y-137756666D01*
X146018952Y-138994761D02*
X146018952Y-136994761D01*
X145161809Y-138994761D02*
X145161809Y-137947142D01*
X145257047Y-137756666D01*
X145447523Y-137661428D01*
X145733238Y-137661428D01*
X145923714Y-137756666D01*
X146018952Y-137851904D01*
X156257047Y-142214761D02*
X156923714Y-141262380D01*
X157399904Y-142214761D02*
X157399904Y-140214761D01*
X156638000Y-140214761D01*
X156447523Y-140310000D01*
X156352285Y-140405238D01*
X156257047Y-140595714D01*
X156257047Y-140881428D01*
X156352285Y-141071904D01*
X156447523Y-141167142D01*
X156638000Y-141262380D01*
X157399904Y-141262380D01*
X154638000Y-142119523D02*
X154828476Y-142214761D01*
X155209428Y-142214761D01*
X155399904Y-142119523D01*
X155495142Y-141929047D01*
X155495142Y-141167142D01*
X155399904Y-140976666D01*
X155209428Y-140881428D01*
X154828476Y-140881428D01*
X154638000Y-140976666D01*
X154542761Y-141167142D01*
X154542761Y-141357619D01*
X155495142Y-141548095D01*
X153876095Y-140881428D02*
X153399904Y-142214761D01*
X152923714Y-140881428D01*
X152161809Y-142024285D02*
X152066571Y-142119523D01*
X152161809Y-142214761D01*
X152257047Y-142119523D01*
X152161809Y-142024285D01*
X152161809Y-142214761D01*
X148638000Y-142214761D02*
X149780857Y-142214761D01*
X149209428Y-142214761D02*
X149209428Y-140214761D01*
X149399904Y-140500476D01*
X149590380Y-140690952D01*
X149780857Y-140786190D01*
X147780857Y-142024285D02*
X147685619Y-142119523D01*
X147780857Y-142214761D01*
X147876095Y-142119523D01*
X147780857Y-142024285D01*
X147780857Y-142214761D01*
X146923714Y-140405238D02*
X146828476Y-140310000D01*
X146638000Y-140214761D01*
X146161809Y-140214761D01*
X145971333Y-140310000D01*
X145876095Y-140405238D01*
X145780857Y-140595714D01*
X145780857Y-140786190D01*
X145876095Y-141071904D01*
X147018952Y-142214761D01*
X145780857Y-142214761D01*
D12*
X80562380Y-71100904D02*
X80829047Y-70719952D01*
X81019523Y-71100904D02*
X81019523Y-70300904D01*
X80714761Y-70300904D01*
X80638571Y-70339000D01*
X80600476Y-70377095D01*
X80562380Y-70453285D01*
X80562380Y-70567571D01*
X80600476Y-70643761D01*
X80638571Y-70681857D01*
X80714761Y-70719952D01*
X81019523Y-70719952D01*
X79800476Y-70339000D02*
X79876666Y-70300904D01*
X79990952Y-70300904D01*
X80105238Y-70339000D01*
X80181428Y-70415190D01*
X80219523Y-70491380D01*
X80257619Y-70643761D01*
X80257619Y-70758047D01*
X80219523Y-70910428D01*
X80181428Y-70986619D01*
X80105238Y-71062809D01*
X79990952Y-71100904D01*
X79914761Y-71100904D01*
X79800476Y-71062809D01*
X79762380Y-71024714D01*
X79762380Y-70758047D01*
X79914761Y-70758047D01*
X79152857Y-70681857D02*
X79038571Y-70719952D01*
X79000476Y-70758047D01*
X78962380Y-70834238D01*
X78962380Y-70948523D01*
X79000476Y-71024714D01*
X79038571Y-71062809D01*
X79114761Y-71100904D01*
X79419523Y-71100904D01*
X79419523Y-70300904D01*
X79152857Y-70300904D01*
X79076666Y-70339000D01*
X79038571Y-70377095D01*
X79000476Y-70453285D01*
X79000476Y-70529476D01*
X79038571Y-70605666D01*
X79076666Y-70643761D01*
X79152857Y-70681857D01*
X79419523Y-70681857D01*
D11*
X178982428Y-42866571D02*
X177982428Y-44366571D01*
X177982428Y-42866571D02*
X178982428Y-44366571D01*
X177625285Y-43366571D02*
X177053857Y-43366571D01*
X177411000Y-42866571D02*
X177411000Y-44152285D01*
X177339571Y-44295142D01*
X177196714Y-44366571D01*
X177053857Y-44366571D01*
X176553857Y-44366571D02*
X176553857Y-43366571D01*
X176553857Y-43652285D02*
X176482428Y-43509428D01*
X176411000Y-43438000D01*
X176268142Y-43366571D01*
X176125285Y-43366571D01*
X174982428Y-44366571D02*
X174982428Y-43580857D01*
X175053857Y-43438000D01*
X175196714Y-43366571D01*
X175482428Y-43366571D01*
X175625285Y-43438000D01*
X174982428Y-44295142D02*
X175125285Y-44366571D01*
X175482428Y-44366571D01*
X175625285Y-44295142D01*
X175696714Y-44152285D01*
X175696714Y-44009428D01*
X175625285Y-43866571D01*
X175482428Y-43795142D01*
X175125285Y-43795142D01*
X174982428Y-43723714D01*
X179058142Y-47002000D02*
X179201000Y-46930571D01*
X179415285Y-46930571D01*
X179629571Y-47002000D01*
X179772428Y-47144857D01*
X179843857Y-47287714D01*
X179915285Y-47573428D01*
X179915285Y-47787714D01*
X179843857Y-48073428D01*
X179772428Y-48216285D01*
X179629571Y-48359142D01*
X179415285Y-48430571D01*
X179272428Y-48430571D01*
X179058142Y-48359142D01*
X178986714Y-48287714D01*
X178986714Y-47787714D01*
X179272428Y-47787714D01*
D12*
X156451142Y-122561333D02*
X156070190Y-122561333D01*
X156527333Y-122789904D02*
X156260666Y-121989904D01*
X155994000Y-122789904D01*
X155384476Y-122256571D02*
X155384476Y-122789904D01*
X155727333Y-122256571D02*
X155727333Y-122675619D01*
X155689238Y-122751809D01*
X155613047Y-122789904D01*
X155498761Y-122789904D01*
X155422571Y-122751809D01*
X155384476Y-122713714D01*
X154584476Y-122789904D02*
X155041619Y-122789904D01*
X154813047Y-122789904D02*
X154813047Y-121989904D01*
X154889238Y-122104190D01*
X154965428Y-122180380D01*
X155041619Y-122218476D01*
X154241619Y-122789904D02*
X154241619Y-121989904D01*
X154165428Y-122485142D02*
X153936857Y-122789904D01*
X153936857Y-122256571D02*
X154241619Y-122561333D01*
X207098761Y-77412904D02*
X206565428Y-78212904D01*
X206565428Y-77412904D02*
X207098761Y-78212904D01*
X206374952Y-77679571D02*
X206070190Y-77679571D01*
X206260666Y-77412904D02*
X206260666Y-78098619D01*
X206222571Y-78174809D01*
X206146380Y-78212904D01*
X206070190Y-78212904D01*
X205803523Y-78212904D02*
X205803523Y-77679571D01*
X205803523Y-77831952D02*
X205765428Y-77755761D01*
X205727333Y-77717666D01*
X205651142Y-77679571D01*
X205574952Y-77679571D01*
X204965428Y-78212904D02*
X204965428Y-77793857D01*
X205003523Y-77717666D01*
X205079714Y-77679571D01*
X205232095Y-77679571D01*
X205308285Y-77717666D01*
X204965428Y-78174809D02*
X205041619Y-78212904D01*
X205232095Y-78212904D01*
X205308285Y-78174809D01*
X205346380Y-78098619D01*
X205346380Y-78022428D01*
X205308285Y-77946238D01*
X205232095Y-77908142D01*
X205041619Y-77908142D01*
X204965428Y-77870047D01*
D11*
X108847000Y-47311571D02*
X109347000Y-48811571D01*
X109847000Y-47311571D01*
X173871000Y-47057571D02*
X174371000Y-48557571D01*
X174871000Y-47057571D01*
X97428714Y-51097571D02*
X97928714Y-50383285D01*
X98285857Y-51097571D02*
X98285857Y-49597571D01*
X97714428Y-49597571D01*
X97571571Y-49669000D01*
X97500142Y-49740428D01*
X97428714Y-49883285D01*
X97428714Y-50097571D01*
X97500142Y-50240428D01*
X97571571Y-50311857D01*
X97714428Y-50383285D01*
X98285857Y-50383285D01*
X96000142Y-49669000D02*
X96143000Y-49597571D01*
X96357285Y-49597571D01*
X96571571Y-49669000D01*
X96714428Y-49811857D01*
X96785857Y-49954714D01*
X96857285Y-50240428D01*
X96857285Y-50454714D01*
X96785857Y-50740428D01*
X96714428Y-50883285D01*
X96571571Y-51026142D01*
X96357285Y-51097571D01*
X96214428Y-51097571D01*
X96000142Y-51026142D01*
X95928714Y-50954714D01*
X95928714Y-50454714D01*
X96214428Y-50454714D01*
X94785857Y-50311857D02*
X94571571Y-50383285D01*
X94500142Y-50454714D01*
X94428714Y-50597571D01*
X94428714Y-50811857D01*
X94500142Y-50954714D01*
X94571571Y-51026142D01*
X94714428Y-51097571D01*
X95285857Y-51097571D01*
X95285857Y-49597571D01*
X94785857Y-49597571D01*
X94643000Y-49669000D01*
X94571571Y-49740428D01*
X94500142Y-49883285D01*
X94500142Y-50026142D01*
X94571571Y-50169000D01*
X94643000Y-50240428D01*
X94785857Y-50311857D01*
X95285857Y-50311857D01*
D13*
X137755380Y-38258904D02*
X137755380Y-38830333D01*
X138755380Y-38544619D02*
X137755380Y-38544619D01*
X137755380Y-39068428D02*
X138755380Y-39735095D01*
X137755380Y-39735095D02*
X138755380Y-39068428D01*
X137755380Y-40306523D02*
X137755380Y-40401761D01*
X137803000Y-40497000D01*
X137850619Y-40544619D01*
X137945857Y-40592238D01*
X138136333Y-40639857D01*
X138374428Y-40639857D01*
X138564904Y-40592238D01*
X138660142Y-40544619D01*
X138707761Y-40497000D01*
X138755380Y-40401761D01*
X138755380Y-40306523D01*
X138707761Y-40211285D01*
X138660142Y-40163666D01*
X138564904Y-40116047D01*
X138374428Y-40068428D01*
X138136333Y-40068428D01*
X137945857Y-40116047D01*
X137850619Y-40163666D01*
X137803000Y-40211285D01*
X137755380Y-40306523D01*
D14*
X78772095Y-63533714D02*
X78534000Y-64200380D01*
X78295904Y-63533714D01*
X78534000Y-69600380D02*
X78534000Y-68933714D01*
X78534000Y-68600380D02*
X78581619Y-68648000D01*
X78534000Y-68695619D01*
X78486380Y-68648000D01*
X78534000Y-68600380D01*
X78534000Y-68695619D01*
X84505428Y-64400380D02*
X84600666Y-64352761D01*
X84648285Y-64305142D01*
X84695904Y-64209904D01*
X84695904Y-63924190D01*
X84648285Y-63828952D01*
X84600666Y-63781333D01*
X84505428Y-63733714D01*
X84362571Y-63733714D01*
X84267333Y-63781333D01*
X84219714Y-63828952D01*
X84172095Y-63924190D01*
X84172095Y-64209904D01*
X84219714Y-64305142D01*
X84267333Y-64352761D01*
X84362571Y-64400380D01*
X84505428Y-64400380D01*
X84319714Y-69333714D02*
X84319714Y-70143238D01*
X84367333Y-70238476D01*
X84414952Y-70286095D01*
X84510190Y-70333714D01*
X84653047Y-70333714D01*
X84748285Y-70286095D01*
X84319714Y-69952761D02*
X84414952Y-70000380D01*
X84605428Y-70000380D01*
X84700666Y-69952761D01*
X84748285Y-69905142D01*
X84795904Y-69809904D01*
X84795904Y-69524190D01*
X84748285Y-69428952D01*
X84700666Y-69381333D01*
X84605428Y-69333714D01*
X84414952Y-69333714D01*
X84319714Y-69381333D01*
X84505428Y-83450380D02*
X84600666Y-83402761D01*
X84648285Y-83355142D01*
X84695904Y-83259904D01*
X84695904Y-82974190D01*
X84648285Y-82878952D01*
X84600666Y-82831333D01*
X84505428Y-82783714D01*
X84362571Y-82783714D01*
X84267333Y-82831333D01*
X84219714Y-82878952D01*
X84172095Y-82974190D01*
X84172095Y-83259904D01*
X84219714Y-83355142D01*
X84267333Y-83402761D01*
X84362571Y-83450380D01*
X84505428Y-83450380D01*
X78534000Y-88650380D02*
X78534000Y-87983714D01*
X78534000Y-87650380D02*
X78581619Y-87698000D01*
X78534000Y-87745619D01*
X78486380Y-87698000D01*
X78534000Y-87650380D01*
X78534000Y-87745619D01*
X84319714Y-88383714D02*
X84319714Y-89193238D01*
X84367333Y-89288476D01*
X84414952Y-89336095D01*
X84510190Y-89383714D01*
X84653047Y-89383714D01*
X84748285Y-89336095D01*
X84319714Y-89002761D02*
X84414952Y-89050380D01*
X84605428Y-89050380D01*
X84700666Y-89002761D01*
X84748285Y-88955142D01*
X84795904Y-88859904D01*
X84795904Y-88574190D01*
X84748285Y-88478952D01*
X84700666Y-88431333D01*
X84605428Y-88383714D01*
X84414952Y-88383714D01*
X84319714Y-88431333D01*
X78772095Y-82583714D02*
X78534000Y-83250380D01*
X78295904Y-82583714D01*
X84319714Y-107433714D02*
X84319714Y-108243238D01*
X84367333Y-108338476D01*
X84414952Y-108386095D01*
X84510190Y-108433714D01*
X84653047Y-108433714D01*
X84748285Y-108386095D01*
X84319714Y-108052761D02*
X84414952Y-108100380D01*
X84605428Y-108100380D01*
X84700666Y-108052761D01*
X84748285Y-108005142D01*
X84795904Y-107909904D01*
X84795904Y-107624190D01*
X84748285Y-107528952D01*
X84700666Y-107481333D01*
X84605428Y-107433714D01*
X84414952Y-107433714D01*
X84319714Y-107481333D01*
X84505428Y-102500380D02*
X84600666Y-102452761D01*
X84648285Y-102405142D01*
X84695904Y-102309904D01*
X84695904Y-102024190D01*
X84648285Y-101928952D01*
X84600666Y-101881333D01*
X84505428Y-101833714D01*
X84362571Y-101833714D01*
X84267333Y-101881333D01*
X84219714Y-101928952D01*
X84172095Y-102024190D01*
X84172095Y-102309904D01*
X84219714Y-102405142D01*
X84267333Y-102452761D01*
X84362571Y-102500380D01*
X84505428Y-102500380D01*
X78772095Y-101633714D02*
X78534000Y-102300380D01*
X78295904Y-101633714D01*
X78534000Y-107700380D02*
X78534000Y-107033714D01*
X78534000Y-106700380D02*
X78581619Y-106748000D01*
X78534000Y-106795619D01*
X78486380Y-106748000D01*
X78534000Y-106700380D01*
X78534000Y-106795619D01*
X84505428Y-121550380D02*
X84600666Y-121502761D01*
X84648285Y-121455142D01*
X84695904Y-121359904D01*
X84695904Y-121074190D01*
X84648285Y-120978952D01*
X84600666Y-120931333D01*
X84505428Y-120883714D01*
X84362571Y-120883714D01*
X84267333Y-120931333D01*
X84219714Y-120978952D01*
X84172095Y-121074190D01*
X84172095Y-121359904D01*
X84219714Y-121455142D01*
X84267333Y-121502761D01*
X84362571Y-121550380D01*
X84505428Y-121550380D01*
X78772095Y-120683714D02*
X78534000Y-121350380D01*
X78295904Y-120683714D01*
X84319714Y-126483714D02*
X84319714Y-127293238D01*
X84367333Y-127388476D01*
X84414952Y-127436095D01*
X84510190Y-127483714D01*
X84653047Y-127483714D01*
X84748285Y-127436095D01*
X84319714Y-127102761D02*
X84414952Y-127150380D01*
X84605428Y-127150380D01*
X84700666Y-127102761D01*
X84748285Y-127055142D01*
X84795904Y-126959904D01*
X84795904Y-126674190D01*
X84748285Y-126578952D01*
X84700666Y-126531333D01*
X84605428Y-126483714D01*
X84414952Y-126483714D01*
X84319714Y-126531333D01*
X78534000Y-126750380D02*
X78534000Y-126083714D01*
X78534000Y-125750380D02*
X78581619Y-125798000D01*
X78534000Y-125845619D01*
X78486380Y-125798000D01*
X78534000Y-125750380D01*
X78534000Y-125845619D01*
X94372380Y-136982571D02*
X94324761Y-136887333D01*
X94277142Y-136839714D01*
X94181904Y-136792095D01*
X93896190Y-136792095D01*
X93800952Y-136839714D01*
X93753333Y-136887333D01*
X93705714Y-136982571D01*
X93705714Y-137125428D01*
X93753333Y-137220666D01*
X93800952Y-137268285D01*
X93896190Y-137315904D01*
X94181904Y-137315904D01*
X94277142Y-137268285D01*
X94324761Y-137220666D01*
X94372380Y-137125428D01*
X94372380Y-136982571D01*
X99572380Y-142954000D02*
X98905714Y-142954000D01*
X98572380Y-142954000D02*
X98620000Y-142906380D01*
X98667619Y-142954000D01*
X98620000Y-143001619D01*
X98572380Y-142954000D01*
X98667619Y-142954000D01*
X93505714Y-142715904D02*
X94172380Y-142954000D01*
X93505714Y-143192095D01*
X99305714Y-137168285D02*
X100115238Y-137168285D01*
X100210476Y-137120666D01*
X100258095Y-137073047D01*
X100305714Y-136977809D01*
X100305714Y-136834952D01*
X100258095Y-136739714D01*
X99924761Y-137168285D02*
X99972380Y-137073047D01*
X99972380Y-136882571D01*
X99924761Y-136787333D01*
X99877142Y-136739714D01*
X99781904Y-136692095D01*
X99496190Y-136692095D01*
X99400952Y-136739714D01*
X99353333Y-136787333D01*
X99305714Y-136882571D01*
X99305714Y-137073047D01*
X99353333Y-137168285D01*
X121446047Y-137168285D02*
X122255571Y-137168285D01*
X122350809Y-137120666D01*
X122398428Y-137073047D01*
X122446047Y-136977809D01*
X122446047Y-136834952D01*
X122398428Y-136739714D01*
X122065094Y-137168285D02*
X122112713Y-137073047D01*
X122112713Y-136882571D01*
X122065094Y-136787333D01*
X122017475Y-136739714D01*
X121922237Y-136692095D01*
X121636523Y-136692095D01*
X121541285Y-136739714D01*
X121493666Y-136787333D01*
X121446047Y-136882571D01*
X121446047Y-137073047D01*
X121493666Y-137168285D01*
X121712713Y-142954000D02*
X121046047Y-142954000D01*
X120712713Y-142954000D02*
X120760333Y-142906380D01*
X120807952Y-142954000D01*
X120760333Y-143001619D01*
X120712713Y-142954000D01*
X120807952Y-142954000D01*
X115646047Y-142715904D02*
X116312713Y-142954000D01*
X115646047Y-143192095D01*
X116512713Y-136982571D02*
X116465094Y-136887333D01*
X116417475Y-136839714D01*
X116322237Y-136792095D01*
X116036523Y-136792095D01*
X115941285Y-136839714D01*
X115893666Y-136887333D01*
X115846047Y-136982571D01*
X115846047Y-137125428D01*
X115893666Y-137220666D01*
X115941285Y-137268285D01*
X116036523Y-137315904D01*
X116322237Y-137315904D01*
X116417475Y-137268285D01*
X116465094Y-137220666D01*
X116512713Y-137125428D01*
X116512713Y-136982571D01*
X137786381Y-142715904D02*
X138453047Y-142954000D01*
X137786381Y-143192095D01*
X138653047Y-136982571D02*
X138605428Y-136887333D01*
X138557809Y-136839714D01*
X138462571Y-136792095D01*
X138176857Y-136792095D01*
X138081619Y-136839714D01*
X138034000Y-136887333D01*
X137986381Y-136982571D01*
X137986381Y-137125428D01*
X138034000Y-137220666D01*
X138081619Y-137268285D01*
X138176857Y-137315904D01*
X138462571Y-137315904D01*
X138557809Y-137268285D01*
X138605428Y-137220666D01*
X138653047Y-137125428D01*
X138653047Y-136982571D01*
X143586381Y-137168285D02*
X144395905Y-137168285D01*
X144491143Y-137120666D01*
X144538762Y-137073047D01*
X144586381Y-136977809D01*
X144586381Y-136834952D01*
X144538762Y-136739714D01*
X144205428Y-137168285D02*
X144253047Y-137073047D01*
X144253047Y-136882571D01*
X144205428Y-136787333D01*
X144157809Y-136739714D01*
X144062571Y-136692095D01*
X143776857Y-136692095D01*
X143681619Y-136739714D01*
X143634000Y-136787333D01*
X143586381Y-136882571D01*
X143586381Y-137073047D01*
X143634000Y-137168285D01*
X143853047Y-142954000D02*
X143186381Y-142954000D01*
X142853047Y-142954000D02*
X142900667Y-142906380D01*
X142948286Y-142954000D01*
X142900667Y-143001619D01*
X142853047Y-142954000D01*
X142948286Y-142954000D01*
X159926714Y-142715904D02*
X160593380Y-142954000D01*
X159926714Y-143192095D01*
X165726714Y-137168285D02*
X166536238Y-137168285D01*
X166631476Y-137120666D01*
X166679095Y-137073047D01*
X166726714Y-136977809D01*
X166726714Y-136834952D01*
X166679095Y-136739714D01*
X166345761Y-137168285D02*
X166393380Y-137073047D01*
X166393380Y-136882571D01*
X166345761Y-136787333D01*
X166298142Y-136739714D01*
X166202904Y-136692095D01*
X165917190Y-136692095D01*
X165821952Y-136739714D01*
X165774333Y-136787333D01*
X165726714Y-136882571D01*
X165726714Y-137073047D01*
X165774333Y-137168285D01*
X160793380Y-136982571D02*
X160745761Y-136887333D01*
X160698142Y-136839714D01*
X160602904Y-136792095D01*
X160317190Y-136792095D01*
X160221952Y-136839714D01*
X160174333Y-136887333D01*
X160126714Y-136982571D01*
X160126714Y-137125428D01*
X160174333Y-137220666D01*
X160221952Y-137268285D01*
X160317190Y-137315904D01*
X160602904Y-137315904D01*
X160698142Y-137268285D01*
X160745761Y-137220666D01*
X160793380Y-137125428D01*
X160793380Y-136982571D01*
X165993380Y-142954000D02*
X165326714Y-142954000D01*
X164993380Y-142954000D02*
X165041000Y-142906380D01*
X165088619Y-142954000D01*
X165041000Y-143001619D01*
X164993380Y-142954000D01*
X165088619Y-142954000D01*
X201290736Y-141659400D02*
X201830266Y-141201097D01*
X201703129Y-141897495D01*
X204530266Y-136524560D02*
X204196933Y-137101910D01*
X204030266Y-137390586D02*
X204012836Y-137325537D01*
X204077885Y-137308107D01*
X204095315Y-137373156D01*
X204030266Y-137390586D01*
X204077885Y-137308107D01*
X196758857Y-138042178D02*
X196652569Y-138035798D01*
X196587520Y-138053228D01*
X196498662Y-138111897D01*
X196355805Y-138359333D01*
X196349425Y-138465621D01*
X196366855Y-138530670D01*
X196425524Y-138619528D01*
X196549242Y-138690957D01*
X196655530Y-138697336D01*
X196720579Y-138679907D01*
X196809437Y-138621238D01*
X196952294Y-138373802D01*
X196958674Y-138267514D01*
X196941244Y-138202465D01*
X196882575Y-138113606D01*
X196758857Y-138042178D01*
X199386358Y-133862643D02*
X199791119Y-133161575D01*
X199797499Y-133055287D01*
X199780069Y-132990238D01*
X199721400Y-132901380D01*
X199597682Y-132829951D01*
X199491394Y-132823571D01*
X199695881Y-133326532D02*
X199637212Y-133237674D01*
X199472255Y-133142436D01*
X199365967Y-133136056D01*
X199300918Y-133153486D01*
X199212060Y-133212155D01*
X199069203Y-133459591D01*
X199062823Y-133565879D01*
X199080253Y-133630928D01*
X199138922Y-133719786D01*
X199303879Y-133815024D01*
X199410167Y-133821404D01*
X210375095Y-115742714D02*
X210137000Y-116409380D01*
X209898904Y-115742714D01*
X210137000Y-111009380D02*
X210137000Y-110342714D01*
X210137000Y-110009380D02*
X210184619Y-110057000D01*
X210137000Y-110104619D01*
X210089380Y-110057000D01*
X210137000Y-110009380D01*
X210137000Y-110104619D01*
X203922714Y-109942714D02*
X203922714Y-110752238D01*
X203970333Y-110847476D01*
X204017952Y-110895095D01*
X204113190Y-110942714D01*
X204256047Y-110942714D01*
X204351285Y-110895095D01*
X203922714Y-110561761D02*
X204017952Y-110609380D01*
X204208428Y-110609380D01*
X204303666Y-110561761D01*
X204351285Y-110514142D01*
X204398904Y-110418904D01*
X204398904Y-110133190D01*
X204351285Y-110037952D01*
X204303666Y-109990333D01*
X204208428Y-109942714D01*
X204017952Y-109942714D01*
X203922714Y-109990333D01*
X204308428Y-116209380D02*
X204403666Y-116161761D01*
X204451285Y-116114142D01*
X204498904Y-116018904D01*
X204498904Y-115733190D01*
X204451285Y-115637952D01*
X204403666Y-115590333D01*
X204308428Y-115542714D01*
X204165571Y-115542714D01*
X204070333Y-115590333D01*
X204022714Y-115637952D01*
X203975095Y-115733190D01*
X203975095Y-116018904D01*
X204022714Y-116114142D01*
X204070333Y-116161761D01*
X204165571Y-116209380D01*
X204308428Y-116209380D01*
X204308428Y-95508380D02*
X204403666Y-95460761D01*
X204451285Y-95413142D01*
X204498904Y-95317904D01*
X204498904Y-95032190D01*
X204451285Y-94936952D01*
X204403666Y-94889333D01*
X204308428Y-94841714D01*
X204165571Y-94841714D01*
X204070333Y-94889333D01*
X204022714Y-94936952D01*
X203975095Y-95032190D01*
X203975095Y-95317904D01*
X204022714Y-95413142D01*
X204070333Y-95460761D01*
X204165571Y-95508380D01*
X204308428Y-95508380D01*
X210137000Y-90308380D02*
X210137000Y-89641714D01*
X210137000Y-89308380D02*
X210184619Y-89356000D01*
X210137000Y-89403619D01*
X210089380Y-89356000D01*
X210137000Y-89308380D01*
X210137000Y-89403619D01*
X203922714Y-89241714D02*
X203922714Y-90051238D01*
X203970333Y-90146476D01*
X204017952Y-90194095D01*
X204113190Y-90241714D01*
X204256047Y-90241714D01*
X204351285Y-90194095D01*
X203922714Y-89860761D02*
X204017952Y-89908380D01*
X204208428Y-89908380D01*
X204303666Y-89860761D01*
X204351285Y-89813142D01*
X204398904Y-89717904D01*
X204398904Y-89432190D01*
X204351285Y-89336952D01*
X204303666Y-89289333D01*
X204208428Y-89241714D01*
X204017952Y-89241714D01*
X203922714Y-89289333D01*
X210375095Y-95041714D02*
X210137000Y-95708380D01*
X209898904Y-95041714D01*
X210375095Y-76245714D02*
X210137000Y-76912380D01*
X209898904Y-76245714D01*
X204308428Y-76712380D02*
X204403666Y-76664761D01*
X204451285Y-76617142D01*
X204498904Y-76521904D01*
X204498904Y-76236190D01*
X204451285Y-76140952D01*
X204403666Y-76093333D01*
X204308428Y-76045714D01*
X204165571Y-76045714D01*
X204070333Y-76093333D01*
X204022714Y-76140952D01*
X203975095Y-76236190D01*
X203975095Y-76521904D01*
X204022714Y-76617142D01*
X204070333Y-76664761D01*
X204165571Y-76712380D01*
X204308428Y-76712380D01*
X203922714Y-70445714D02*
X203922714Y-71255238D01*
X203970333Y-71350476D01*
X204017952Y-71398095D01*
X204113190Y-71445714D01*
X204256047Y-71445714D01*
X204351285Y-71398095D01*
X203922714Y-71064761D02*
X204017952Y-71112380D01*
X204208428Y-71112380D01*
X204303666Y-71064761D01*
X204351285Y-71017142D01*
X204398904Y-70921904D01*
X204398904Y-70636190D01*
X204351285Y-70540952D01*
X204303666Y-70493333D01*
X204208428Y-70445714D01*
X204017952Y-70445714D01*
X203922714Y-70493333D01*
X210137000Y-71512380D02*
X210137000Y-70845714D01*
X210137000Y-70512380D02*
X210184619Y-70560000D01*
X210137000Y-70607619D01*
X210089380Y-70560000D01*
X210137000Y-70512380D01*
X210137000Y-70607619D01*
G36*
X126278481Y-141926111D02*
G01*
X126370219Y-141979807D01*
X126410673Y-142018718D01*
X126438628Y-142072206D01*
X126445507Y-142148923D01*
X126442039Y-142208671D01*
X126420709Y-142265891D01*
X126370219Y-142318038D01*
X126369944Y-142318270D01*
X126278713Y-142369097D01*
X126188107Y-142375647D01*
X126107393Y-142341799D01*
X126045836Y-142271430D01*
X126012703Y-142168418D01*
X126012325Y-142165575D01*
X126008452Y-142095448D01*
X126025969Y-142045666D01*
X126073509Y-141991048D01*
X126102084Y-141965359D01*
X126189066Y-141921296D01*
X126278481Y-141926111D01*
G37*
G36*
X126717968Y-137680334D02*
G01*
X126740314Y-137690409D01*
X126791676Y-137720477D01*
X126812310Y-137744223D01*
X126811999Y-137746978D01*
X126806789Y-137763392D01*
X126794083Y-137794469D01*
X126772486Y-137843144D01*
X126740607Y-137912350D01*
X126697053Y-138005022D01*
X126640430Y-138124091D01*
X126569346Y-138272494D01*
X126482408Y-138453162D01*
X126378222Y-138669030D01*
X126255397Y-138923032D01*
X126112539Y-139218101D01*
X125837226Y-139786508D01*
X125743727Y-139747755D01*
X125722041Y-139738649D01*
X125667661Y-139714585D01*
X125641857Y-139701163D01*
X125649131Y-139681350D01*
X125675680Y-139621544D01*
X125719636Y-139526106D01*
X125778948Y-139399398D01*
X125851561Y-139245780D01*
X125935423Y-139069614D01*
X126028481Y-138875261D01*
X126128681Y-138667082D01*
X126623875Y-137640840D01*
X126717968Y-137680334D01*
G37*
G36*
X129613554Y-141880564D02*
G01*
X129569112Y-142049720D01*
X129490796Y-142187525D01*
X129380690Y-142290965D01*
X129240876Y-142357024D01*
X129121455Y-142378800D01*
X128970304Y-142371985D01*
X128828603Y-142330738D01*
X128711415Y-142257882D01*
X128687955Y-142235447D01*
X128605697Y-142119273D01*
X128548316Y-141973156D01*
X128518091Y-141808160D01*
X128517747Y-141732930D01*
X128792193Y-141732930D01*
X128795897Y-141843824D01*
X128816867Y-141980550D01*
X128857682Y-142079557D01*
X128919850Y-142145725D01*
X128923607Y-142148231D01*
X128989773Y-142174726D01*
X129067379Y-142185628D01*
X129148448Y-142172814D01*
X129236762Y-142118665D01*
X129302423Y-142025133D01*
X129343348Y-141895471D01*
X129357453Y-141732930D01*
X129349242Y-141606412D01*
X129314545Y-141468587D01*
X129254613Y-141366114D01*
X129171529Y-141302245D01*
X129067379Y-141280233D01*
X128968505Y-141295464D01*
X128889266Y-141346016D01*
X128834402Y-141434240D01*
X128802511Y-141562443D01*
X128792193Y-141732930D01*
X128517747Y-141732930D01*
X128517301Y-141635351D01*
X128548227Y-141465794D01*
X128597651Y-141354590D01*
X128678430Y-141247057D01*
X128776744Y-141161696D01*
X128880285Y-141111635D01*
X128950119Y-141095745D01*
X129118026Y-141086566D01*
X129267911Y-141119880D01*
X129396182Y-141192321D01*
X129499248Y-141300523D01*
X129573518Y-141441121D01*
X129615399Y-141610749D01*
X129619092Y-141732930D01*
X129621302Y-141806042D01*
X129613554Y-141880564D01*
G37*
G36*
X123922999Y-142172174D02*
G01*
X123849398Y-142274144D01*
X123741557Y-142346846D01*
X123733189Y-142350415D01*
X123610455Y-142377902D01*
X123473333Y-142372334D01*
X123339438Y-142336263D01*
X123226389Y-142272240D01*
X123158595Y-142218183D01*
X123095259Y-142286677D01*
X123088902Y-142293308D01*
X123028077Y-142341960D01*
X122969198Y-142369787D01*
X122927444Y-142373930D01*
X122901216Y-142353099D01*
X122879188Y-142295497D01*
X122865452Y-142241002D01*
X122869430Y-142197920D01*
X122899090Y-142159405D01*
X122899697Y-142158796D01*
X122917711Y-142136217D01*
X122930415Y-142105362D01*
X122938716Y-142058099D01*
X122943522Y-141986297D01*
X122945430Y-141896425D01*
X123190979Y-141896425D01*
X123191266Y-141926678D01*
X123198171Y-141999521D01*
X123219759Y-142050186D01*
X123263245Y-142098886D01*
X123273922Y-142108555D01*
X123360618Y-142159952D01*
X123458545Y-142183095D01*
X123552011Y-142176296D01*
X123625324Y-142137865D01*
X123658593Y-142093988D01*
X123681892Y-142008480D01*
X123668880Y-141919213D01*
X123619881Y-141843680D01*
X123597115Y-141824716D01*
X123548532Y-141799867D01*
X123479257Y-141784622D01*
X123375179Y-141775021D01*
X123190979Y-141763200D01*
X123190979Y-141896425D01*
X122945430Y-141896425D01*
X122945740Y-141881824D01*
X122946278Y-141736549D01*
X122946296Y-141698452D01*
X122947072Y-141563574D01*
X122949776Y-141466602D01*
X122955486Y-141398599D01*
X122965278Y-141350631D01*
X122980230Y-141313762D01*
X123001419Y-141279057D01*
X123027206Y-141243459D01*
X123098255Y-141172731D01*
X123185069Y-141127690D01*
X123298129Y-141104077D01*
X123447915Y-141097635D01*
X123560134Y-141101870D01*
X123673624Y-141114211D01*
X123766292Y-141132731D01*
X123828765Y-141155502D01*
X123851673Y-141180599D01*
X123851665Y-141181074D01*
X123843864Y-141216512D01*
X123825792Y-141273762D01*
X123799910Y-141348004D01*
X123685088Y-141312485D01*
X123654815Y-141304096D01*
X123538900Y-141286617D01*
X123424747Y-141288569D01*
X123327196Y-141308778D01*
X123261088Y-141346069D01*
X123252514Y-141355919D01*
X123218734Y-141419452D01*
X123198145Y-141496873D01*
X123184535Y-141598345D01*
X123354607Y-141598345D01*
X123494276Y-141605599D01*
X123663632Y-141640348D01*
X123796871Y-141702804D01*
X123891897Y-141791876D01*
X123946616Y-141906472D01*
X123949671Y-141918679D01*
X123955282Y-142008480D01*
X123957908Y-142050498D01*
X123922999Y-142172174D01*
G37*
G36*
X130192224Y-138282052D02*
G01*
X130270134Y-138303467D01*
X130319619Y-138332509D01*
X130383417Y-138384170D01*
X130444192Y-138444215D01*
X130489663Y-138500387D01*
X130507549Y-138540429D01*
X130508078Y-138545493D01*
X130530259Y-138564048D01*
X130541151Y-138551955D01*
X130556864Y-138503071D01*
X130569783Y-138429462D01*
X130586599Y-138294876D01*
X130972482Y-138294876D01*
X130972482Y-138490638D01*
X130776721Y-138490638D01*
X130776721Y-139347092D01*
X130972482Y-139347092D01*
X130972482Y-139542853D01*
X130287318Y-139542853D01*
X130287318Y-139347092D01*
X130532019Y-139347092D01*
X130532019Y-139119014D01*
X130531805Y-139070152D01*
X130528238Y-138969028D01*
X130517901Y-138894206D01*
X130497746Y-138829346D01*
X130464727Y-138758105D01*
X130417343Y-138680532D01*
X130341719Y-138594872D01*
X130260962Y-138536609D01*
X130185819Y-138515108D01*
X130179035Y-138515353D01*
X130154747Y-138526720D01*
X130143340Y-138563538D01*
X130140497Y-138637458D01*
X130140497Y-138759809D01*
X130055961Y-138759809D01*
X130046509Y-138759814D01*
X130010989Y-138758008D01*
X129986358Y-138747318D01*
X129969348Y-138719795D01*
X129956689Y-138667489D01*
X129945114Y-138582448D01*
X129931353Y-138456722D01*
X129925418Y-138376517D01*
X129930263Y-138319540D01*
X129948677Y-138291923D01*
X129953101Y-138289391D01*
X130014124Y-138274311D01*
X130100359Y-138272100D01*
X130192224Y-138282052D01*
G37*
G36*
X136496615Y-140603833D02*
G01*
X136509313Y-140605888D01*
X136575865Y-140615303D01*
X136618965Y-140619270D01*
X136625335Y-140624763D01*
X136632576Y-140651526D01*
X136638330Y-140704047D01*
X136642733Y-140786190D01*
X136645921Y-140901816D01*
X136648029Y-141054790D01*
X136649195Y-141248973D01*
X136649553Y-141488229D01*
X136649553Y-142356919D01*
X136404852Y-142356919D01*
X136404852Y-141460680D01*
X136337559Y-141397917D01*
X136253548Y-141332223D01*
X136152477Y-141286666D01*
X136060829Y-141282393D01*
X135984669Y-141320731D01*
X135984493Y-141320890D01*
X135969304Y-141338610D01*
X135957990Y-141364814D01*
X135949990Y-141406245D01*
X135944743Y-141469644D01*
X135941690Y-141561753D01*
X135940268Y-141689316D01*
X135939919Y-141859074D01*
X135939919Y-142356919D01*
X135670748Y-142356919D01*
X135670786Y-141849164D01*
X135670932Y-141748780D01*
X135672147Y-141596084D01*
X135675026Y-141481220D01*
X135680091Y-141396972D01*
X135687863Y-141336124D01*
X135698862Y-141291460D01*
X135713608Y-141255763D01*
X135739940Y-141213196D01*
X135822776Y-141139300D01*
X135929829Y-141097850D01*
X136051434Y-141090088D01*
X136177922Y-141117253D01*
X136299627Y-141180585D01*
X136404852Y-141254754D01*
X136404852Y-140588666D01*
X136496615Y-140603833D01*
G37*
G36*
X132433128Y-141920672D02*
G01*
X132397548Y-142041376D01*
X132390519Y-142056270D01*
X132309591Y-142178365D01*
X132202145Y-142280032D01*
X132082820Y-142347052D01*
X132047739Y-142357847D01*
X131925409Y-142374090D01*
X131785359Y-142369807D01*
X131646673Y-142346431D01*
X131528435Y-142305396D01*
X131484456Y-142283003D01*
X131433049Y-142253117D01*
X131413066Y-142235810D01*
X131413554Y-142233457D01*
X131431810Y-142202411D01*
X131468234Y-142153547D01*
X131523281Y-142084761D01*
X131633286Y-142134657D01*
X131677044Y-142152666D01*
X131816285Y-142184002D01*
X131940275Y-142172173D01*
X132044217Y-142119278D01*
X132123314Y-142027414D01*
X132172768Y-141898679D01*
X132190835Y-141818576D01*
X131364004Y-141818576D01*
X131364004Y-141680712D01*
X131364583Y-141643304D01*
X131367165Y-141622815D01*
X131603259Y-141622815D01*
X132196921Y-141622815D01*
X132180786Y-141555522D01*
X132152120Y-141469173D01*
X132085669Y-141365902D01*
X131996650Y-141301867D01*
X131889996Y-141280093D01*
X131770634Y-141303611D01*
X131721202Y-141331931D01*
X131658226Y-141412051D01*
X131620027Y-141531052D01*
X131603259Y-141622815D01*
X131367165Y-141622815D01*
X131384493Y-141485341D01*
X131435742Y-141354940D01*
X131522390Y-141240828D01*
X131575961Y-141192460D01*
X131702930Y-141120374D01*
X131840901Y-141088428D01*
X131981635Y-141094586D01*
X132116888Y-141136810D01*
X132238420Y-141213065D01*
X132337991Y-141321314D01*
X132407358Y-141459520D01*
X132413626Y-141479244D01*
X132441483Y-141620878D01*
X132441564Y-141622815D01*
X132447878Y-141774263D01*
X132433128Y-141920672D01*
G37*
G36*
X136237438Y-139286080D02*
G01*
X136243920Y-139338674D01*
X136254793Y-139364616D01*
X136271052Y-139371562D01*
X136320337Y-139362655D01*
X136399649Y-139332817D01*
X136480354Y-139291124D01*
X136541634Y-139247148D01*
X136593438Y-139198481D01*
X136657226Y-139282111D01*
X136674063Y-139304462D01*
X136702169Y-139348737D01*
X136702927Y-139376243D01*
X136679166Y-139402506D01*
X136643618Y-139429553D01*
X136546927Y-139484192D01*
X136435988Y-139530288D01*
X136333687Y-139557568D01*
X136233561Y-139573578D01*
X136233561Y-139909905D01*
X136062270Y-139909905D01*
X136062270Y-139573684D01*
X135948087Y-139541714D01*
X135922644Y-139533962D01*
X135786449Y-139466020D01*
X135684110Y-139365900D01*
X135619711Y-139238859D01*
X135597337Y-139090156D01*
X135597604Y-139083612D01*
X135856056Y-139083612D01*
X135858316Y-139185580D01*
X135896261Y-139274106D01*
X135965212Y-139335283D01*
X135968156Y-139336799D01*
X136019861Y-139361402D01*
X136048820Y-139371562D01*
X136053123Y-139357994D01*
X136057852Y-139304595D01*
X136061077Y-139220102D01*
X136062270Y-139114626D01*
X136061151Y-139032399D01*
X136056752Y-138942077D01*
X136049790Y-138880471D01*
X136041100Y-138857690D01*
X136005473Y-138869882D01*
X135951221Y-138913732D01*
X135900255Y-138975816D01*
X135866383Y-139041598D01*
X135856056Y-139083612D01*
X135597604Y-139083612D01*
X135599517Y-139036713D01*
X135627968Y-138911266D01*
X135692650Y-138806438D01*
X135797732Y-138716831D01*
X135947384Y-138637047D01*
X136062270Y-138586228D01*
X136062270Y-138249038D01*
X136236636Y-138249038D01*
X136238640Y-138343096D01*
X136245796Y-138544215D01*
X136314916Y-138489742D01*
X136388241Y-138411932D01*
X136414360Y-138328617D01*
X136394690Y-138234889D01*
X136372361Y-138196024D01*
X136326778Y-138149520D01*
X136278827Y-138124393D01*
X136242913Y-138130547D01*
X136241254Y-138134638D01*
X136237590Y-138175457D01*
X136236636Y-138249038D01*
X136062270Y-138249038D01*
X136062270Y-138117182D01*
X135976392Y-138131118D01*
X135896520Y-138155012D01*
X135821007Y-138194548D01*
X135751499Y-138244041D01*
X135680652Y-138170093D01*
X135609805Y-138096144D01*
X135670864Y-138049099D01*
X135680414Y-138042091D01*
X135766890Y-137994020D01*
X135878528Y-137949494D01*
X135994977Y-137916820D01*
X136019793Y-137910791D01*
X136044010Y-137897083D01*
X136056658Y-137867754D01*
X136061493Y-137811699D01*
X136062270Y-137717812D01*
X136062270Y-137533201D01*
X136221326Y-137548537D01*
X136233561Y-137729476D01*
X136245796Y-137910414D01*
X136344189Y-137939353D01*
X136349640Y-137940973D01*
X136473186Y-137991613D01*
X136561543Y-138062731D01*
X136626878Y-138163998D01*
X136664766Y-138276717D01*
X136664934Y-138328617D01*
X136665176Y-138403062D01*
X136619071Y-138520063D01*
X136527672Y-138624856D01*
X136392199Y-138714580D01*
X136233742Y-138796514D01*
X136233651Y-139084038D01*
X136233837Y-139114626D01*
X136234350Y-139199179D01*
X136237438Y-139286080D01*
G37*
G36*
X130192224Y-141096118D02*
G01*
X130270134Y-141117532D01*
X130319619Y-141146574D01*
X130383417Y-141198235D01*
X130444192Y-141258281D01*
X130489663Y-141314453D01*
X130507549Y-141354495D01*
X130508078Y-141359558D01*
X130530259Y-141378113D01*
X130541151Y-141366021D01*
X130556864Y-141317136D01*
X130569783Y-141243528D01*
X130586599Y-141108942D01*
X130972482Y-141108942D01*
X130972482Y-141304703D01*
X130776721Y-141304703D01*
X130776721Y-142161158D01*
X130972482Y-142161158D01*
X130972482Y-142356919D01*
X130287318Y-142356919D01*
X130287318Y-142161158D01*
X130532019Y-142161158D01*
X130532019Y-141933079D01*
X130531805Y-141884218D01*
X130528238Y-141783093D01*
X130517901Y-141708272D01*
X130497746Y-141643412D01*
X130464727Y-141572170D01*
X130417343Y-141494597D01*
X130341719Y-141408937D01*
X130260962Y-141350675D01*
X130185819Y-141329173D01*
X130179035Y-141329418D01*
X130154747Y-141340786D01*
X130143340Y-141377603D01*
X130140497Y-141451524D01*
X130140497Y-141573875D01*
X130055961Y-141573875D01*
X130046509Y-141573880D01*
X130010989Y-141572073D01*
X129986358Y-141561384D01*
X129969348Y-141533861D01*
X129956689Y-141481554D01*
X129945114Y-141396513D01*
X129931353Y-141270787D01*
X129925418Y-141190582D01*
X129930263Y-141133605D01*
X129948677Y-141105989D01*
X129953101Y-141103456D01*
X130014124Y-141088377D01*
X130100359Y-141086165D01*
X130192224Y-141096118D01*
G37*
G36*
X129651095Y-138001235D02*
G01*
X129284043Y-138001235D01*
X129284043Y-138624728D01*
X129283622Y-138814086D01*
X129282035Y-138973676D01*
X129278938Y-139096555D01*
X129273986Y-139189022D01*
X129266834Y-139257373D01*
X129257138Y-139307904D01*
X129244554Y-139346913D01*
X129206797Y-139416974D01*
X129125642Y-139501348D01*
X129027106Y-139549393D01*
X128943955Y-139561800D01*
X128812891Y-139560692D01*
X128683125Y-139539948D01*
X128649712Y-139531259D01*
X128595718Y-139515627D01*
X128574409Y-139506895D01*
X128574498Y-139506173D01*
X128583038Y-139477978D01*
X128601250Y-139424219D01*
X128618856Y-139380219D01*
X128641429Y-139359029D01*
X128683491Y-139355066D01*
X128759588Y-139362677D01*
X128826272Y-139368145D01*
X128897732Y-139362252D01*
X128952978Y-139337578D01*
X129014871Y-139297024D01*
X129014871Y-137805474D01*
X129651095Y-137805474D01*
X129651095Y-138001235D01*
G37*
G36*
X124800554Y-141093923D02*
G01*
X124953255Y-141136995D01*
X125084705Y-141216532D01*
X125190962Y-141327210D01*
X125268086Y-141463706D01*
X125312134Y-141620693D01*
X125319166Y-141792848D01*
X125285238Y-141974846D01*
X125258352Y-142049122D01*
X125174704Y-142186942D01*
X125056858Y-142289819D01*
X124904047Y-142358526D01*
X124833014Y-142373226D01*
X124728375Y-142377748D01*
X124619016Y-142367845D01*
X124513879Y-142346059D01*
X124421906Y-142314930D01*
X124352041Y-142277001D01*
X124313224Y-142234813D01*
X124314398Y-142190910D01*
X124318047Y-142184291D01*
X124360130Y-142114288D01*
X124394270Y-142081833D01*
X124432858Y-142080815D01*
X124488286Y-142105118D01*
X124494522Y-142108199D01*
X124592560Y-142137993D01*
X124712638Y-142148923D01*
X124747519Y-142148557D01*
X124821774Y-142141461D01*
X124874496Y-142120167D01*
X124925773Y-142077990D01*
X124940860Y-142062106D01*
X124998685Y-141964524D01*
X125033443Y-141839957D01*
X125043800Y-141702435D01*
X125028423Y-141565988D01*
X124985977Y-141444647D01*
X124961459Y-141405084D01*
X124878181Y-141329592D01*
X124770621Y-141290744D01*
X124646604Y-141290431D01*
X124513950Y-141330544D01*
X124405418Y-141379780D01*
X124349657Y-141311654D01*
X124342938Y-141303310D01*
X124307799Y-141254264D01*
X124293015Y-141223799D01*
X124293860Y-141219542D01*
X124323054Y-141193999D01*
X124384357Y-141163526D01*
X124464881Y-141133117D01*
X124551739Y-141107765D01*
X124632040Y-141092463D01*
X124800554Y-141093923D01*
G37*
G36*
X131682116Y-138755544D02*
G01*
X131682125Y-138803271D01*
X131682536Y-138952423D01*
X131684128Y-139061829D01*
X131687685Y-139138737D01*
X131693986Y-139190396D01*
X131703814Y-139224053D01*
X131717949Y-139246958D01*
X131737174Y-139266358D01*
X131741023Y-139269835D01*
X131842944Y-139341068D01*
X131940344Y-139371498D01*
X132026912Y-139360410D01*
X132096332Y-139307087D01*
X132097528Y-139305560D01*
X132114819Y-139280169D01*
X132127551Y-139249926D01*
X132136416Y-139207481D01*
X132142106Y-139145489D01*
X132145313Y-139056600D01*
X132146730Y-138933467D01*
X132147048Y-138768744D01*
X132147048Y-138294876D01*
X132394352Y-138294876D01*
X132386933Y-138842941D01*
X132385494Y-138944305D01*
X132382700Y-139099531D01*
X132379247Y-139215925D01*
X132374521Y-139300069D01*
X132367906Y-139358547D01*
X132358787Y-139397939D01*
X132346548Y-139424830D01*
X132330574Y-139445802D01*
X132277779Y-139491625D01*
X132208224Y-139533004D01*
X132113663Y-139559552D01*
X131980149Y-139559715D01*
X131848093Y-139524248D01*
X131733860Y-139455812D01*
X131661734Y-139395122D01*
X131645511Y-139468988D01*
X131640843Y-139488615D01*
X131623869Y-139524905D01*
X131589145Y-139539906D01*
X131521116Y-139542853D01*
X131412944Y-139542853D01*
X131412944Y-138294876D01*
X131682116Y-138294876D01*
X131682116Y-138755544D01*
G37*
G36*
X133316161Y-138279857D02*
G01*
X133468862Y-138322929D01*
X133600312Y-138402466D01*
X133706569Y-138513145D01*
X133783693Y-138649640D01*
X133827741Y-138806628D01*
X133834772Y-138978782D01*
X133800845Y-139160781D01*
X133773959Y-139235056D01*
X133690311Y-139372877D01*
X133572465Y-139475754D01*
X133419654Y-139544460D01*
X133348621Y-139559160D01*
X133243982Y-139563683D01*
X133134623Y-139553780D01*
X133029486Y-139531993D01*
X132937513Y-139500864D01*
X132867648Y-139462935D01*
X132828831Y-139420748D01*
X132830005Y-139376845D01*
X132833654Y-139370225D01*
X132875737Y-139300222D01*
X132909877Y-139267768D01*
X132948465Y-139266749D01*
X133003893Y-139291053D01*
X133010129Y-139294134D01*
X133108167Y-139323928D01*
X133228245Y-139334857D01*
X133263126Y-139334491D01*
X133337381Y-139327396D01*
X133390103Y-139306102D01*
X133441379Y-139263924D01*
X133456467Y-139248041D01*
X133514292Y-139150459D01*
X133549049Y-139025892D01*
X133559407Y-138888369D01*
X133544030Y-138751922D01*
X133501584Y-138630581D01*
X133477066Y-138591018D01*
X133393788Y-138515527D01*
X133286228Y-138476679D01*
X133162211Y-138476366D01*
X133029557Y-138516479D01*
X132921025Y-138565715D01*
X132865264Y-138497589D01*
X132858545Y-138489245D01*
X132823406Y-138440199D01*
X132808622Y-138409734D01*
X132809467Y-138405477D01*
X132838661Y-138379933D01*
X132899964Y-138349461D01*
X132980488Y-138319052D01*
X133067346Y-138293700D01*
X133147647Y-138278397D01*
X133316161Y-138279857D01*
G37*
G36*
X133527956Y-141097716D02*
G01*
X133625737Y-141159624D01*
X133711330Y-141234776D01*
X133727121Y-141171859D01*
X133741712Y-141134272D01*
X133773886Y-141113722D01*
X133838140Y-141108942D01*
X133933368Y-141108942D01*
X133933368Y-142356919D01*
X133688667Y-142356919D01*
X133688667Y-141381666D01*
X133622808Y-141329861D01*
X133601196Y-141314416D01*
X133530973Y-141287094D01*
X133475060Y-141300512D01*
X133441290Y-141353643D01*
X133441159Y-141354133D01*
X133435734Y-141398280D01*
X133430778Y-141482342D01*
X133426613Y-141597505D01*
X133423558Y-141734952D01*
X133421935Y-141885869D01*
X133419495Y-142356919D01*
X133223734Y-142356919D01*
X133223734Y-141409257D01*
X133159222Y-141344745D01*
X133125038Y-141315996D01*
X133060025Y-141285403D01*
X133003838Y-141285797D01*
X132969416Y-141318939D01*
X132968458Y-141322469D01*
X132964046Y-141366909D01*
X132960229Y-141450628D01*
X132957228Y-141565609D01*
X132955266Y-141703833D01*
X132954563Y-141857282D01*
X132954563Y-142356919D01*
X132731817Y-142356919D01*
X132739192Y-141779711D01*
X132746567Y-141202504D01*
X132815224Y-141143488D01*
X132822483Y-141137530D01*
X132912054Y-141095559D01*
X133013878Y-141091567D01*
X133113312Y-141123750D01*
X133195712Y-141190308D01*
X133219020Y-141208088D01*
X133248405Y-141198225D01*
X133296046Y-141155216D01*
X133341058Y-141118006D01*
X133432143Y-141083831D01*
X133527956Y-141097716D01*
G37*
G36*
X127276337Y-141622856D02*
G01*
X127282716Y-141678398D01*
X127300330Y-141823591D01*
X127316716Y-141947444D01*
X127330888Y-142043124D01*
X127341856Y-142103800D01*
X127348633Y-142122643D01*
X127355301Y-142102746D01*
X127369460Y-142041197D01*
X127388778Y-141946205D01*
X127411623Y-141825862D01*
X127436359Y-141688257D01*
X127509958Y-141267998D01*
X127636440Y-141260670D01*
X127762922Y-141253343D01*
X127788652Y-141383021D01*
X127799552Y-141439209D01*
X127819225Y-141543305D01*
X127842214Y-141667005D01*
X127865491Y-141794106D01*
X127885117Y-141899048D01*
X127905150Y-141999716D01*
X127921380Y-142074492D01*
X127931493Y-142112217D01*
X127933647Y-142113012D01*
X127942689Y-142084049D01*
X127955853Y-142015352D01*
X127972090Y-141913339D01*
X127990348Y-141784432D01*
X128009579Y-141635050D01*
X128072771Y-141121177D01*
X128203317Y-141113709D01*
X128251048Y-141111455D01*
X128303262Y-141113222D01*
X128323081Y-141125126D01*
X128320914Y-141150414D01*
X128318897Y-141158748D01*
X128308598Y-141211187D01*
X128292260Y-141301326D01*
X128271241Y-141421438D01*
X128246899Y-141563803D01*
X128220594Y-141720695D01*
X128210960Y-141778592D01*
X128185197Y-141932279D01*
X128161948Y-142069373D01*
X128142573Y-142181951D01*
X128128432Y-142262089D01*
X128120884Y-142301861D01*
X128110504Y-142330519D01*
X128086740Y-142347805D01*
X128038099Y-142355295D01*
X127952569Y-142356919D01*
X127796594Y-142356919D01*
X127771882Y-142216216D01*
X127762571Y-142162041D01*
X127744625Y-142054577D01*
X127723924Y-141928142D01*
X127703328Y-141800093D01*
X127685727Y-141698488D01*
X127667920Y-141612891D01*
X127652940Y-141558189D01*
X127642852Y-141543157D01*
X127639647Y-141550240D01*
X127627862Y-141597531D01*
X127611590Y-141680380D01*
X127592541Y-141789712D01*
X127572427Y-141916456D01*
X127569785Y-141933932D01*
X127547151Y-142085574D01*
X127529547Y-142196139D01*
X127513542Y-142272054D01*
X127495707Y-142319750D01*
X127472613Y-142345655D01*
X127440831Y-142356199D01*
X127396931Y-142357810D01*
X127337484Y-142356919D01*
X127254290Y-142355476D01*
X127204228Y-142348415D01*
X127179671Y-142331841D01*
X127168684Y-142301861D01*
X127167674Y-142296989D01*
X127157968Y-142243795D01*
X127142857Y-142155038D01*
X127123676Y-142039105D01*
X127101757Y-141904380D01*
X127078436Y-141759249D01*
X127055047Y-141612098D01*
X127032923Y-141471312D01*
X127013398Y-141345277D01*
X126997808Y-141242378D01*
X126987485Y-141171000D01*
X126983764Y-141139530D01*
X126985157Y-141133359D01*
X127020058Y-141115098D01*
X127101008Y-141108942D01*
X127218167Y-141108942D01*
X127276337Y-141622856D01*
G37*
G36*
X135290626Y-141880564D02*
G01*
X135246183Y-142049720D01*
X135167868Y-142187525D01*
X135057762Y-142290965D01*
X134917947Y-142357024D01*
X134798526Y-142378800D01*
X134647375Y-142371985D01*
X134505674Y-142330738D01*
X134388487Y-142257882D01*
X134365026Y-142235447D01*
X134282769Y-142119273D01*
X134225387Y-141973156D01*
X134195162Y-141808160D01*
X134194818Y-141732930D01*
X134469264Y-141732930D01*
X134472968Y-141843824D01*
X134493938Y-141980550D01*
X134534753Y-142079557D01*
X134596922Y-142145725D01*
X134600678Y-142148231D01*
X134666844Y-142174726D01*
X134744450Y-142185628D01*
X134825519Y-142172814D01*
X134913833Y-142118665D01*
X134979494Y-142025133D01*
X135020419Y-141895471D01*
X135034524Y-141732930D01*
X135026314Y-141606412D01*
X134991616Y-141468587D01*
X134931684Y-141366114D01*
X134848601Y-141302245D01*
X134744450Y-141280233D01*
X134645576Y-141295464D01*
X134566337Y-141346016D01*
X134511473Y-141434240D01*
X134479583Y-141562443D01*
X134469264Y-141732930D01*
X134194818Y-141732930D01*
X134194372Y-141635351D01*
X134225298Y-141465794D01*
X134274722Y-141354590D01*
X134355501Y-141247057D01*
X134453815Y-141161696D01*
X134557357Y-141111635D01*
X134627191Y-141095745D01*
X134795097Y-141086566D01*
X134944982Y-141119880D01*
X135073253Y-141192321D01*
X135176319Y-141300523D01*
X135250589Y-141441121D01*
X135292471Y-141610749D01*
X135296163Y-141732930D01*
X135298373Y-141806042D01*
X135290626Y-141880564D01*
G37*
D15*
X104609488Y-44984972D02*
X110931954Y-43870150D01*
X110931954Y-43870150D02*
X111386912Y-46450347D01*
X112035912Y-45005702D02*
X111159433Y-45160249D01*
X111386912Y-46450347D02*
X105064446Y-47565168D01*
X103960488Y-46429617D02*
X104836967Y-46275070D01*
X105064446Y-47565168D02*
X104609488Y-44984972D01*
X135050350Y-43018000D02*
X135050350Y-49438000D01*
X133740350Y-42128000D02*
X133740350Y-43018000D01*
X132430350Y-43018000D02*
X135050350Y-43018000D01*
X135050350Y-49438000D02*
X132430350Y-49438000D01*
X132430350Y-49438000D02*
X132430350Y-43018000D01*
X133740350Y-50328000D02*
X133740350Y-49438000D01*
D14*
X198882000Y-43434000D02*
X195072000Y-43434000D01*
X200152000Y-44704000D02*
X198882000Y-44704000D01*
X193802000Y-57404000D02*
X200152000Y-57404000D01*
X198882000Y-44704000D02*
X198882000Y-43434000D01*
X200152000Y-57404000D02*
X200152000Y-44704000D01*
X193802000Y-44704000D02*
X193802000Y-57404000D01*
X195072000Y-43434000D02*
X195072000Y-44704000D01*
X195072000Y-44704000D02*
X193802000Y-44704000D01*
X95377000Y-57432000D02*
X95877000Y-57932000D01*
X94877000Y-57932000D02*
X95377000Y-58432000D01*
X95377000Y-60042000D02*
X95377000Y-62032000D01*
X95877000Y-57932000D02*
X94877000Y-57932000D01*
X95377000Y-53732000D02*
X95377000Y-55832000D01*
X106525000Y-66294000D02*
X106025000Y-66794000D01*
X106025000Y-65794000D02*
X105525000Y-66294000D01*
X103915000Y-66294000D02*
X101925000Y-66294000D01*
X110225000Y-66294000D02*
X108125000Y-66294000D01*
X106025000Y-66794000D02*
X106025000Y-65794000D01*
X120915000Y-61595000D02*
X123015000Y-61595000D01*
X125115000Y-61095000D02*
X125115000Y-62095000D01*
X125115000Y-62095000D02*
X125615000Y-61595000D01*
X127225000Y-61595000D02*
X129215000Y-61595000D01*
X124615000Y-61595000D02*
X125115000Y-61095000D01*
X146275000Y-78232000D02*
X148265000Y-78232000D01*
X143665000Y-78232000D02*
X144165000Y-77732000D01*
X144165000Y-78732000D02*
X144665000Y-78232000D01*
X144165000Y-77732000D02*
X144165000Y-78732000D01*
X139965000Y-78232000D02*
X142065000Y-78232000D01*
X162715000Y-80518000D02*
X163215000Y-80018000D01*
X163215000Y-80018000D02*
X163215000Y-81018000D01*
X163215000Y-81018000D02*
X163715000Y-80518000D01*
X165325000Y-80518000D02*
X167315000Y-80518000D01*
X159015000Y-80518000D02*
X161115000Y-80518000D01*
X182225000Y-63381000D02*
X181725000Y-63881000D01*
X180115000Y-63881000D02*
X178125000Y-63881000D01*
X182225000Y-64381000D02*
X182225000Y-63381000D01*
X182725000Y-63881000D02*
X182225000Y-64381000D01*
X186425000Y-63881000D02*
X184325000Y-63881000D01*
X192913000Y-70623000D02*
X192913000Y-72723000D01*
X192413000Y-74823000D02*
X192913000Y-75323000D01*
X192913000Y-76933000D02*
X192913000Y-78923000D01*
X193413000Y-74823000D02*
X192413000Y-74823000D01*
X192913000Y-74323000D02*
X193413000Y-74823000D01*
X95877000Y-77109000D02*
X94877000Y-77109000D01*
X95377000Y-72909000D02*
X95377000Y-75009000D01*
X94877000Y-77109000D02*
X95377000Y-77609000D01*
X95377000Y-79219000D02*
X95377000Y-81209000D01*
X95377000Y-76609000D02*
X95877000Y-77109000D01*
X106025000Y-84844000D02*
X105525000Y-85344000D01*
X103915000Y-85344000D02*
X101925000Y-85344000D01*
X110225000Y-85344000D02*
X108125000Y-85344000D01*
X106525000Y-85344000D02*
X106025000Y-85844000D01*
X106025000Y-85844000D02*
X106025000Y-84844000D01*
X125075000Y-80145000D02*
X124575000Y-80645000D01*
X125575000Y-80645000D02*
X125075000Y-81145000D01*
X125075000Y-81145000D02*
X125075000Y-80145000D01*
X122965000Y-80645000D02*
X120975000Y-80645000D01*
X129275000Y-80645000D02*
X127175000Y-80645000D01*
X144125000Y-81145000D02*
X144125000Y-80145000D01*
X144625000Y-80645000D02*
X144125000Y-81145000D01*
X144125000Y-80145000D02*
X143625000Y-80645000D01*
X148325000Y-80645000D02*
X146225000Y-80645000D01*
X142015000Y-80645000D02*
X140025000Y-80645000D01*
X163175000Y-82431000D02*
X162675000Y-82931000D01*
X167375000Y-82931000D02*
X165275000Y-82931000D01*
X161065000Y-82931000D02*
X159075000Y-82931000D01*
X163175000Y-83431000D02*
X163175000Y-82431000D01*
X163675000Y-82931000D02*
X163175000Y-83431000D01*
X180115000Y-82931000D02*
X178125000Y-82931000D01*
X182725000Y-82931000D02*
X182225000Y-83431000D01*
X186425000Y-82931000D02*
X184325000Y-82931000D01*
X182225000Y-83431000D02*
X182225000Y-82431000D01*
X182225000Y-82431000D02*
X181725000Y-82931000D01*
X192413000Y-89809000D02*
X192913000Y-90309000D01*
X192913000Y-91919000D02*
X192913000Y-93909000D01*
X192913000Y-89309000D02*
X193413000Y-89809000D01*
X192913000Y-85609000D02*
X192913000Y-87709000D01*
X193413000Y-89809000D02*
X192413000Y-89809000D01*
X95377000Y-98142000D02*
X95377000Y-100132000D01*
X95377000Y-95532000D02*
X95877000Y-96032000D01*
X95377000Y-91832000D02*
X95377000Y-93932000D01*
X94877000Y-96032000D02*
X95377000Y-96532000D01*
X95877000Y-96032000D02*
X94877000Y-96032000D01*
X106192000Y-103894000D02*
X106192000Y-104894000D01*
X106192000Y-104894000D02*
X106692000Y-104394000D01*
X101992000Y-104394000D02*
X104092000Y-104394000D01*
X105692000Y-104394000D02*
X106192000Y-103894000D01*
X108302000Y-104394000D02*
X110292000Y-104394000D01*
X125075000Y-100195000D02*
X125075000Y-99195000D01*
X122965000Y-99695000D02*
X120975000Y-99695000D01*
X125075000Y-99195000D02*
X124575000Y-99695000D01*
X129275000Y-99695000D02*
X127175000Y-99695000D01*
X125575000Y-99695000D02*
X125075000Y-100195000D01*
X142015000Y-97282000D02*
X140025000Y-97282000D01*
X148325000Y-97282000D02*
X146225000Y-97282000D01*
X144125000Y-97782000D02*
X144125000Y-96782000D01*
X144125000Y-96782000D02*
X143625000Y-97282000D01*
X144625000Y-97282000D02*
X144125000Y-97782000D01*
X167375000Y-99695000D02*
X165275000Y-99695000D01*
X163675000Y-99695000D02*
X163175000Y-100195000D01*
X163175000Y-99195000D02*
X162675000Y-99695000D01*
X161065000Y-99695000D02*
X159075000Y-99695000D01*
X163175000Y-100195000D02*
X163175000Y-99195000D01*
X182725000Y-102108000D02*
X182225000Y-102608000D01*
X186425000Y-102108000D02*
X184325000Y-102108000D01*
X182225000Y-101608000D02*
X181725000Y-102108000D01*
X182225000Y-102608000D02*
X182225000Y-101608000D01*
X180115000Y-102108000D02*
X178125000Y-102108000D01*
X192913000Y-107558000D02*
X192913000Y-105458000D01*
X192413000Y-103358000D02*
X193413000Y-103358000D01*
X192913000Y-103858000D02*
X192413000Y-103358000D01*
X192913000Y-101248000D02*
X192913000Y-99258000D01*
X193413000Y-103358000D02*
X192913000Y-102858000D01*
X106192000Y-106307000D02*
X106192000Y-107307000D01*
X106192000Y-107307000D02*
X106692000Y-106807000D01*
X101992000Y-106807000D02*
X104092000Y-106807000D01*
X108302000Y-106807000D02*
X110292000Y-106807000D01*
X105692000Y-106807000D02*
X106192000Y-106307000D01*
X94877000Y-114574000D02*
X95377000Y-115074000D01*
X95377000Y-114074000D02*
X95877000Y-114574000D01*
X95377000Y-116684000D02*
X95377000Y-118674000D01*
X95377000Y-110374000D02*
X95377000Y-112474000D01*
X95877000Y-114574000D02*
X94877000Y-114574000D01*
X122965000Y-118745000D02*
X120975000Y-118745000D01*
X125075000Y-118245000D02*
X124575000Y-118745000D01*
X125575000Y-118745000D02*
X125075000Y-119245000D01*
X125075000Y-119245000D02*
X125075000Y-118245000D01*
X129275000Y-118745000D02*
X127175000Y-118745000D01*
X145006000Y-116332000D02*
X144506000Y-116832000D01*
X142396000Y-116332000D02*
X140406000Y-116332000D01*
X144506000Y-115832000D02*
X144006000Y-116332000D01*
X148706000Y-116332000D02*
X146606000Y-116332000D01*
X144506000Y-116832000D02*
X144506000Y-115832000D01*
X186425000Y-120396000D02*
X184325000Y-120396000D01*
X182725000Y-120396000D02*
X182225000Y-120896000D01*
X182225000Y-120896000D02*
X182225000Y-119896000D01*
X180115000Y-120396000D02*
X178125000Y-120396000D01*
X182225000Y-119896000D02*
X181725000Y-120396000D01*
X184185942Y-148705013D02*
X184868954Y-148522000D01*
X180798635Y-146172000D02*
X182617288Y-147222000D01*
X186263255Y-149327000D02*
X187986646Y-150322000D01*
X184685942Y-147838987D02*
X184185942Y-148705013D01*
X184002929Y-148022000D02*
X184685942Y-147838987D01*
X105938000Y-123944000D02*
X106438000Y-123444000D01*
X108048000Y-123444000D02*
X110038000Y-123444000D01*
X101738000Y-123444000D02*
X103838000Y-123444000D01*
X105938000Y-122944000D02*
X105938000Y-123944000D01*
X105438000Y-123444000D02*
X105938000Y-122944000D01*
X101738000Y-125857000D02*
X103838000Y-125857000D01*
X105438000Y-125857000D02*
X105938000Y-125357000D01*
X108048000Y-125857000D02*
X110038000Y-125857000D01*
X105938000Y-126357000D02*
X106438000Y-125857000D01*
X105938000Y-125357000D02*
X105938000Y-126357000D01*
X122965000Y-121031000D02*
X120975000Y-121031000D01*
X125075000Y-121531000D02*
X125075000Y-120531000D01*
X125075000Y-120531000D02*
X124575000Y-121031000D01*
X129275000Y-121031000D02*
X127175000Y-121031000D01*
X125575000Y-121031000D02*
X125075000Y-121531000D01*
X144506000Y-118245000D02*
X144006000Y-118745000D01*
X145006000Y-118745000D02*
X144506000Y-119245000D01*
X144506000Y-119245000D02*
X144506000Y-118245000D01*
X142396000Y-118745000D02*
X140406000Y-118745000D01*
X148706000Y-118745000D02*
X146606000Y-118745000D01*
X135255000Y-68580000D02*
X135255000Y-38100000D01*
X150495000Y-68580000D02*
X150495000Y-38100000D01*
X135255000Y-38100000D02*
X137795000Y-38100000D01*
X153035000Y-38100000D02*
X153035000Y-68580000D01*
X137795000Y-38100000D02*
X137795000Y-68580000D01*
X150495000Y-38100000D02*
X153035000Y-38100000D01*
X153035000Y-68580000D02*
X150495000Y-68580000D01*
X137795000Y-68580000D02*
X135255000Y-68580000D01*
X195092000Y-111879000D02*
X195592000Y-111379000D01*
X190892000Y-111379000D02*
X192992000Y-111379000D01*
X194592000Y-111379000D02*
X195092000Y-110879000D01*
X197202000Y-111379000D02*
X199192000Y-111379000D01*
X195092000Y-110879000D02*
X195092000Y-111879000D01*
X195092000Y-113165000D02*
X195092000Y-114165000D01*
X190892000Y-113665000D02*
X192992000Y-113665000D01*
X195092000Y-114165000D02*
X195592000Y-113665000D01*
X197202000Y-113665000D02*
X199192000Y-113665000D01*
X194592000Y-113665000D02*
X195092000Y-113165000D01*
X200946270Y-158284013D02*
X201446270Y-157417987D01*
X199368957Y-156796000D02*
X197645566Y-155801000D01*
X201446270Y-157417987D02*
X200763258Y-157601000D01*
X204833577Y-159951000D02*
X203014924Y-158901000D01*
X201629283Y-158101000D02*
X200946270Y-158284013D01*
X97663000Y-55079900D02*
X97663000Y-54102000D01*
X96951800Y-58432700D02*
X98361500Y-58432700D01*
X97663000Y-61722000D02*
X97663000Y-60756800D01*
X97663000Y-58432700D02*
X96964500Y-57391300D01*
X98361500Y-57391300D02*
X97675700Y-58420000D01*
X96964500Y-57391300D02*
X98361500Y-57391300D01*
X98361500Y-76568300D02*
X97675700Y-77597000D01*
X97663000Y-77609700D02*
X96964500Y-76568300D01*
X96964500Y-76568300D02*
X98361500Y-76568300D01*
X97663000Y-74256900D02*
X97663000Y-73279000D01*
X96951800Y-77609700D02*
X98361500Y-77609700D01*
X97663000Y-80899000D02*
X97663000Y-79933800D01*
X96951800Y-96532700D02*
X98361500Y-96532700D01*
X96964500Y-95491300D02*
X98361500Y-95491300D01*
X97663000Y-93179900D02*
X97663000Y-92202000D01*
X98361500Y-95491300D02*
X97675700Y-96520000D01*
X97663000Y-96532700D02*
X96964500Y-95491300D01*
X97663000Y-99822000D02*
X97663000Y-98856800D01*
X113728500Y-114520300D02*
X115125500Y-114520300D01*
X114427000Y-112208900D02*
X114427000Y-111231000D01*
X115125500Y-114520300D02*
X114439700Y-115549000D01*
X113715800Y-115561700D02*
X115125500Y-115561700D01*
X114427000Y-115561700D02*
X113728500Y-114520300D01*
X114427000Y-118851000D02*
X114427000Y-117885800D01*
X113728500Y-57391300D02*
X115125500Y-57391300D01*
X115125500Y-57391300D02*
X114439700Y-58420000D01*
X114427000Y-61722000D02*
X114427000Y-60756800D01*
X114427000Y-58432700D02*
X113728500Y-57391300D01*
X113715800Y-58432700D02*
X115125500Y-58432700D01*
X114427000Y-55079900D02*
X114427000Y-54102000D01*
X114427000Y-74256900D02*
X114427000Y-73279000D01*
X113715800Y-77609700D02*
X115125500Y-77609700D01*
X114427000Y-80899000D02*
X114427000Y-79933800D01*
X113728500Y-76568300D02*
X115125500Y-76568300D01*
X115125500Y-76568300D02*
X114439700Y-77597000D01*
X114427000Y-77609700D02*
X113728500Y-76568300D01*
X113715800Y-96532700D02*
X115125500Y-96532700D01*
X115125500Y-95491300D02*
X114439700Y-96520000D01*
X113728500Y-95491300D02*
X115125500Y-95491300D01*
X114427000Y-96532700D02*
X113728500Y-95491300D01*
X114427000Y-99822000D02*
X114427000Y-98856800D01*
X114427000Y-93179900D02*
X114427000Y-92202000D01*
X116713000Y-115582700D02*
X116014500Y-114541300D01*
X117411500Y-114541300D02*
X116725700Y-115570000D01*
X116713000Y-118872000D02*
X116713000Y-117906800D01*
X116001800Y-115582700D02*
X117411500Y-115582700D01*
X116014500Y-114541300D02*
X117411500Y-114541300D01*
X116713000Y-112229900D02*
X116713000Y-111252000D01*
X116713000Y-55079900D02*
X116713000Y-54102000D01*
X117411500Y-57391300D02*
X116725700Y-58420000D01*
X116014500Y-57391300D02*
X117411500Y-57391300D01*
X116713000Y-61722000D02*
X116713000Y-60756800D01*
X116713000Y-58432700D02*
X116014500Y-57391300D01*
X116001800Y-58432700D02*
X117411500Y-58432700D01*
X116586000Y-74256900D02*
X116586000Y-73279000D01*
X117284500Y-76568300D02*
X116598700Y-77597000D01*
X115887500Y-76568300D02*
X117284500Y-76568300D01*
X116586000Y-80899000D02*
X116586000Y-79933800D01*
X115874800Y-77609700D02*
X117284500Y-77609700D01*
X116586000Y-77609700D02*
X115887500Y-76568300D01*
X116014500Y-95491300D02*
X117411500Y-95491300D01*
X116713000Y-96532700D02*
X116014500Y-95491300D01*
X116713000Y-93179900D02*
X116713000Y-92202000D01*
X117411500Y-95491300D02*
X116725700Y-96520000D01*
X116713000Y-99822000D02*
X116713000Y-98856800D01*
X116001800Y-96532700D02*
X117411500Y-96532700D01*
X133477000Y-104736900D02*
X133477000Y-103759000D01*
X133477000Y-108089700D02*
X132778500Y-107048300D01*
X132765800Y-108089700D02*
X134175500Y-108089700D01*
X132778500Y-107048300D02*
X134175500Y-107048300D01*
X133477000Y-111379000D02*
X133477000Y-110413800D01*
X134175500Y-107048300D02*
X133489700Y-108077000D01*
X133477000Y-72783700D02*
X132778500Y-71742300D01*
X132778500Y-71742300D02*
X134175500Y-71742300D01*
X133477000Y-69430900D02*
X133477000Y-68453000D01*
X132765800Y-72783700D02*
X134175500Y-72783700D01*
X133477000Y-76073000D02*
X133477000Y-75107800D01*
X134175500Y-71742300D02*
X133489700Y-72771000D01*
X152527000Y-76212700D02*
X151828500Y-75171300D01*
X151828500Y-75171300D02*
X153225500Y-75171300D01*
X152527000Y-72859900D02*
X152527000Y-71882000D01*
X153225500Y-75171300D02*
X152539700Y-76200000D01*
X152527000Y-79502000D02*
X152527000Y-78536800D01*
X151815800Y-76212700D02*
X153225500Y-76212700D01*
X136715500Y-107027300D02*
X136029700Y-108056000D01*
X135305800Y-108068700D02*
X136715500Y-108068700D01*
X136017000Y-108068700D02*
X135318500Y-107027300D01*
X135318500Y-107027300D02*
X136715500Y-107027300D01*
X136017000Y-104715900D02*
X136017000Y-103738000D01*
X136017000Y-111358000D02*
X136017000Y-110392800D01*
X173609000Y-53174900D02*
X173609000Y-52197000D01*
X173609000Y-56527700D02*
X172910500Y-55486300D01*
X174307500Y-55486300D02*
X173621700Y-56515000D01*
X172897800Y-56527700D02*
X174307500Y-56527700D01*
X173609000Y-59817000D02*
X173609000Y-58851800D01*
X172910500Y-55486300D02*
X174307500Y-55486300D01*
X151815800Y-92574700D02*
X153225500Y-92574700D01*
X152527000Y-92574700D02*
X151828500Y-91533300D01*
X151828500Y-91533300D02*
X153225500Y-91533300D01*
X152527000Y-89221900D02*
X152527000Y-88244000D01*
X152527000Y-95864000D02*
X152527000Y-94898800D01*
X153225500Y-91533300D02*
X152539700Y-92562000D01*
X171577000Y-109943900D02*
X171577000Y-108966000D01*
X172275500Y-112255300D02*
X171589700Y-113284000D01*
X171577000Y-113296700D02*
X170878500Y-112255300D01*
X170878500Y-112255300D02*
X172275500Y-112255300D01*
X170865800Y-113296700D02*
X172275500Y-113296700D01*
X171577000Y-116586000D02*
X171577000Y-115620800D01*
X173151800Y-77990700D02*
X174561500Y-77990700D01*
X173863000Y-81280000D02*
X173863000Y-80314800D01*
X174561500Y-76949300D02*
X173875700Y-77978000D01*
X173863000Y-77990700D02*
X173164500Y-76949300D01*
X173863000Y-74637900D02*
X173863000Y-73660000D01*
X173164500Y-76949300D02*
X174561500Y-76949300D01*
X171577000Y-81301000D02*
X171577000Y-80335800D01*
X171577000Y-74658900D02*
X171577000Y-73681000D01*
X170878500Y-76970300D02*
X172275500Y-76970300D01*
X172275500Y-76970300D02*
X171589700Y-77999000D01*
X171577000Y-78011700D02*
X170878500Y-76970300D01*
X170865800Y-78011700D02*
X172275500Y-78011700D01*
X173990000Y-93992700D02*
X173291500Y-92951300D01*
X173990000Y-97282000D02*
X173990000Y-96316800D01*
X174688500Y-92951300D02*
X174002700Y-93980000D01*
X173291500Y-92951300D02*
X174688500Y-92951300D01*
X173278800Y-93992700D02*
X174688500Y-93992700D01*
X173990000Y-90639900D02*
X173990000Y-89662000D01*
X173164500Y-112255300D02*
X174561500Y-112255300D01*
X173863000Y-109943900D02*
X173863000Y-108966000D01*
X173863000Y-116586000D02*
X173863000Y-115620800D01*
X173863000Y-113296700D02*
X173164500Y-112255300D01*
X173151800Y-113296700D02*
X174561500Y-113296700D01*
X174561500Y-112255300D02*
X173875700Y-113284000D01*
X190627000Y-75323700D02*
X189928500Y-74282300D01*
X190627000Y-78613000D02*
X190627000Y-77647800D01*
X190627000Y-71970900D02*
X190627000Y-70993000D01*
X191325500Y-74282300D02*
X190639700Y-75311000D01*
X189915800Y-75323700D02*
X191325500Y-75323700D01*
X189928500Y-74282300D02*
X191325500Y-74282300D01*
X190627000Y-90309700D02*
X189928500Y-89268300D01*
X191325500Y-89268300D02*
X190639700Y-90297000D01*
X189915800Y-90309700D02*
X191325500Y-90309700D01*
X190627000Y-86956900D02*
X190627000Y-85979000D01*
X190627000Y-93599000D02*
X190627000Y-92633800D01*
X189928500Y-89268300D02*
X191325500Y-89268300D01*
X189928500Y-102857300D02*
X191325500Y-102857300D01*
X190627000Y-100545900D02*
X190627000Y-99568000D01*
X190627000Y-103898700D02*
X189928500Y-102857300D01*
X191325500Y-102857300D02*
X190639700Y-103886000D01*
X189915800Y-103898700D02*
X191325500Y-103898700D01*
X190627000Y-107188000D02*
X190627000Y-106222800D01*
X190627000Y-118685900D02*
X190627000Y-117708000D01*
X189915800Y-122038700D02*
X191325500Y-122038700D01*
X190627000Y-125328000D02*
X190627000Y-124362800D01*
X189928500Y-120997300D02*
X191325500Y-120997300D01*
X190627000Y-122038700D02*
X189928500Y-120997300D01*
X191325500Y-120997300D02*
X190639700Y-122026000D01*
X97663000Y-115074700D02*
X96964500Y-114033300D01*
X96964500Y-114033300D02*
X98361500Y-114033300D01*
X97663000Y-111721900D02*
X97663000Y-110744000D01*
X98361500Y-114033300D02*
X97675700Y-115062000D01*
X96951800Y-115074700D02*
X98361500Y-115074700D01*
X97663000Y-118364000D02*
X97663000Y-117398800D01*
X114427000Y-133350000D02*
X114427000Y-132384800D01*
X113728500Y-129019300D02*
X115125500Y-129019300D01*
X115125500Y-129019300D02*
X114439700Y-130048000D01*
X114427000Y-130060700D02*
X113728500Y-129019300D01*
X114427000Y-126707900D02*
X114427000Y-125730000D01*
X113715800Y-130060700D02*
X115125500Y-130060700D01*
X116713000Y-130060700D02*
X116014500Y-129019300D01*
X116713000Y-133350000D02*
X116713000Y-132384800D01*
X117411500Y-129019300D02*
X116725700Y-130048000D01*
X116713000Y-126707900D02*
X116713000Y-125730000D01*
X116001800Y-130060700D02*
X117411500Y-130060700D01*
X116014500Y-129019300D02*
X117411500Y-129019300D01*
X178030432Y-127778569D02*
X178728932Y-126568731D01*
X178728932Y-126568731D02*
X179276912Y-127677001D01*
X182130178Y-129339000D02*
X181294290Y-128856400D01*
X179281560Y-127694350D02*
X178030432Y-127778569D01*
X176377950Y-126017950D02*
X175531064Y-125529000D01*
X178925960Y-128310267D02*
X179630810Y-127089431D01*
X179451000Y-141394148D02*
X179933600Y-140558260D01*
X182221269Y-137992902D02*
X181112999Y-138540882D01*
X181095650Y-138545530D02*
X181011431Y-137294402D01*
X180479733Y-138189930D02*
X181700569Y-138894780D01*
X181011431Y-137294402D02*
X182221269Y-137992902D01*
X182772050Y-135641920D02*
X183261000Y-134795034D01*
X159015000Y-102235000D02*
X161115000Y-102235000D01*
X163215000Y-101735000D02*
X163215000Y-102735000D01*
X163215000Y-102735000D02*
X163715000Y-102235000D01*
X162715000Y-102235000D02*
X163215000Y-101735000D01*
X165325000Y-102235000D02*
X167315000Y-102235000D01*
X152400000Y-117298000D02*
X152400000Y-119288000D01*
X152400000Y-110988000D02*
X152400000Y-113088000D01*
X152900000Y-115188000D02*
X151900000Y-115188000D01*
X152400000Y-114688000D02*
X152900000Y-115188000D01*
X151900000Y-115188000D02*
X152400000Y-115688000D01*
X133477000Y-131170000D02*
X133477000Y-130204800D01*
X133477000Y-127880700D02*
X132778500Y-126839300D01*
X132765800Y-127880700D02*
X134175500Y-127880700D01*
X132778500Y-126839300D02*
X134175500Y-126839300D01*
X134175500Y-126839300D02*
X133489700Y-127868000D01*
X133477000Y-124527900D02*
X133477000Y-123550000D01*
X221338537Y-131224000D02*
X219519884Y-130174000D01*
X215873917Y-128069000D02*
X214150526Y-127074000D01*
X217951230Y-128690987D02*
X217268218Y-128874000D01*
X217451230Y-129557013D02*
X217951230Y-128690987D01*
X218134243Y-129374000D02*
X217451230Y-129557013D01*
X134175500Y-91067300D02*
X133489700Y-92096000D01*
X133477000Y-92108700D02*
X132778500Y-91067300D01*
X132778500Y-91067300D02*
X134175500Y-91067300D01*
X133477000Y-95398000D02*
X133477000Y-94432800D01*
X132765800Y-92108700D02*
X134175500Y-92108700D01*
X133477000Y-88755900D02*
X133477000Y-87778000D01*
X171577000Y-94013700D02*
X170878500Y-92972300D01*
X170878500Y-92972300D02*
X172275500Y-92972300D01*
X171577000Y-97303000D02*
X171577000Y-96337800D01*
X171577000Y-90660900D02*
X171577000Y-89683000D01*
X172275500Y-92972300D02*
X171589700Y-94001000D01*
X170865800Y-94013700D02*
X172275500Y-94013700D01*
X155694000Y-115209000D02*
X154694000Y-115209000D01*
X154694000Y-115209000D02*
X155194000Y-115709000D01*
X155194000Y-117319000D02*
X155194000Y-119309000D01*
X155194000Y-114709000D02*
X155694000Y-115209000D01*
X155194000Y-111009000D02*
X155194000Y-113109000D01*
D12*
X82034000Y-69048000D02*
X81034000Y-69048000D01*
X84034000Y-67548000D02*
X84034000Y-65548000D01*
X81034000Y-69048000D02*
X82034000Y-69048000D01*
X79034000Y-67548000D02*
X79034000Y-65548000D01*
X79034000Y-67548000D02*
X79034000Y-65548000D01*
X81034000Y-64048000D02*
X82034000Y-64048000D01*
X84034000Y-67548000D02*
X84034000Y-65548000D01*
D14*
X81534000Y-69048000D02*
X84034000Y-66548000D01*
D12*
X82034000Y-64048000D02*
X81034000Y-64048000D01*
X81034000Y-88098000D02*
X82034000Y-88098000D01*
X82034000Y-88098000D02*
X81034000Y-88098000D01*
X82034000Y-83098000D02*
X81034000Y-83098000D01*
X84034000Y-86598000D02*
X84034000Y-84598000D01*
X79034000Y-86598000D02*
X79034000Y-84598000D01*
X84034000Y-86598000D02*
X84034000Y-84598000D01*
D14*
X81534000Y-88098000D02*
X84034000Y-85598000D01*
D12*
X79034000Y-86598000D02*
X79034000Y-84598000D01*
X81034000Y-83098000D02*
X82034000Y-83098000D01*
X79034000Y-105648000D02*
X79034000Y-103648000D01*
X84034000Y-105648000D02*
X84034000Y-103648000D01*
X82034000Y-107148000D02*
X81034000Y-107148000D01*
X81034000Y-107148000D02*
X82034000Y-107148000D01*
X82034000Y-102148000D02*
X81034000Y-102148000D01*
D14*
X81534000Y-107148000D02*
X84034000Y-104648000D01*
D12*
X84034000Y-105648000D02*
X84034000Y-103648000D01*
X81034000Y-102148000D02*
X82034000Y-102148000D01*
X79034000Y-105648000D02*
X79034000Y-103648000D01*
X79034000Y-124698000D02*
X79034000Y-122698000D01*
X82034000Y-121198000D02*
X81034000Y-121198000D01*
X82034000Y-126198000D02*
X81034000Y-126198000D01*
X84034000Y-124698000D02*
X84034000Y-122698000D01*
D14*
X81534000Y-126198000D02*
X84034000Y-123698000D01*
D12*
X81034000Y-126198000D02*
X82034000Y-126198000D01*
X79034000Y-124698000D02*
X79034000Y-122698000D01*
X84034000Y-124698000D02*
X84034000Y-122698000D01*
X81034000Y-121198000D02*
X82034000Y-121198000D01*
X94020000Y-139454000D02*
X94020000Y-140454000D01*
D14*
X99020000Y-139954000D02*
X96520000Y-137454000D01*
D12*
X94020000Y-140454000D02*
X94020000Y-139454000D01*
X97520000Y-142454000D02*
X95520000Y-142454000D01*
X99020000Y-140454000D02*
X99020000Y-139454000D01*
X97520000Y-137454000D02*
X95520000Y-137454000D01*
X97520000Y-137454000D02*
X95520000Y-137454000D01*
X99020000Y-139454000D02*
X99020000Y-140454000D01*
X97520000Y-142454000D02*
X95520000Y-142454000D01*
X121160333Y-140454000D02*
X121160333Y-139454000D01*
D14*
X121160333Y-139954000D02*
X118660333Y-137454000D01*
D12*
X121160333Y-139454000D02*
X121160333Y-140454000D01*
X119660333Y-137454000D02*
X117660333Y-137454000D01*
X119660333Y-137454000D02*
X117660333Y-137454000D01*
X116160333Y-140454000D02*
X116160333Y-139454000D01*
X119660333Y-142454000D02*
X117660333Y-142454000D01*
X116160333Y-139454000D02*
X116160333Y-140454000D01*
X119660333Y-142454000D02*
X117660333Y-142454000D01*
X141800667Y-142454000D02*
X139800667Y-142454000D01*
X143300667Y-140454000D02*
X143300667Y-139454000D01*
X143300667Y-139454000D02*
X143300667Y-140454000D01*
X138300667Y-139454000D02*
X138300667Y-140454000D01*
X141800667Y-142454000D02*
X139800667Y-142454000D01*
X141800667Y-137454000D02*
X139800667Y-137454000D01*
D14*
X143300667Y-139954000D02*
X140800667Y-137454000D01*
D12*
X138300667Y-140454000D02*
X138300667Y-139454000D01*
X141800667Y-137454000D02*
X139800667Y-137454000D01*
X160441000Y-140454000D02*
X160441000Y-139454000D01*
X163941000Y-137454000D02*
X161941000Y-137454000D01*
X160441000Y-139454000D02*
X160441000Y-140454000D01*
X165441000Y-139454000D02*
X165441000Y-140454000D01*
X163941000Y-142454000D02*
X161941000Y-142454000D01*
D14*
X165441000Y-139954000D02*
X162941000Y-137454000D01*
D12*
X163941000Y-142454000D02*
X161941000Y-142454000D01*
X165441000Y-140454000D02*
X165441000Y-139454000D01*
X163941000Y-137454000D02*
X161941000Y-137454000D01*
X201222987Y-135252936D02*
X202089013Y-135752936D01*
X198722987Y-139583064D02*
X199589013Y-140083064D01*
X203071064Y-138051975D02*
X202071064Y-139784025D01*
X202089013Y-135752936D02*
X201222987Y-135252936D01*
D14*
X201656000Y-135502936D02*
X198240936Y-136418000D01*
D12*
X198740936Y-135551975D02*
X197740936Y-137284025D01*
X199589013Y-140083064D02*
X198722987Y-139583064D01*
X203071064Y-138051975D02*
X202071064Y-139784025D01*
X198740936Y-135551975D02*
X197740936Y-137284025D01*
X204637000Y-112157000D02*
X204637000Y-114157000D01*
X207637000Y-115657000D02*
X206637000Y-115657000D01*
X209637000Y-112157000D02*
X209637000Y-114157000D01*
X209637000Y-112157000D02*
X209637000Y-114157000D01*
X204637000Y-112157000D02*
X204637000Y-114157000D01*
D14*
X207137000Y-110657000D02*
X204637000Y-113157000D01*
D12*
X206637000Y-115657000D02*
X207637000Y-115657000D01*
X206637000Y-110657000D02*
X207637000Y-110657000D01*
X207637000Y-110657000D02*
X206637000Y-110657000D01*
X206637000Y-89956000D02*
X207637000Y-89956000D01*
X207637000Y-94956000D02*
X206637000Y-94956000D01*
X204637000Y-91456000D02*
X204637000Y-93456000D01*
X206637000Y-94956000D02*
X207637000Y-94956000D01*
X209637000Y-91456000D02*
X209637000Y-93456000D01*
X209637000Y-91456000D02*
X209637000Y-93456000D01*
X207637000Y-89956000D02*
X206637000Y-89956000D01*
X204637000Y-91456000D02*
X204637000Y-93456000D01*
D14*
X207137000Y-89956000D02*
X204637000Y-92456000D01*
D12*
X209637000Y-72660000D02*
X209637000Y-74660000D01*
X206637000Y-76160000D02*
X207637000Y-76160000D01*
X204637000Y-72660000D02*
X204637000Y-74660000D01*
D14*
X207137000Y-71160000D02*
X204637000Y-73660000D01*
D12*
X206637000Y-71160000D02*
X207637000Y-71160000D01*
X204637000Y-72660000D02*
X204637000Y-74660000D01*
X207637000Y-71160000D02*
X206637000Y-71160000D01*
X207637000Y-76160000D02*
X206637000Y-76160000D01*
X209637000Y-72660000D02*
X209637000Y-74660000D01*
D16*
X88265000Y-63055500D03*
D17*
X85725000Y-63055500D03*
D16*
X107315000Y-63055500D03*
D17*
X104775000Y-63055500D03*
D16*
X126365000Y-58293000D03*
D17*
X123825000Y-58293000D03*
D16*
X145415000Y-55911750D03*
D17*
X142875000Y-55911750D03*
D16*
X164465000Y-58420000D03*
D17*
X161925000Y-58420000D03*
D16*
X183515000Y-60674250D03*
D17*
X180975000Y-60674250D03*
D16*
X202565000Y-70199250D03*
D17*
X200025000Y-70199250D03*
D16*
X88265000Y-82105500D03*
D17*
X85725000Y-82105500D03*
D16*
X107315000Y-82105500D03*
D17*
X104775000Y-82105500D03*
D16*
X126365000Y-77343000D03*
D17*
X123825000Y-77343000D03*
D16*
X145415000Y-74961750D03*
D17*
X142875000Y-74961750D03*
D16*
X164465000Y-77343000D03*
D17*
X161925000Y-77343000D03*
D16*
X183515000Y-79724250D03*
D17*
X180975000Y-79724250D03*
D16*
X202565000Y-89249250D03*
D17*
X200025000Y-89249250D03*
D16*
X88265000Y-101155500D03*
D17*
X85725000Y-101155500D03*
D16*
X107315000Y-101155500D03*
D17*
X104775000Y-101155500D03*
D16*
X126365000Y-96393000D03*
D17*
X123825000Y-96393000D03*
D16*
X145415000Y-94011750D03*
D17*
X142875000Y-94011750D03*
D16*
X164465000Y-96393000D03*
D17*
X161925000Y-96393000D03*
D16*
X183515000Y-98774250D03*
D17*
X180975000Y-98774250D03*
D16*
X202565000Y-108299250D03*
D17*
X200025000Y-108299250D03*
D16*
X88265000Y-120205500D03*
D17*
X85725000Y-120205500D03*
D16*
X107315000Y-120205500D03*
D17*
X104775000Y-120205500D03*
D16*
X126365000Y-115443000D03*
D17*
X123825000Y-115443000D03*
D16*
X145415000Y-113061750D03*
D17*
X142875000Y-113061750D03*
D16*
X164465000Y-115443000D03*
D17*
X161925000Y-115443000D03*
D16*
X183515000Y-117824250D03*
D17*
X180975000Y-117824250D03*
D18*
X179326409Y-135615398D03*
D17*
X178056409Y-137815102D03*
D16*
X88265000Y-139255500D03*
D17*
X85725000Y-139255500D03*
D16*
X107315000Y-139255500D03*
D17*
X104775000Y-139255500D03*
D16*
X126365000Y-134493000D03*
D17*
X123825000Y-134493000D03*
D16*
X145415000Y-132111750D03*
D17*
X142875000Y-132111750D03*
D16*
X150495000Y-124333000D03*
D17*
X153035000Y-124333000D03*
D19*
X195280591Y-125762152D03*
D17*
X196550591Y-123562448D03*
D19*
X211778591Y-135287202D03*
D17*
X213048591Y-133087498D03*
D19*
X185755591Y-142260152D03*
D17*
X187025591Y-140060448D03*
D19*
X202253591Y-151785202D03*
D17*
X203523591Y-149585498D03*
D18*
X217084909Y-146416448D03*
D17*
X215814909Y-148616152D03*
D20*
X170815000Y-39370000D03*
X170815000Y-41910000D03*
X170815000Y-44450000D03*
X170815000Y-46990000D03*
X170815000Y-49530000D03*
X170815000Y-52070000D03*
X170815000Y-54610000D03*
X170815000Y-57150000D03*
X170815000Y-59690000D03*
X170815000Y-62230000D03*
X170815000Y-64770000D03*
X170815000Y-67310000D03*
X155575000Y-67310000D03*
X155575000Y-64770000D03*
X155575000Y-62230000D03*
X155575000Y-59690000D03*
X155575000Y-57150000D03*
X155575000Y-54610000D03*
X155575000Y-52070000D03*
X155575000Y-49530000D03*
X155575000Y-46990000D03*
X155575000Y-44450000D03*
X155575000Y-41910000D03*
X155575000Y-39370000D03*
D21*
X92495000Y-57975500D03*
D22*
X81915000Y-57975500D03*
D21*
X81495000Y-57975500D03*
D22*
X92075000Y-57975500D03*
D23*
X86995000Y-57975500D03*
D24*
X89515000Y-53475500D03*
D25*
X90355049Y-54899269D03*
D26*
X83634951Y-54899269D03*
D24*
X84475000Y-53475500D03*
D23*
X86995000Y-77025500D03*
D21*
X92495000Y-77025500D03*
D22*
X81915000Y-77025500D03*
D21*
X81495000Y-77025500D03*
D22*
X92075000Y-77025500D03*
D24*
X89515000Y-72525500D03*
D25*
X90355049Y-73949269D03*
D24*
X84475000Y-72525500D03*
D26*
X83634951Y-73949269D03*
D22*
X81915000Y-96075500D03*
D21*
X92495000Y-96075500D03*
X81495000Y-96075500D03*
D23*
X86995000Y-96075500D03*
D22*
X92075000Y-96075500D03*
D25*
X90355049Y-92999269D03*
D24*
X89515000Y-91575500D03*
X84475000Y-91575500D03*
D26*
X83634951Y-92999269D03*
D22*
X81915000Y-115125500D03*
X92075000Y-115125500D03*
D21*
X92495000Y-115125500D03*
D23*
X86995000Y-115125500D03*
D21*
X81495000Y-115125500D03*
D24*
X89515000Y-110625500D03*
D25*
X90355049Y-112049269D03*
D26*
X83634951Y-112049269D03*
D24*
X84475000Y-110625500D03*
D21*
X130595000Y-53213000D03*
X119595000Y-53213000D03*
D22*
X120015000Y-53213000D03*
D23*
X125095000Y-53213000D03*
D22*
X130175000Y-53213000D03*
D24*
X127615000Y-48713000D03*
D25*
X128455049Y-50136769D03*
D26*
X121734951Y-50136769D03*
D24*
X122575000Y-48713000D03*
D21*
X130595000Y-72263000D03*
D22*
X130175000Y-72263000D03*
X120015000Y-72263000D03*
D23*
X125095000Y-72263000D03*
D21*
X119595000Y-72263000D03*
D24*
X127615000Y-67763000D03*
D25*
X128455049Y-69186769D03*
D24*
X122575000Y-67763000D03*
D26*
X121734951Y-69186769D03*
D23*
X125095000Y-91313000D03*
D22*
X120015000Y-91313000D03*
D21*
X119595000Y-91313000D03*
D22*
X130175000Y-91313000D03*
D21*
X130595000Y-91313000D03*
D25*
X128455049Y-88236769D03*
D24*
X127615000Y-86813000D03*
D26*
X121734951Y-88236769D03*
D24*
X122575000Y-86813000D03*
D22*
X187325000Y-74644250D03*
X177165000Y-74644250D03*
D21*
X187745000Y-74644250D03*
D23*
X182245000Y-74644250D03*
D21*
X176745000Y-74644250D03*
D24*
X184765000Y-70144250D03*
D25*
X185605049Y-71568019D03*
D24*
X179725000Y-70144250D03*
D26*
X178884951Y-71568019D03*
D23*
X182245000Y-93694250D03*
D21*
X176745000Y-93694250D03*
D22*
X187325000Y-93694250D03*
D21*
X187745000Y-93694250D03*
D22*
X177165000Y-93694250D03*
D25*
X185605049Y-90618019D03*
D24*
X184765000Y-89194250D03*
X179725000Y-89194250D03*
D26*
X178884951Y-90618019D03*
D21*
X187745000Y-112744250D03*
X176745000Y-112744250D03*
D22*
X187325000Y-112744250D03*
D23*
X182245000Y-112744250D03*
D22*
X177165000Y-112744250D03*
D25*
X185605049Y-109668019D03*
D24*
X184765000Y-108244250D03*
X179725000Y-108244250D03*
D26*
X178884951Y-109668019D03*
D22*
X81915000Y-134175500D03*
D21*
X92495000Y-134175500D03*
D22*
X92075000Y-134175500D03*
D23*
X86995000Y-134175500D03*
D21*
X81495000Y-134175500D03*
D24*
X89515000Y-129675500D03*
D25*
X90355049Y-131099269D03*
D24*
X84475000Y-129675500D03*
D26*
X83634951Y-131099269D03*
D23*
X125095000Y-129413000D03*
D21*
X119595000Y-129413000D03*
D22*
X130175000Y-129413000D03*
X120015000Y-129413000D03*
D21*
X130595000Y-129413000D03*
D25*
X128455049Y-126336769D03*
D24*
X127615000Y-124913000D03*
X122575000Y-124913000D03*
D26*
X121734951Y-126336769D03*
D21*
X138645000Y-127031750D03*
X149645000Y-127031750D03*
D22*
X139065000Y-127031750D03*
X149225000Y-127031750D03*
D23*
X144145000Y-127031750D03*
D24*
X146665000Y-122531750D03*
D25*
X147505049Y-123955519D03*
D24*
X141625000Y-122531750D03*
D26*
X140784951Y-123955519D03*
%LPC*%
D27*
X102997000Y-46609000D03*
D28*
X113002647Y-44844735D03*
D27*
X133731000Y-41148000D03*
D29*
X133731000Y-51308000D03*
D30*
X160314000Y-39624000D03*
X165314000Y-39624000D03*
D31*
X159314000Y-42124000D03*
X166314000Y-42124000D03*
D32*
X134620000Y-81788000D03*
X191770000Y-65024000D03*
X185801000Y-124714000D03*
X96520000Y-67564000D03*
X96520000Y-124968000D03*
D33*
X117491000Y-43688000D03*
X119491000Y-43688000D03*
D34*
X197072000Y-53204000D03*
X193072000Y-53204000D03*
X193072000Y-46204000D03*
X197072000Y-46204000D03*
D35*
X195072000Y-55004000D03*
X195072000Y-48004000D03*
X195072000Y-51004000D03*
X191072000Y-56504000D03*
X199072000Y-56504000D03*
D30*
X93639000Y-48133000D03*
X96139000Y-48133000D03*
X98639000Y-48133000D03*
X174411000Y-45720000D03*
X176911000Y-45720000D03*
X179411000Y-45720000D03*
D32*
X135128000Y-117348000D03*
D27*
X95377000Y-52832000D03*
D36*
X95377000Y-56732000D03*
D29*
X95377000Y-62992000D03*
D36*
X95377000Y-59132000D03*
D27*
X111125000Y-66294000D03*
D37*
X107225000Y-66294000D03*
D29*
X100965000Y-66294000D03*
D37*
X104825000Y-66294000D03*
D27*
X120015000Y-61595000D03*
D38*
X123915000Y-61595000D03*
X126315000Y-61595000D03*
D29*
X130175000Y-61595000D03*
D38*
X142965000Y-78232000D03*
D27*
X139065000Y-78232000D03*
D38*
X145365000Y-78232000D03*
D29*
X149225000Y-78232000D03*
D38*
X162015000Y-80518000D03*
D27*
X158115000Y-80518000D03*
D29*
X168275000Y-80518000D03*
D38*
X164415000Y-80518000D03*
D37*
X183425000Y-63881000D03*
D27*
X187325000Y-63881000D03*
D37*
X181025000Y-63881000D03*
D29*
X177165000Y-63881000D03*
D36*
X192913000Y-73623000D03*
D27*
X192913000Y-69723000D03*
D29*
X192913000Y-79883000D03*
D36*
X192913000Y-76023000D03*
D27*
X95377000Y-72009000D03*
D36*
X95377000Y-75909000D03*
D29*
X95377000Y-82169000D03*
D36*
X95377000Y-78309000D03*
D37*
X107225000Y-85344000D03*
D27*
X111125000Y-85344000D03*
D29*
X100965000Y-85344000D03*
D37*
X104825000Y-85344000D03*
X126275000Y-80645000D03*
D27*
X130175000Y-80645000D03*
D29*
X120015000Y-80645000D03*
D37*
X123875000Y-80645000D03*
X145325000Y-80645000D03*
D27*
X149225000Y-80645000D03*
D29*
X139065000Y-80645000D03*
D37*
X142925000Y-80645000D03*
X164375000Y-82931000D03*
D27*
X168275000Y-82931000D03*
D37*
X161975000Y-82931000D03*
D29*
X158115000Y-82931000D03*
D37*
X183425000Y-82931000D03*
D27*
X187325000Y-82931000D03*
D29*
X177165000Y-82931000D03*
D37*
X181025000Y-82931000D03*
D36*
X192913000Y-88609000D03*
D27*
X192913000Y-84709000D03*
D29*
X192913000Y-94869000D03*
D36*
X192913000Y-91009000D03*
D27*
X95377000Y-90932000D03*
D36*
X95377000Y-94832000D03*
D29*
X95377000Y-101092000D03*
D36*
X95377000Y-97232000D03*
D27*
X101092000Y-104394000D03*
D38*
X104992000Y-104394000D03*
X107392000Y-104394000D03*
D29*
X111252000Y-104394000D03*
D37*
X126275000Y-99695000D03*
D27*
X130175000Y-99695000D03*
D37*
X123875000Y-99695000D03*
D29*
X120015000Y-99695000D03*
D27*
X149225000Y-97282000D03*
D37*
X145325000Y-97282000D03*
D29*
X139065000Y-97282000D03*
D37*
X142925000Y-97282000D03*
D27*
X168275000Y-99695000D03*
D37*
X164375000Y-99695000D03*
X161975000Y-99695000D03*
D29*
X158115000Y-99695000D03*
D37*
X183425000Y-102108000D03*
D27*
X187325000Y-102108000D03*
D29*
X177165000Y-102108000D03*
D37*
X181025000Y-102108000D03*
D27*
X192913000Y-108458000D03*
D39*
X192913000Y-104558000D03*
D29*
X192913000Y-98298000D03*
D39*
X192913000Y-102158000D03*
D38*
X104992000Y-106807000D03*
D27*
X101092000Y-106807000D03*
D38*
X107392000Y-106807000D03*
D29*
X111252000Y-106807000D03*
D36*
X95377000Y-113374000D03*
D27*
X95377000Y-109474000D03*
D36*
X95377000Y-115774000D03*
D29*
X95377000Y-119634000D03*
D37*
X126275000Y-118745000D03*
D27*
X130175000Y-118745000D03*
D37*
X123875000Y-118745000D03*
D29*
X120015000Y-118745000D03*
D27*
X149606000Y-116332000D03*
D37*
X145706000Y-116332000D03*
D29*
X139446000Y-116332000D03*
D37*
X143306000Y-116332000D03*
D27*
X187325000Y-120396000D03*
D37*
X183425000Y-120396000D03*
D29*
X177165000Y-120396000D03*
D37*
X181025000Y-120396000D03*
D27*
X180019212Y-145722000D03*
D40*
X183396711Y-147672000D03*
D41*
X188818030Y-150802000D03*
D40*
X185475172Y-148872000D03*
D38*
X104738000Y-123444000D03*
D27*
X100838000Y-123444000D03*
D29*
X110998000Y-123444000D03*
D38*
X107138000Y-123444000D03*
D27*
X100838000Y-125857000D03*
D38*
X104738000Y-125857000D03*
X107138000Y-125857000D03*
D29*
X110998000Y-125857000D03*
D37*
X126275000Y-121031000D03*
D27*
X130175000Y-121031000D03*
D29*
X120015000Y-121031000D03*
D37*
X123875000Y-121031000D03*
D27*
X149606000Y-118745000D03*
D37*
X145706000Y-118745000D03*
X143306000Y-118745000D03*
D29*
X139446000Y-118745000D03*
D32*
X128397000Y-42672000D03*
D42*
X88265000Y-63055500D03*
D43*
X85725000Y-63055500D03*
D42*
X107315000Y-63055500D03*
D43*
X104775000Y-63055500D03*
D42*
X126365000Y-58293000D03*
D43*
X123825000Y-58293000D03*
D42*
X145415000Y-55911750D03*
D43*
X142875000Y-55911750D03*
D42*
X164465000Y-58420000D03*
D43*
X161925000Y-58420000D03*
D42*
X183515000Y-60674250D03*
D43*
X180975000Y-60674250D03*
D42*
X202565000Y-70199250D03*
D43*
X200025000Y-70199250D03*
D42*
X88265000Y-82105500D03*
D43*
X85725000Y-82105500D03*
D42*
X107315000Y-82105500D03*
D43*
X104775000Y-82105500D03*
D42*
X126365000Y-77343000D03*
D43*
X123825000Y-77343000D03*
D42*
X145415000Y-74961750D03*
D43*
X142875000Y-74961750D03*
D42*
X164465000Y-77343000D03*
D43*
X161925000Y-77343000D03*
D42*
X183515000Y-79724250D03*
D43*
X180975000Y-79724250D03*
D42*
X202565000Y-89249250D03*
D43*
X200025000Y-89249250D03*
D42*
X88265000Y-101155500D03*
D43*
X85725000Y-101155500D03*
D42*
X107315000Y-101155500D03*
D43*
X104775000Y-101155500D03*
D42*
X126365000Y-96393000D03*
D43*
X123825000Y-96393000D03*
D42*
X145415000Y-94011750D03*
D43*
X142875000Y-94011750D03*
D42*
X164465000Y-96393000D03*
D43*
X161925000Y-96393000D03*
D42*
X183515000Y-98774250D03*
D43*
X180975000Y-98774250D03*
D42*
X202565000Y-108299250D03*
D43*
X200025000Y-108299250D03*
D42*
X88265000Y-120205500D03*
D43*
X85725000Y-120205500D03*
D42*
X107315000Y-120205500D03*
D43*
X104775000Y-120205500D03*
D42*
X126365000Y-115443000D03*
D43*
X123825000Y-115443000D03*
D42*
X145415000Y-113061750D03*
D43*
X142875000Y-113061750D03*
D42*
X164465000Y-115443000D03*
D43*
X161925000Y-115443000D03*
D42*
X183515000Y-117824250D03*
D43*
X180975000Y-117824250D03*
D44*
X179326409Y-135615398D03*
D43*
X178056409Y-137815102D03*
D42*
X88265000Y-139255500D03*
D43*
X85725000Y-139255500D03*
D42*
X107315000Y-139255500D03*
D43*
X104775000Y-139255500D03*
D42*
X126365000Y-134493000D03*
D43*
X123825000Y-134493000D03*
D42*
X145415000Y-132111750D03*
D43*
X142875000Y-132111750D03*
D30*
X136525000Y-39370000D03*
X136525000Y-41910000D03*
X136525000Y-44450000D03*
X136525000Y-46990000D03*
X136525000Y-49530000D03*
X136525000Y-52070000D03*
X136525000Y-54610000D03*
X136525000Y-57150000D03*
X136525000Y-59690000D03*
X136525000Y-62230000D03*
X136525000Y-64770000D03*
X136525000Y-67310000D03*
X151765000Y-67310000D03*
X151765000Y-64770000D03*
X151765000Y-62230000D03*
X151765000Y-59690000D03*
X151765000Y-57150000D03*
X151765000Y-54610000D03*
X151765000Y-52070000D03*
X151765000Y-49530000D03*
X151765000Y-46990000D03*
X151765000Y-44450000D03*
X151765000Y-41910000D03*
X151765000Y-39370000D03*
D45*
X150495000Y-124333000D03*
D43*
X153035000Y-124333000D03*
D46*
X202565000Y-145161000D03*
D47*
X204290000Y-142173212D03*
X205920000Y-139349970D03*
D48*
X207645000Y-136362182D03*
D49*
X163957000Y-131323000D03*
X163957000Y-133223000D03*
X161957000Y-132273000D03*
D50*
X111545000Y-57975500D03*
D51*
X106045000Y-57975500D03*
D52*
X111125000Y-57975500D03*
X100965000Y-57975500D03*
D50*
X100545000Y-57975500D03*
D53*
X102684951Y-54899269D03*
D54*
X103525000Y-53475500D03*
D55*
X109405049Y-54899269D03*
D54*
X108565000Y-53475500D03*
D50*
X111545000Y-77025500D03*
X100545000Y-77025500D03*
D52*
X100965000Y-77025500D03*
D51*
X106045000Y-77025500D03*
D52*
X111125000Y-77025500D03*
D53*
X102684951Y-73949269D03*
D54*
X103525000Y-72525500D03*
D55*
X109405049Y-73949269D03*
D54*
X108565000Y-72525500D03*
D50*
X111545000Y-96075500D03*
X100545000Y-96075500D03*
D51*
X106045000Y-96075500D03*
D52*
X111125000Y-96075500D03*
X100965000Y-96075500D03*
D53*
X102684951Y-92999269D03*
D54*
X103525000Y-91575500D03*
D55*
X109405049Y-92999269D03*
D54*
X108565000Y-91575500D03*
D52*
X111125000Y-115125500D03*
D50*
X111545000Y-115125500D03*
X100545000Y-115125500D03*
D51*
X106045000Y-115125500D03*
D52*
X100965000Y-115125500D03*
D54*
X103525000Y-110625500D03*
D53*
X102684951Y-112049269D03*
D55*
X109405049Y-112049269D03*
D54*
X108565000Y-110625500D03*
D50*
X119595000Y-110363000D03*
D51*
X125095000Y-110363000D03*
D52*
X130175000Y-110363000D03*
X120015000Y-110363000D03*
D50*
X130595000Y-110363000D03*
D53*
X121734951Y-107286769D03*
D54*
X122575000Y-105863000D03*
X127615000Y-105863000D03*
D55*
X128455049Y-107286769D03*
D50*
X149645000Y-50831750D03*
X138645000Y-50831750D03*
D52*
X139065000Y-50831750D03*
X149225000Y-50831750D03*
D51*
X144145000Y-50831750D03*
D54*
X141625000Y-46331750D03*
D53*
X140784951Y-47755519D03*
D54*
X146665000Y-46331750D03*
D55*
X147505049Y-47755519D03*
D51*
X144145000Y-69881750D03*
D52*
X139065000Y-69881750D03*
X149225000Y-69881750D03*
D50*
X149645000Y-69881750D03*
X138645000Y-69881750D03*
D53*
X140784951Y-66805519D03*
D54*
X141625000Y-65381750D03*
X146665000Y-65381750D03*
D55*
X147505049Y-66805519D03*
D52*
X149225000Y-88931750D03*
D51*
X144145000Y-88931750D03*
D50*
X138645000Y-88931750D03*
X149645000Y-88931750D03*
D52*
X139065000Y-88931750D03*
D53*
X140784951Y-85855519D03*
D54*
X141625000Y-84431750D03*
X146665000Y-84431750D03*
D55*
X147505049Y-85855519D03*
D51*
X144145000Y-107981750D03*
D50*
X149645000Y-107981750D03*
D52*
X139065000Y-107981750D03*
X149225000Y-107981750D03*
D50*
X138645000Y-107981750D03*
D53*
X140784951Y-104905519D03*
D54*
X141625000Y-103481750D03*
X146665000Y-103481750D03*
D55*
X147505049Y-104905519D03*
D52*
X168275000Y-53213000D03*
D50*
X168695000Y-53213000D03*
D51*
X163195000Y-53213000D03*
D52*
X158115000Y-53213000D03*
D50*
X157695000Y-53213000D03*
D53*
X159834951Y-50136769D03*
D54*
X160675000Y-48713000D03*
D55*
X166555049Y-50136769D03*
D54*
X165715000Y-48713000D03*
D51*
X163195000Y-72263000D03*
D52*
X158115000Y-72263000D03*
D50*
X168695000Y-72263000D03*
X157695000Y-72263000D03*
D52*
X168275000Y-72263000D03*
D54*
X160675000Y-67763000D03*
D53*
X159834951Y-69186769D03*
D54*
X165715000Y-67763000D03*
D55*
X166555049Y-69186769D03*
D52*
X168275000Y-91313000D03*
D51*
X163195000Y-91313000D03*
D50*
X168695000Y-91313000D03*
D52*
X158115000Y-91313000D03*
D50*
X157695000Y-91313000D03*
D53*
X159834951Y-88236769D03*
D54*
X160675000Y-86813000D03*
D55*
X166555049Y-88236769D03*
D54*
X165715000Y-86813000D03*
D51*
X163195000Y-110363000D03*
D50*
X168695000Y-110363000D03*
D52*
X158115000Y-110363000D03*
D50*
X157695000Y-110363000D03*
D52*
X168275000Y-110363000D03*
D53*
X159834951Y-107286769D03*
D54*
X160675000Y-105863000D03*
D55*
X166555049Y-107286769D03*
D54*
X165715000Y-105863000D03*
D52*
X187325000Y-55594250D03*
D51*
X182245000Y-55594250D03*
D52*
X177165000Y-55594250D03*
D50*
X187745000Y-55594250D03*
X176745000Y-55594250D03*
D54*
X179725000Y-51094250D03*
D53*
X178884951Y-52518019D03*
D55*
X185605049Y-52518019D03*
D54*
X184765000Y-51094250D03*
D52*
X206375000Y-65119250D03*
D50*
X206795000Y-65119250D03*
X195795000Y-65119250D03*
D51*
X201295000Y-65119250D03*
D52*
X196215000Y-65119250D03*
D53*
X197934951Y-62043019D03*
D54*
X198775000Y-60619250D03*
D55*
X204655049Y-62043019D03*
D54*
X203815000Y-60619250D03*
D52*
X206375000Y-84169250D03*
D50*
X206795000Y-84169250D03*
X195795000Y-84169250D03*
D52*
X196215000Y-84169250D03*
D51*
X201295000Y-84169250D03*
D53*
X197934951Y-81093019D03*
D54*
X198775000Y-79669250D03*
X203815000Y-79669250D03*
D55*
X204655049Y-81093019D03*
D50*
X195795000Y-103219250D03*
D52*
X206375000Y-103219250D03*
D51*
X201295000Y-103219250D03*
D50*
X206795000Y-103219250D03*
D52*
X196215000Y-103219250D03*
D54*
X198775000Y-98719250D03*
D53*
X197934951Y-100143019D03*
D55*
X204655049Y-100143019D03*
D54*
X203815000Y-98719250D03*
D52*
X202855000Y-122802891D03*
D50*
X203065000Y-122439160D03*
X197565000Y-131965440D03*
D51*
X200315000Y-127202300D03*
D52*
X197775000Y-131601709D03*
D56*
X204659119Y-125830528D03*
D57*
X205472114Y-127269916D03*
D58*
X201299070Y-131650303D03*
D57*
X202952114Y-131634684D03*
D52*
X100965000Y-134175500D03*
D50*
X100545000Y-134175500D03*
D51*
X106045000Y-134175500D03*
D50*
X111545000Y-134175500D03*
D52*
X111125000Y-134175500D03*
D54*
X103525000Y-129675500D03*
D53*
X102684951Y-131099269D03*
D54*
X108565000Y-129675500D03*
D55*
X109405049Y-131099269D03*
D52*
X176832000Y-129775841D03*
X171752000Y-138574659D03*
D50*
X171542000Y-138938390D03*
X177042000Y-129412110D03*
D51*
X174292000Y-134175250D03*
D59*
X169947881Y-135547022D03*
D57*
X169134886Y-134107634D03*
D60*
X173307930Y-129727247D03*
D57*
X171654886Y-129742866D03*
D50*
X188040000Y-148463440D03*
D52*
X193330000Y-139300891D03*
X188250000Y-148099709D03*
D51*
X190790000Y-143700300D03*
D50*
X193540000Y-138937160D03*
D57*
X195947114Y-143767916D03*
D56*
X195134119Y-142328528D03*
D58*
X191774070Y-148148303D03*
D57*
X193427114Y-148132684D03*
D50*
X198302500Y-130688110D03*
D52*
X198092500Y-131051841D03*
D50*
X192802500Y-140214390D03*
D52*
X193012500Y-139850659D03*
D51*
X195552500Y-135451250D03*
D59*
X191208381Y-136823022D03*
D57*
X190395386Y-135383634D03*
D60*
X194568430Y-131003247D03*
D57*
X192915386Y-131018866D03*
D50*
X146265000Y-129413000D03*
D52*
X156845000Y-129413000D03*
D50*
X157265000Y-129413000D03*
D52*
X146685000Y-129413000D03*
D51*
X151765000Y-129413000D03*
D54*
X154285000Y-133913000D03*
D61*
X155125049Y-132489231D03*
D62*
X148404951Y-132489231D03*
D54*
X149245000Y-133913000D03*
D52*
X214273000Y-141126759D03*
D50*
X214063000Y-141490490D03*
D52*
X219353000Y-132327941D03*
D51*
X216813000Y-136727350D03*
D50*
X219563000Y-131964210D03*
D57*
X221970114Y-136794966D03*
D56*
X221157119Y-135355578D03*
D57*
X219450114Y-141159734D03*
D58*
X217797070Y-141175353D03*
D50*
X209300500Y-149739440D03*
D52*
X209510500Y-149375709D03*
X214590500Y-140576891D03*
D50*
X214800500Y-140213160D03*
D51*
X212050500Y-144976300D03*
D59*
X207706381Y-146348072D03*
D57*
X206893386Y-144908684D03*
X209413386Y-140543916D03*
D60*
X211066430Y-140528297D03*
D51*
X207288000Y-153225350D03*
D50*
X210038000Y-148462210D03*
D52*
X204748000Y-157624759D03*
D50*
X204538000Y-157988490D03*
D52*
X209828000Y-148825941D03*
D56*
X211632119Y-151853578D03*
D57*
X212445114Y-153292966D03*
X209925114Y-157657734D03*
D58*
X208272070Y-157673353D03*
D63*
X195280591Y-125762152D03*
D43*
X196550591Y-123562448D03*
D63*
X211778591Y-135287202D03*
D43*
X213048591Y-133087498D03*
D63*
X185755591Y-142260152D03*
D43*
X187025591Y-140060448D03*
D63*
X202253591Y-151785202D03*
D43*
X203523591Y-149585498D03*
D27*
X189992000Y-111379000D03*
D38*
X193892000Y-111379000D03*
D29*
X200152000Y-111379000D03*
D38*
X196292000Y-111379000D03*
D27*
X189992000Y-113665000D03*
D38*
X193892000Y-113665000D03*
D29*
X200152000Y-113665000D03*
D38*
X196292000Y-113665000D03*
D64*
X202235501Y-158451000D03*
D27*
X205613000Y-160401000D03*
D65*
X196814182Y-155321000D03*
D64*
X200157040Y-157251000D03*
D44*
X217084909Y-146416448D03*
D43*
X215814909Y-148616152D03*
D66*
X97663000Y-59542000D03*
D67*
X97663000Y-62992000D03*
D29*
X97663000Y-52832000D03*
D66*
X97663000Y-56282000D03*
X97663000Y-78719000D03*
D67*
X97663000Y-82169000D03*
D29*
X97663000Y-72009000D03*
D66*
X97663000Y-75459000D03*
D67*
X97663000Y-101092000D03*
D66*
X97663000Y-97642000D03*
D29*
X97663000Y-90932000D03*
D66*
X97663000Y-94382000D03*
X114427000Y-116671000D03*
D67*
X114427000Y-120121000D03*
D66*
X114427000Y-113411000D03*
D29*
X114427000Y-109961000D03*
D66*
X114427000Y-59542000D03*
D67*
X114427000Y-62992000D03*
D66*
X114427000Y-56282000D03*
D29*
X114427000Y-52832000D03*
D67*
X114427000Y-82169000D03*
D66*
X114427000Y-78719000D03*
X114427000Y-75459000D03*
D29*
X114427000Y-72009000D03*
D67*
X114427000Y-101092000D03*
D66*
X114427000Y-97642000D03*
X114427000Y-94382000D03*
D29*
X114427000Y-90932000D03*
D66*
X116713000Y-116692000D03*
D67*
X116713000Y-120142000D03*
D66*
X116713000Y-113432000D03*
D29*
X116713000Y-109982000D03*
D66*
X116713000Y-59542000D03*
D67*
X116713000Y-62992000D03*
D29*
X116713000Y-52832000D03*
D66*
X116713000Y-56282000D03*
D67*
X116586000Y-82169000D03*
D66*
X116586000Y-78719000D03*
D29*
X116586000Y-72009000D03*
D66*
X116586000Y-75459000D03*
D67*
X116713000Y-101092000D03*
D66*
X116713000Y-97642000D03*
X116713000Y-94382000D03*
D29*
X116713000Y-90932000D03*
D66*
X133477000Y-109199000D03*
D67*
X133477000Y-112649000D03*
D66*
X133477000Y-105939000D03*
D29*
X133477000Y-102489000D03*
D66*
X133477000Y-73893000D03*
D67*
X133477000Y-77343000D03*
D66*
X133477000Y-70633000D03*
D29*
X133477000Y-67183000D03*
D67*
X152527000Y-80772000D03*
D66*
X152527000Y-77322000D03*
X152527000Y-74062000D03*
D29*
X152527000Y-70612000D03*
D67*
X136017000Y-112628000D03*
D66*
X136017000Y-109178000D03*
X136017000Y-105918000D03*
D29*
X136017000Y-102468000D03*
D66*
X173609000Y-57637000D03*
D67*
X173609000Y-61087000D03*
D29*
X173609000Y-50927000D03*
D66*
X173609000Y-54377000D03*
X152527000Y-93684000D03*
D67*
X152527000Y-97134000D03*
D66*
X152527000Y-90424000D03*
D29*
X152527000Y-86974000D03*
D66*
X171577000Y-114406000D03*
D67*
X171577000Y-117856000D03*
D29*
X171577000Y-107696000D03*
D66*
X171577000Y-111146000D03*
X173863000Y-79100000D03*
D67*
X173863000Y-82550000D03*
D66*
X173863000Y-75840000D03*
D29*
X173863000Y-72390000D03*
D66*
X171577000Y-79121000D03*
D67*
X171577000Y-82571000D03*
D66*
X171577000Y-75861000D03*
D29*
X171577000Y-72411000D03*
D66*
X173990000Y-95102000D03*
D67*
X173990000Y-98552000D03*
D29*
X173990000Y-88392000D03*
D66*
X173990000Y-91842000D03*
X173863000Y-114406000D03*
D67*
X173863000Y-117856000D03*
D29*
X173863000Y-107696000D03*
D66*
X173863000Y-111146000D03*
D67*
X190627000Y-79883000D03*
D66*
X190627000Y-76433000D03*
D29*
X190627000Y-69723000D03*
D66*
X190627000Y-73173000D03*
D67*
X190627000Y-94869000D03*
D66*
X190627000Y-91419000D03*
D29*
X190627000Y-84709000D03*
D66*
X190627000Y-88159000D03*
D67*
X190627000Y-108458000D03*
D66*
X190627000Y-105008000D03*
D29*
X190627000Y-98298000D03*
D66*
X190627000Y-101748000D03*
X190627000Y-123148000D03*
D67*
X190627000Y-126598000D03*
D29*
X190627000Y-116438000D03*
D66*
X190627000Y-119888000D03*
D67*
X97663000Y-119634000D03*
D66*
X97663000Y-116184000D03*
X97663000Y-112924000D03*
D29*
X97663000Y-109474000D03*
D67*
X114427000Y-134620000D03*
D66*
X114427000Y-131170000D03*
D29*
X114427000Y-124460000D03*
D66*
X114427000Y-127910000D03*
X116713000Y-131170000D03*
D67*
X116713000Y-134620000D03*
D66*
X116713000Y-127910000D03*
D29*
X116713000Y-124460000D03*
D68*
X180242242Y-128249000D03*
D69*
X183230030Y-129974000D03*
D68*
X177419000Y-126619000D03*
D65*
X174431212Y-124894000D03*
D46*
X178816000Y-142494000D03*
D47*
X180541000Y-139506212D03*
D48*
X183896000Y-133695182D03*
D47*
X182171000Y-136682970D03*
D27*
X158115000Y-102235000D03*
D38*
X162015000Y-102235000D03*
X164415000Y-102235000D03*
D29*
X168275000Y-102235000D03*
D36*
X152400000Y-113988000D03*
D27*
X152400000Y-110088000D03*
D36*
X152400000Y-116388000D03*
D29*
X152400000Y-120248000D03*
D33*
X111030000Y-47159000D03*
X113030000Y-47159000D03*
X115030000Y-47159000D03*
X111030000Y-49318000D03*
X113030000Y-49318000D03*
X115030000Y-49318000D03*
D70*
X195632687Y-149282361D03*
D71*
X182434460Y-141662361D03*
D70*
X207570687Y-128605139D03*
D71*
X194372460Y-120985139D03*
X198932460Y-151187411D03*
D70*
X212130687Y-158807411D03*
X224068687Y-138130189D03*
D71*
X210870460Y-130510189D03*
D66*
X133477000Y-128990000D03*
D67*
X133477000Y-132440000D03*
D66*
X133477000Y-125730000D03*
D29*
X133477000Y-122280000D03*
D64*
X218740461Y-129724000D03*
D27*
X222117960Y-131674000D03*
D65*
X213319142Y-126594000D03*
D64*
X216662000Y-128524000D03*
D66*
X133477000Y-93218000D03*
D67*
X133477000Y-96668000D03*
D66*
X133477000Y-89958000D03*
D29*
X133477000Y-86508000D03*
D66*
X171577000Y-95123000D03*
D67*
X171577000Y-98573000D03*
D66*
X171577000Y-91863000D03*
D29*
X171577000Y-88413000D03*
D27*
X155194000Y-110109000D03*
D36*
X155194000Y-114009000D03*
X155194000Y-116409000D03*
D29*
X155194000Y-120269000D03*
D30*
X146518000Y-39624000D03*
X141518000Y-39624000D03*
D31*
X147518000Y-42124000D03*
X140518000Y-42124000D03*
D30*
X170815000Y-39370000D03*
X170815000Y-41910000D03*
X170815000Y-44450000D03*
X170815000Y-46990000D03*
X170815000Y-49530000D03*
X170815000Y-52070000D03*
X170815000Y-54610000D03*
X170815000Y-57150000D03*
X170815000Y-59690000D03*
X170815000Y-62230000D03*
X170815000Y-64770000D03*
X170815000Y-67310000D03*
X155575000Y-67310000D03*
X155575000Y-64770000D03*
X155575000Y-62230000D03*
X155575000Y-59690000D03*
X155575000Y-57150000D03*
X155575000Y-54610000D03*
X155575000Y-52070000D03*
X155575000Y-49530000D03*
X155575000Y-46990000D03*
X155575000Y-44450000D03*
X155575000Y-41910000D03*
X155575000Y-39370000D03*
D50*
X92495000Y-57975500D03*
D52*
X81915000Y-57975500D03*
D50*
X81495000Y-57975500D03*
D52*
X92075000Y-57975500D03*
D51*
X86995000Y-57975500D03*
D54*
X89515000Y-53475500D03*
D62*
X90355049Y-54899269D03*
D61*
X83634951Y-54899269D03*
D54*
X84475000Y-53475500D03*
D51*
X86995000Y-77025500D03*
D50*
X92495000Y-77025500D03*
D52*
X81915000Y-77025500D03*
D50*
X81495000Y-77025500D03*
D52*
X92075000Y-77025500D03*
D54*
X89515000Y-72525500D03*
D62*
X90355049Y-73949269D03*
D54*
X84475000Y-72525500D03*
D61*
X83634951Y-73949269D03*
D52*
X81915000Y-96075500D03*
D50*
X92495000Y-96075500D03*
X81495000Y-96075500D03*
D51*
X86995000Y-96075500D03*
D52*
X92075000Y-96075500D03*
D62*
X90355049Y-92999269D03*
D54*
X89515000Y-91575500D03*
X84475000Y-91575500D03*
D61*
X83634951Y-92999269D03*
D52*
X81915000Y-115125500D03*
X92075000Y-115125500D03*
D50*
X92495000Y-115125500D03*
D51*
X86995000Y-115125500D03*
D50*
X81495000Y-115125500D03*
D54*
X89515000Y-110625500D03*
D62*
X90355049Y-112049269D03*
D61*
X83634951Y-112049269D03*
D54*
X84475000Y-110625500D03*
D50*
X130595000Y-53213000D03*
X119595000Y-53213000D03*
D52*
X120015000Y-53213000D03*
D51*
X125095000Y-53213000D03*
D52*
X130175000Y-53213000D03*
D54*
X127615000Y-48713000D03*
D62*
X128455049Y-50136769D03*
D61*
X121734951Y-50136769D03*
D54*
X122575000Y-48713000D03*
D50*
X130595000Y-72263000D03*
D52*
X130175000Y-72263000D03*
X120015000Y-72263000D03*
D51*
X125095000Y-72263000D03*
D50*
X119595000Y-72263000D03*
D54*
X127615000Y-67763000D03*
D62*
X128455049Y-69186769D03*
D54*
X122575000Y-67763000D03*
D61*
X121734951Y-69186769D03*
D51*
X125095000Y-91313000D03*
D52*
X120015000Y-91313000D03*
D50*
X119595000Y-91313000D03*
D52*
X130175000Y-91313000D03*
D50*
X130595000Y-91313000D03*
D62*
X128455049Y-88236769D03*
D54*
X127615000Y-86813000D03*
D61*
X121734951Y-88236769D03*
D54*
X122575000Y-86813000D03*
D52*
X187325000Y-74644250D03*
X177165000Y-74644250D03*
D50*
X187745000Y-74644250D03*
D51*
X182245000Y-74644250D03*
D50*
X176745000Y-74644250D03*
D54*
X184765000Y-70144250D03*
D62*
X185605049Y-71568019D03*
D54*
X179725000Y-70144250D03*
D61*
X178884951Y-71568019D03*
D51*
X182245000Y-93694250D03*
D50*
X176745000Y-93694250D03*
D52*
X187325000Y-93694250D03*
D50*
X187745000Y-93694250D03*
D52*
X177165000Y-93694250D03*
D62*
X185605049Y-90618019D03*
D54*
X184765000Y-89194250D03*
X179725000Y-89194250D03*
D61*
X178884951Y-90618019D03*
D50*
X187745000Y-112744250D03*
X176745000Y-112744250D03*
D52*
X187325000Y-112744250D03*
D51*
X182245000Y-112744250D03*
D52*
X177165000Y-112744250D03*
D62*
X185605049Y-109668019D03*
D54*
X184765000Y-108244250D03*
X179725000Y-108244250D03*
D61*
X178884951Y-109668019D03*
D52*
X81915000Y-134175500D03*
D50*
X92495000Y-134175500D03*
D52*
X92075000Y-134175500D03*
D51*
X86995000Y-134175500D03*
D50*
X81495000Y-134175500D03*
D54*
X89515000Y-129675500D03*
D62*
X90355049Y-131099269D03*
D54*
X84475000Y-129675500D03*
D61*
X83634951Y-131099269D03*
D51*
X125095000Y-129413000D03*
D50*
X119595000Y-129413000D03*
D52*
X130175000Y-129413000D03*
X120015000Y-129413000D03*
D50*
X130595000Y-129413000D03*
D62*
X128455049Y-126336769D03*
D54*
X127615000Y-124913000D03*
X122575000Y-124913000D03*
D61*
X121734951Y-126336769D03*
D50*
X138645000Y-127031750D03*
X149645000Y-127031750D03*
D52*
X139065000Y-127031750D03*
X149225000Y-127031750D03*
D51*
X144145000Y-127031750D03*
D54*
X146665000Y-122531750D03*
D62*
X147505049Y-123955519D03*
D54*
X141625000Y-122531750D03*
D61*
X140784951Y-123955519D03*
D72*
X83184000Y-68948000D03*
X79884000Y-68948000D03*
X79884000Y-64148000D03*
X83184000Y-64148000D03*
X83184000Y-87998000D03*
X79884000Y-87998000D03*
X79884000Y-83198000D03*
X83184000Y-83198000D03*
X83184000Y-107048000D03*
X79884000Y-107048000D03*
X79884000Y-102248000D03*
X83184000Y-102248000D03*
X83184000Y-126098000D03*
X79884000Y-126098000D03*
X79884000Y-121298000D03*
X83184000Y-121298000D03*
D73*
X98920000Y-138304000D03*
X98920000Y-141604000D03*
X94120000Y-141604000D03*
X94120000Y-138304000D03*
X121060333Y-138304000D03*
X121060333Y-141604000D03*
X116260333Y-141604000D03*
X116260333Y-138304000D03*
X143200667Y-138304000D03*
X143200667Y-141604000D03*
X138400667Y-141604000D03*
X138400667Y-138304000D03*
X165341000Y-138304000D03*
X165341000Y-141604000D03*
X160541000Y-141604000D03*
X160541000Y-138304000D03*
D74*
X200177058Y-134764539D03*
X203034942Y-136414539D03*
X200634942Y-140571461D03*
X197777058Y-138921461D03*
D75*
X205487000Y-110757000D03*
X208787000Y-110757000D03*
X208787000Y-115557000D03*
X205487000Y-115557000D03*
X205487000Y-90056000D03*
X208787000Y-90056000D03*
X208787000Y-94856000D03*
X205487000Y-94856000D03*
X205487000Y-71260000D03*
X208787000Y-71260000D03*
X208787000Y-76060000D03*
X205487000Y-76060000D03*
M02*
