G04 #@! TF.GenerationSoftware,KiCad,Pcbnew,(6.0.0)*
G04 #@! TF.CreationDate,2022-02-07T00:58:47-05:00*
G04 #@! TF.ProjectId,ergodash,6572676f-6461-4736-982e-6b696361645f,2.0*
G04 #@! TF.SameCoordinates,Original*
G04 #@! TF.FileFunction,Soldermask,Top*
G04 #@! TF.FilePolarity,Negative*
%FSLAX46Y46*%
G04 Gerber Fmt 4.6, Leading zero omitted, Abs format (unit mm)*
G04 Created by KiCad (PCBNEW (6.0.0)) date 2022-02-07 00:58:47*
%MOMM*%
%LPD*%
G01*
G04 APERTURE LIST*
G04 Aperture macros list*
%AMRoundRect*
0 Rectangle with rounded corners*
0 $1 Rounding radius*
0 $2 $3 $4 $5 $6 $7 $8 $9 X,Y pos of 4 corners*
0 Add a 4 corners polygon primitive as box body*
4,1,4,$2,$3,$4,$5,$6,$7,$8,$9,$2,$3,0*
0 Add four circle primitives for the rounded corners*
1,1,$1+$1,$2,$3*
1,1,$1+$1,$4,$5*
1,1,$1+$1,$6,$7*
1,1,$1+$1,$8,$9*
0 Add four rect primitives between the rounded corners*
20,1,$1+$1,$2,$3,$4,$5,0*
20,1,$1+$1,$4,$5,$6,$7,0*
20,1,$1+$1,$6,$7,$8,$9,0*
20,1,$1+$1,$8,$9,$2,$3,0*%
%AMHorizOval*
0 Thick line with rounded ends*
0 $1 width*
0 $2 $3 position (X,Y) of the first rounded end (center of the circle)*
0 $4 $5 position (X,Y) of the second rounded end (center of the circle)*
0 Add line between two ends*
20,1,$1,$2,$3,$4,$5,0*
0 Add two circle primitives to create the rounded ends*
1,1,$1,$2,$3*
1,1,$1,$4,$5*%
G04 Aperture macros list end*
%ADD10C,2.000000*%
%ADD11HorizOval,2.000000X0.000000X0.000000X0.000000X0.000000X0*%
%ADD12O,2.000000X2.000000*%
%ADD13C,1.924000*%
%ADD14C,2.200000*%
%ADD15C,5.400000*%
%ADD16RoundRect,0.200000X-0.762000X-0.762000X0.762000X-0.762000X0.762000X0.762000X-0.762000X0.762000X0*%
%ADD17C,1.610000*%
%ADD18O,1.700000X2.600000*%
%ADD19RoundRect,0.200000X-0.600000X0.700000X-0.600000X-0.700000X0.600000X-0.700000X0.600000X0.700000X0*%
%ADD20RoundRect,0.200000X0.700000X0.600000X-0.700000X0.600000X-0.700000X-0.600000X0.700000X-0.600000X0*%
%ADD21RoundRect,0.200000X-0.700000X-0.600000X0.700000X-0.600000X0.700000X0.600000X-0.700000X0.600000X0*%
%ADD22RoundRect,0.200000X0.600000X-0.700000X0.600000X0.700000X-0.600000X0.700000X-0.600000X-0.700000X0*%
%ADD23RoundRect,0.200000X-0.906218X-0.169615X0.306218X-0.869615X0.906218X0.169615X-0.306218X0.869615X0*%
%ADD24HorizOval,2.000000X0.000000X0.000000X0.000000X0.000000X0*%
%ADD25RoundRect,0.200000X-0.952500X-0.952500X0.952500X-0.952500X0.952500X0.952500X-0.952500X0.952500X0*%
%ADD26C,2.305000*%
%ADD27RoundRect,0.200000X0.348639X-1.301139X1.301139X0.348639X-0.348639X1.301139X-1.301139X-0.348639X0*%
%ADD28RoundRect,0.200000X0.952500X0.952500X-0.952500X0.952500X-0.952500X-0.952500X0.952500X-0.952500X0*%
%ADD29RoundRect,0.200000X0.292820X-1.092820X1.092820X0.292820X-0.292820X1.092820X-1.092820X-0.292820X0*%
%ADD30RoundRect,0.200000X0.119615X-0.992820X0.919615X0.392820X-0.119615X0.992820X-0.919615X-0.392820X0*%
%ADD31HorizOval,2.000000X0.000000X0.000000X0.000000X0.000000X0*%
%ADD32RoundRect,0.200000X-0.450000X-0.400000X0.450000X-0.400000X0.450000X0.400000X-0.450000X0.400000X0*%
%ADD33C,2.300000*%
%ADD34C,4.400000*%
%ADD35C,2.100000*%
%ADD36HorizOval,2.800000X0.578509X0.689440X-0.578509X-0.689440X0*%
%ADD37O,2.700000X3.737000*%
%ADD38HorizOval,2.800000X0.578509X-0.689440X-0.578509X0.689440X0*%
%ADD39HorizOval,2.800000X0.307818X-0.845723X-0.307818X0.845723X0*%
%ADD40HorizOval,2.700000X-0.449034X0.259250X0.449034X-0.259250X0*%
%ADD41HorizOval,2.800000X-0.886327X-0.156283X0.886327X0.156283X0*%
%ADD42HorizOval,2.800000X-0.307818X0.845723X0.307818X-0.845723X0*%
%ADD43HorizOval,2.800000X0.886327X0.156283X-0.886327X-0.156283X0*%
%ADD44HorizOval,2.800000X-0.578509X-0.689440X0.578509X0.689440X0*%
%ADD45HorizOval,2.800000X-0.578509X0.689440X0.578509X-0.689440X0*%
%ADD46RoundRect,0.200000X-0.348639X1.301139X-1.301139X-0.348639X0.348639X-1.301139X1.301139X0.348639X0*%
%ADD47RoundRect,0.200000X0.906218X0.169615X-0.306218X0.869615X-0.906218X-0.169615X0.306218X-0.869615X0*%
%ADD48HorizOval,2.000000X0.000000X0.000000X0.000000X0.000000X0*%
%ADD49RoundRect,0.200000X0.600000X-0.800000X0.600000X0.800000X-0.600000X0.800000X-0.600000X-0.800000X0*%
%ADD50RoundRect,0.200000X0.800000X-0.800000X0.800000X0.800000X-0.800000X0.800000X-0.800000X-0.800000X0*%
%ADD51RoundRect,0.200000X0.992820X0.119615X-0.392820X0.919615X-0.992820X-0.119615X0.392820X-0.919615X0*%
%ADD52RoundRect,0.200000X1.092820X0.292820X-0.292820X1.092820X-1.092820X-0.292820X0.292820X-1.092820X0*%
%ADD53C,3.448000*%
%ADD54C,4.387800*%
%ADD55RoundRect,0.200000X-0.700000X-0.900000X0.700000X-0.900000X0.700000X0.900000X-0.700000X0.900000X0*%
%ADD56RoundRect,0.200000X0.900000X-0.700000X0.900000X0.700000X-0.900000X0.700000X-0.900000X-0.700000X0*%
%ADD57RoundRect,0.200000X1.056218X0.429423X-0.156218X1.129423X-1.056218X-0.429423X0.156218X-1.129423X0*%
%ADD58RoundRect,0.200000X0.700000X0.900000X-0.700000X0.900000X-0.700000X-0.900000X0.700000X-0.900000X0*%
G04 APERTURE END LIST*
D10*
X102997000Y-46609000D03*
D11*
X113002647Y-44844735D03*
D10*
X133731000Y-41148000D03*
D12*
X133731000Y-51308000D03*
D13*
X160314000Y-39624000D03*
X165314000Y-39624000D03*
D14*
X159314000Y-42124000D03*
X166314000Y-42124000D03*
D15*
X134620000Y-81788000D03*
X191770000Y-65024000D03*
X185801000Y-124714000D03*
X96520000Y-67564000D03*
X96520000Y-124968000D03*
D16*
X117491000Y-43688000D03*
X119491000Y-43688000D03*
D17*
X197072000Y-53204000D03*
X193072000Y-53204000D03*
X193072000Y-46204000D03*
X197072000Y-46204000D03*
D18*
X195072000Y-55004000D03*
X195072000Y-48004000D03*
X195072000Y-51004000D03*
X191072000Y-56504000D03*
X199072000Y-56504000D03*
D13*
X93639000Y-48133000D03*
X96139000Y-48133000D03*
X98639000Y-48133000D03*
X174411000Y-45720000D03*
X176911000Y-45720000D03*
X179411000Y-45720000D03*
D15*
X135128000Y-117348000D03*
D10*
X95377000Y-52832000D03*
D19*
X95377000Y-56732000D03*
D12*
X95377000Y-62992000D03*
D19*
X95377000Y-59132000D03*
D10*
X111125000Y-66294000D03*
D20*
X107225000Y-66294000D03*
D12*
X100965000Y-66294000D03*
D20*
X104825000Y-66294000D03*
D10*
X120015000Y-61595000D03*
D21*
X123915000Y-61595000D03*
X126315000Y-61595000D03*
D12*
X130175000Y-61595000D03*
D21*
X142965000Y-78232000D03*
D10*
X139065000Y-78232000D03*
D21*
X145365000Y-78232000D03*
D12*
X149225000Y-78232000D03*
D21*
X162015000Y-80518000D03*
D10*
X158115000Y-80518000D03*
D12*
X168275000Y-80518000D03*
D21*
X164415000Y-80518000D03*
D20*
X183425000Y-63881000D03*
D10*
X187325000Y-63881000D03*
D20*
X181025000Y-63881000D03*
D12*
X177165000Y-63881000D03*
D19*
X192913000Y-73623000D03*
D10*
X192913000Y-69723000D03*
D12*
X192913000Y-79883000D03*
D19*
X192913000Y-76023000D03*
D10*
X95377000Y-72009000D03*
D19*
X95377000Y-75909000D03*
D12*
X95377000Y-82169000D03*
D19*
X95377000Y-78309000D03*
D20*
X107225000Y-85344000D03*
D10*
X111125000Y-85344000D03*
D12*
X100965000Y-85344000D03*
D20*
X104825000Y-85344000D03*
X126275000Y-80645000D03*
D10*
X130175000Y-80645000D03*
D12*
X120015000Y-80645000D03*
D20*
X123875000Y-80645000D03*
X145325000Y-80645000D03*
D10*
X149225000Y-80645000D03*
D12*
X139065000Y-80645000D03*
D20*
X142925000Y-80645000D03*
X164375000Y-82931000D03*
D10*
X168275000Y-82931000D03*
D20*
X161975000Y-82931000D03*
D12*
X158115000Y-82931000D03*
D20*
X183425000Y-82931000D03*
D10*
X187325000Y-82931000D03*
D12*
X177165000Y-82931000D03*
D20*
X181025000Y-82931000D03*
D19*
X192913000Y-88609000D03*
D10*
X192913000Y-84709000D03*
D12*
X192913000Y-94869000D03*
D19*
X192913000Y-91009000D03*
D10*
X95377000Y-90932000D03*
D19*
X95377000Y-94832000D03*
D12*
X95377000Y-101092000D03*
D19*
X95377000Y-97232000D03*
D10*
X101092000Y-104394000D03*
D21*
X104992000Y-104394000D03*
X107392000Y-104394000D03*
D12*
X111252000Y-104394000D03*
D20*
X126275000Y-99695000D03*
D10*
X130175000Y-99695000D03*
D20*
X123875000Y-99695000D03*
D12*
X120015000Y-99695000D03*
D10*
X149225000Y-97282000D03*
D20*
X145325000Y-97282000D03*
D12*
X139065000Y-97282000D03*
D20*
X142925000Y-97282000D03*
D10*
X168275000Y-99695000D03*
D20*
X164375000Y-99695000D03*
X161975000Y-99695000D03*
D12*
X158115000Y-99695000D03*
D20*
X183425000Y-102108000D03*
D10*
X187325000Y-102108000D03*
D12*
X177165000Y-102108000D03*
D20*
X181025000Y-102108000D03*
D10*
X192913000Y-108458000D03*
D22*
X192913000Y-104558000D03*
D12*
X192913000Y-98298000D03*
D22*
X192913000Y-102158000D03*
D21*
X104992000Y-106807000D03*
D10*
X101092000Y-106807000D03*
D21*
X107392000Y-106807000D03*
D12*
X111252000Y-106807000D03*
D19*
X95377000Y-113374000D03*
D10*
X95377000Y-109474000D03*
D19*
X95377000Y-115774000D03*
D12*
X95377000Y-119634000D03*
D20*
X126275000Y-118745000D03*
D10*
X130175000Y-118745000D03*
D20*
X123875000Y-118745000D03*
D12*
X120015000Y-118745000D03*
D10*
X149606000Y-116332000D03*
D20*
X145706000Y-116332000D03*
D12*
X139446000Y-116332000D03*
D20*
X143306000Y-116332000D03*
D10*
X187325000Y-120396000D03*
D20*
X183425000Y-120396000D03*
D12*
X177165000Y-120396000D03*
D20*
X181025000Y-120396000D03*
D10*
X180019212Y-145722000D03*
D23*
X183396711Y-147672000D03*
D24*
X188818030Y-150802000D03*
D23*
X185475172Y-148872000D03*
D21*
X104738000Y-123444000D03*
D10*
X100838000Y-123444000D03*
D12*
X110998000Y-123444000D03*
D21*
X107138000Y-123444000D03*
D10*
X100838000Y-125857000D03*
D21*
X104738000Y-125857000D03*
X107138000Y-125857000D03*
D12*
X110998000Y-125857000D03*
D20*
X126275000Y-121031000D03*
D10*
X130175000Y-121031000D03*
D12*
X120015000Y-121031000D03*
D20*
X123875000Y-121031000D03*
D10*
X149606000Y-118745000D03*
D20*
X145706000Y-118745000D03*
X143306000Y-118745000D03*
D12*
X139446000Y-118745000D03*
D15*
X128397000Y-42672000D03*
D25*
X88265000Y-63055500D03*
D26*
X85725000Y-63055500D03*
D25*
X107315000Y-63055500D03*
D26*
X104775000Y-63055500D03*
D25*
X126365000Y-58293000D03*
D26*
X123825000Y-58293000D03*
D25*
X145415000Y-55911750D03*
D26*
X142875000Y-55911750D03*
D25*
X164465000Y-58420000D03*
D26*
X161925000Y-58420000D03*
D25*
X183515000Y-60674250D03*
D26*
X180975000Y-60674250D03*
D25*
X202565000Y-70199250D03*
D26*
X200025000Y-70199250D03*
D25*
X88265000Y-82105500D03*
D26*
X85725000Y-82105500D03*
D25*
X107315000Y-82105500D03*
D26*
X104775000Y-82105500D03*
D25*
X126365000Y-77343000D03*
D26*
X123825000Y-77343000D03*
D25*
X145415000Y-74961750D03*
D26*
X142875000Y-74961750D03*
D25*
X164465000Y-77343000D03*
D26*
X161925000Y-77343000D03*
D25*
X183515000Y-79724250D03*
D26*
X180975000Y-79724250D03*
D25*
X202565000Y-89249250D03*
D26*
X200025000Y-89249250D03*
D25*
X88265000Y-101155500D03*
D26*
X85725000Y-101155500D03*
D25*
X107315000Y-101155500D03*
D26*
X104775000Y-101155500D03*
D25*
X126365000Y-96393000D03*
D26*
X123825000Y-96393000D03*
D25*
X145415000Y-94011750D03*
D26*
X142875000Y-94011750D03*
D25*
X164465000Y-96393000D03*
D26*
X161925000Y-96393000D03*
D25*
X183515000Y-98774250D03*
D26*
X180975000Y-98774250D03*
D25*
X202565000Y-108299250D03*
D26*
X200025000Y-108299250D03*
D25*
X88265000Y-120205500D03*
D26*
X85725000Y-120205500D03*
D25*
X107315000Y-120205500D03*
D26*
X104775000Y-120205500D03*
D25*
X126365000Y-115443000D03*
D26*
X123825000Y-115443000D03*
D25*
X145415000Y-113061750D03*
D26*
X142875000Y-113061750D03*
D25*
X164465000Y-115443000D03*
D26*
X161925000Y-115443000D03*
D25*
X183515000Y-117824250D03*
D26*
X180975000Y-117824250D03*
D27*
X179326409Y-135615398D03*
D26*
X178056409Y-137815102D03*
D25*
X88265000Y-139255500D03*
D26*
X85725000Y-139255500D03*
D25*
X107315000Y-139255500D03*
D26*
X104775000Y-139255500D03*
D25*
X126365000Y-134493000D03*
D26*
X123825000Y-134493000D03*
D25*
X145415000Y-132111750D03*
D26*
X142875000Y-132111750D03*
D13*
X136525000Y-39370000D03*
X136525000Y-41910000D03*
X136525000Y-44450000D03*
X136525000Y-46990000D03*
X136525000Y-49530000D03*
X136525000Y-52070000D03*
X136525000Y-54610000D03*
X136525000Y-57150000D03*
X136525000Y-59690000D03*
X136525000Y-62230000D03*
X136525000Y-64770000D03*
X136525000Y-67310000D03*
X151765000Y-67310000D03*
X151765000Y-64770000D03*
X151765000Y-62230000D03*
X151765000Y-59690000D03*
X151765000Y-57150000D03*
X151765000Y-54610000D03*
X151765000Y-52070000D03*
X151765000Y-49530000D03*
X151765000Y-46990000D03*
X151765000Y-44450000D03*
X151765000Y-41910000D03*
X151765000Y-39370000D03*
D28*
X150495000Y-124333000D03*
D26*
X153035000Y-124333000D03*
D29*
X202565000Y-145161000D03*
D30*
X204290000Y-142173212D03*
X205920000Y-139349970D03*
D31*
X207645000Y-136362182D03*
D32*
X161957000Y-131323000D03*
X161957000Y-133223000D03*
X163957000Y-132273000D03*
D33*
X111545000Y-57975500D03*
D34*
X106045000Y-57975500D03*
D35*
X111125000Y-57975500D03*
X100965000Y-57975500D03*
D33*
X100545000Y-57975500D03*
D36*
X102684951Y-54899269D03*
D37*
X103525000Y-53475500D03*
D38*
X109405049Y-54899269D03*
D37*
X108565000Y-53475500D03*
D33*
X111545000Y-77025500D03*
X100545000Y-77025500D03*
D35*
X100965000Y-77025500D03*
D34*
X106045000Y-77025500D03*
D35*
X111125000Y-77025500D03*
D36*
X102684951Y-73949269D03*
D37*
X103525000Y-72525500D03*
D38*
X109405049Y-73949269D03*
D37*
X108565000Y-72525500D03*
D33*
X111545000Y-96075500D03*
X100545000Y-96075500D03*
D34*
X106045000Y-96075500D03*
D35*
X111125000Y-96075500D03*
X100965000Y-96075500D03*
D36*
X102684951Y-92999269D03*
D37*
X103525000Y-91575500D03*
D38*
X109405049Y-92999269D03*
D37*
X108565000Y-91575500D03*
D35*
X111125000Y-115125500D03*
D33*
X111545000Y-115125500D03*
X100545000Y-115125500D03*
D34*
X106045000Y-115125500D03*
D35*
X100965000Y-115125500D03*
D37*
X103525000Y-110625500D03*
D36*
X102684951Y-112049269D03*
D38*
X109405049Y-112049269D03*
D37*
X108565000Y-110625500D03*
D33*
X119595000Y-110363000D03*
D34*
X125095000Y-110363000D03*
D35*
X130175000Y-110363000D03*
X120015000Y-110363000D03*
D33*
X130595000Y-110363000D03*
D36*
X121734951Y-107286769D03*
D37*
X122575000Y-105863000D03*
X127615000Y-105863000D03*
D38*
X128455049Y-107286769D03*
D33*
X149645000Y-50831750D03*
X138645000Y-50831750D03*
D35*
X139065000Y-50831750D03*
X149225000Y-50831750D03*
D34*
X144145000Y-50831750D03*
D37*
X141625000Y-46331750D03*
D36*
X140784951Y-47755519D03*
D37*
X146665000Y-46331750D03*
D38*
X147505049Y-47755519D03*
D34*
X144145000Y-69881750D03*
D35*
X139065000Y-69881750D03*
X149225000Y-69881750D03*
D33*
X149645000Y-69881750D03*
X138645000Y-69881750D03*
D36*
X140784951Y-66805519D03*
D37*
X141625000Y-65381750D03*
X146665000Y-65381750D03*
D38*
X147505049Y-66805519D03*
D35*
X149225000Y-88931750D03*
D34*
X144145000Y-88931750D03*
D33*
X138645000Y-88931750D03*
X149645000Y-88931750D03*
D35*
X139065000Y-88931750D03*
D36*
X140784951Y-85855519D03*
D37*
X141625000Y-84431750D03*
X146665000Y-84431750D03*
D38*
X147505049Y-85855519D03*
D34*
X144145000Y-107981750D03*
D33*
X149645000Y-107981750D03*
D35*
X139065000Y-107981750D03*
X149225000Y-107981750D03*
D33*
X138645000Y-107981750D03*
D36*
X140784951Y-104905519D03*
D37*
X141625000Y-103481750D03*
X146665000Y-103481750D03*
D38*
X147505049Y-104905519D03*
D35*
X168275000Y-53213000D03*
D33*
X168695000Y-53213000D03*
D34*
X163195000Y-53213000D03*
D35*
X158115000Y-53213000D03*
D33*
X157695000Y-53213000D03*
D36*
X159834951Y-50136769D03*
D37*
X160675000Y-48713000D03*
D38*
X166555049Y-50136769D03*
D37*
X165715000Y-48713000D03*
D34*
X163195000Y-72263000D03*
D35*
X158115000Y-72263000D03*
D33*
X168695000Y-72263000D03*
X157695000Y-72263000D03*
D35*
X168275000Y-72263000D03*
D37*
X160675000Y-67763000D03*
D36*
X159834951Y-69186769D03*
D37*
X165715000Y-67763000D03*
D38*
X166555049Y-69186769D03*
D35*
X168275000Y-91313000D03*
D34*
X163195000Y-91313000D03*
D33*
X168695000Y-91313000D03*
D35*
X158115000Y-91313000D03*
D33*
X157695000Y-91313000D03*
D36*
X159834951Y-88236769D03*
D37*
X160675000Y-86813000D03*
D38*
X166555049Y-88236769D03*
D37*
X165715000Y-86813000D03*
D34*
X163195000Y-110363000D03*
D33*
X168695000Y-110363000D03*
D35*
X158115000Y-110363000D03*
D33*
X157695000Y-110363000D03*
D35*
X168275000Y-110363000D03*
D36*
X159834951Y-107286769D03*
D37*
X160675000Y-105863000D03*
D38*
X166555049Y-107286769D03*
D37*
X165715000Y-105863000D03*
D35*
X187325000Y-55594250D03*
D34*
X182245000Y-55594250D03*
D35*
X177165000Y-55594250D03*
D33*
X187745000Y-55594250D03*
X176745000Y-55594250D03*
D37*
X179725000Y-51094250D03*
D36*
X178884951Y-52518019D03*
D38*
X185605049Y-52518019D03*
D37*
X184765000Y-51094250D03*
D35*
X206375000Y-65119250D03*
D33*
X206795000Y-65119250D03*
X195795000Y-65119250D03*
D34*
X201295000Y-65119250D03*
D35*
X196215000Y-65119250D03*
D36*
X197934951Y-62043019D03*
D37*
X198775000Y-60619250D03*
D38*
X204655049Y-62043019D03*
D37*
X203815000Y-60619250D03*
D35*
X206375000Y-84169250D03*
D33*
X206795000Y-84169250D03*
X195795000Y-84169250D03*
D35*
X196215000Y-84169250D03*
D34*
X201295000Y-84169250D03*
D36*
X197934951Y-81093019D03*
D37*
X198775000Y-79669250D03*
X203815000Y-79669250D03*
D38*
X204655049Y-81093019D03*
D33*
X195795000Y-103219250D03*
D35*
X206375000Y-103219250D03*
D34*
X201295000Y-103219250D03*
D33*
X206795000Y-103219250D03*
D35*
X196215000Y-103219250D03*
D37*
X198775000Y-98719250D03*
D36*
X197934951Y-100143019D03*
D38*
X204655049Y-100143019D03*
D37*
X203815000Y-98719250D03*
D35*
X202855000Y-122802891D03*
D33*
X203065000Y-122439160D03*
X197565000Y-131965440D03*
D34*
X200315000Y-127202300D03*
D35*
X197775000Y-131601709D03*
D39*
X204659119Y-125830528D03*
D40*
X205472114Y-127269916D03*
D41*
X201299070Y-131650303D03*
D40*
X202952114Y-131634684D03*
D35*
X100965000Y-134175500D03*
D33*
X100545000Y-134175500D03*
D34*
X106045000Y-134175500D03*
D33*
X111545000Y-134175500D03*
D35*
X111125000Y-134175500D03*
D37*
X103525000Y-129675500D03*
D36*
X102684951Y-131099269D03*
D37*
X108565000Y-129675500D03*
D38*
X109405049Y-131099269D03*
D35*
X176832000Y-129775841D03*
X171752000Y-138574659D03*
D33*
X171542000Y-138938390D03*
X177042000Y-129412110D03*
D34*
X174292000Y-134175250D03*
D42*
X169947881Y-135547022D03*
D40*
X169134886Y-134107634D03*
D43*
X173307930Y-129727247D03*
D40*
X171654886Y-129742866D03*
D33*
X188040000Y-148463440D03*
D35*
X193330000Y-139300891D03*
X188250000Y-148099709D03*
D34*
X190790000Y-143700300D03*
D33*
X193540000Y-138937160D03*
D40*
X195947114Y-143767916D03*
D39*
X195134119Y-142328528D03*
D41*
X191774070Y-148148303D03*
D40*
X193427114Y-148132684D03*
D33*
X198302500Y-130688110D03*
D35*
X198092500Y-131051841D03*
D33*
X192802500Y-140214390D03*
D35*
X193012500Y-139850659D03*
D34*
X195552500Y-135451250D03*
D42*
X191208381Y-136823022D03*
D40*
X190395386Y-135383634D03*
D43*
X194568430Y-131003247D03*
D40*
X192915386Y-131018866D03*
D33*
X146265000Y-129413000D03*
D35*
X156845000Y-129413000D03*
D33*
X157265000Y-129413000D03*
D35*
X146685000Y-129413000D03*
D34*
X151765000Y-129413000D03*
D37*
X154285000Y-133913000D03*
D44*
X155125049Y-132489231D03*
D45*
X148404951Y-132489231D03*
D37*
X149245000Y-133913000D03*
D35*
X214273000Y-141126759D03*
D33*
X214063000Y-141490490D03*
D35*
X219353000Y-132327941D03*
D34*
X216813000Y-136727350D03*
D33*
X219563000Y-131964210D03*
D40*
X221970114Y-136794966D03*
D39*
X221157119Y-135355578D03*
D40*
X219450114Y-141159734D03*
D41*
X217797070Y-141175353D03*
D33*
X209300500Y-149739440D03*
D35*
X209510500Y-149375709D03*
X214590500Y-140576891D03*
D33*
X214800500Y-140213160D03*
D34*
X212050500Y-144976300D03*
D42*
X207706381Y-146348072D03*
D40*
X206893386Y-144908684D03*
X209413386Y-140543916D03*
D43*
X211066430Y-140528297D03*
D34*
X207288000Y-153225350D03*
D33*
X210038000Y-148462210D03*
D35*
X204748000Y-157624759D03*
D33*
X204538000Y-157988490D03*
D35*
X209828000Y-148825941D03*
D39*
X211632119Y-151853578D03*
D40*
X212445114Y-153292966D03*
X209925114Y-157657734D03*
D41*
X208272070Y-157673353D03*
D46*
X195280591Y-125762152D03*
D26*
X196550591Y-123562448D03*
D46*
X211778591Y-135287202D03*
D26*
X213048591Y-133087498D03*
D46*
X185755591Y-142260152D03*
D26*
X187025591Y-140060448D03*
D46*
X202253591Y-151785202D03*
D26*
X203523591Y-149585498D03*
D10*
X189992000Y-111379000D03*
D21*
X193892000Y-111379000D03*
D12*
X200152000Y-111379000D03*
D21*
X196292000Y-111379000D03*
D10*
X189992000Y-113665000D03*
D21*
X193892000Y-113665000D03*
D12*
X200152000Y-113665000D03*
D21*
X196292000Y-113665000D03*
D47*
X202235501Y-158451000D03*
D10*
X205613000Y-160401000D03*
D48*
X196814182Y-155321000D03*
D47*
X200157040Y-157251000D03*
D27*
X217084909Y-146416448D03*
D26*
X215814909Y-148616152D03*
D49*
X97663000Y-59542000D03*
D50*
X97663000Y-62992000D03*
D12*
X97663000Y-52832000D03*
D49*
X97663000Y-56282000D03*
X97663000Y-78719000D03*
D50*
X97663000Y-82169000D03*
D12*
X97663000Y-72009000D03*
D49*
X97663000Y-75459000D03*
D50*
X97663000Y-101092000D03*
D49*
X97663000Y-97642000D03*
D12*
X97663000Y-90932000D03*
D49*
X97663000Y-94382000D03*
X114427000Y-116671000D03*
D50*
X114427000Y-120121000D03*
D49*
X114427000Y-113411000D03*
D12*
X114427000Y-109961000D03*
D49*
X114427000Y-59542000D03*
D50*
X114427000Y-62992000D03*
D49*
X114427000Y-56282000D03*
D12*
X114427000Y-52832000D03*
D50*
X114427000Y-82169000D03*
D49*
X114427000Y-78719000D03*
X114427000Y-75459000D03*
D12*
X114427000Y-72009000D03*
D50*
X114427000Y-101092000D03*
D49*
X114427000Y-97642000D03*
X114427000Y-94382000D03*
D12*
X114427000Y-90932000D03*
D49*
X116713000Y-116692000D03*
D50*
X116713000Y-120142000D03*
D49*
X116713000Y-113432000D03*
D12*
X116713000Y-109982000D03*
D49*
X116713000Y-59542000D03*
D50*
X116713000Y-62992000D03*
D12*
X116713000Y-52832000D03*
D49*
X116713000Y-56282000D03*
D50*
X116586000Y-82169000D03*
D49*
X116586000Y-78719000D03*
D12*
X116586000Y-72009000D03*
D49*
X116586000Y-75459000D03*
D50*
X116713000Y-101092000D03*
D49*
X116713000Y-97642000D03*
X116713000Y-94382000D03*
D12*
X116713000Y-90932000D03*
D49*
X133477000Y-109199000D03*
D50*
X133477000Y-112649000D03*
D49*
X133477000Y-105939000D03*
D12*
X133477000Y-102489000D03*
D49*
X133477000Y-73893000D03*
D50*
X133477000Y-77343000D03*
D49*
X133477000Y-70633000D03*
D12*
X133477000Y-67183000D03*
D50*
X152527000Y-80772000D03*
D49*
X152527000Y-77322000D03*
X152527000Y-74062000D03*
D12*
X152527000Y-70612000D03*
D50*
X136017000Y-112628000D03*
D49*
X136017000Y-109178000D03*
X136017000Y-105918000D03*
D12*
X136017000Y-102468000D03*
D49*
X173609000Y-57637000D03*
D50*
X173609000Y-61087000D03*
D12*
X173609000Y-50927000D03*
D49*
X173609000Y-54377000D03*
X152527000Y-93684000D03*
D50*
X152527000Y-97134000D03*
D49*
X152527000Y-90424000D03*
D12*
X152527000Y-86974000D03*
D49*
X171577000Y-114406000D03*
D50*
X171577000Y-117856000D03*
D12*
X171577000Y-107696000D03*
D49*
X171577000Y-111146000D03*
X173863000Y-79100000D03*
D50*
X173863000Y-82550000D03*
D49*
X173863000Y-75840000D03*
D12*
X173863000Y-72390000D03*
D49*
X171577000Y-79121000D03*
D50*
X171577000Y-82571000D03*
D49*
X171577000Y-75861000D03*
D12*
X171577000Y-72411000D03*
D49*
X173990000Y-95102000D03*
D50*
X173990000Y-98552000D03*
D12*
X173990000Y-88392000D03*
D49*
X173990000Y-91842000D03*
X173863000Y-114406000D03*
D50*
X173863000Y-117856000D03*
D12*
X173863000Y-107696000D03*
D49*
X173863000Y-111146000D03*
D50*
X190627000Y-79883000D03*
D49*
X190627000Y-76433000D03*
D12*
X190627000Y-69723000D03*
D49*
X190627000Y-73173000D03*
D50*
X190627000Y-94869000D03*
D49*
X190627000Y-91419000D03*
D12*
X190627000Y-84709000D03*
D49*
X190627000Y-88159000D03*
D50*
X190627000Y-108458000D03*
D49*
X190627000Y-105008000D03*
D12*
X190627000Y-98298000D03*
D49*
X190627000Y-101748000D03*
X190627000Y-123148000D03*
D50*
X190627000Y-126598000D03*
D12*
X190627000Y-116438000D03*
D49*
X190627000Y-119888000D03*
D50*
X97663000Y-119634000D03*
D49*
X97663000Y-116184000D03*
X97663000Y-112924000D03*
D12*
X97663000Y-109474000D03*
D50*
X114427000Y-134620000D03*
D49*
X114427000Y-131170000D03*
D12*
X114427000Y-124460000D03*
D49*
X114427000Y-127910000D03*
X116713000Y-131170000D03*
D50*
X116713000Y-134620000D03*
D49*
X116713000Y-127910000D03*
D12*
X116713000Y-124460000D03*
D51*
X180242242Y-128249000D03*
D52*
X183230030Y-129974000D03*
D51*
X177419000Y-126619000D03*
D48*
X174431212Y-124894000D03*
D29*
X178816000Y-142494000D03*
D30*
X180541000Y-139506212D03*
D31*
X183896000Y-133695182D03*
D30*
X182171000Y-136682970D03*
D10*
X158115000Y-102235000D03*
D21*
X162015000Y-102235000D03*
X164415000Y-102235000D03*
D12*
X168275000Y-102235000D03*
D19*
X152400000Y-113988000D03*
D10*
X152400000Y-110088000D03*
D19*
X152400000Y-116388000D03*
D12*
X152400000Y-120248000D03*
D16*
X111030000Y-47159000D03*
X113030000Y-47159000D03*
X115030000Y-47159000D03*
X111030000Y-49318000D03*
X113030000Y-49318000D03*
X115030000Y-49318000D03*
D53*
X195632687Y-149282361D03*
D54*
X182434460Y-141662361D03*
D53*
X207570687Y-128605139D03*
D54*
X194372460Y-120985139D03*
X198932460Y-151187411D03*
D53*
X212130687Y-158807411D03*
X224068687Y-138130189D03*
D54*
X210870460Y-130510189D03*
D49*
X133477000Y-128990000D03*
D50*
X133477000Y-132440000D03*
D49*
X133477000Y-125730000D03*
D12*
X133477000Y-122280000D03*
D47*
X218740461Y-129724000D03*
D10*
X222117960Y-131674000D03*
D48*
X213319142Y-126594000D03*
D47*
X216662000Y-128524000D03*
D49*
X133477000Y-93218000D03*
D50*
X133477000Y-96668000D03*
D49*
X133477000Y-89958000D03*
D12*
X133477000Y-86508000D03*
D49*
X171577000Y-95123000D03*
D50*
X171577000Y-98573000D03*
D49*
X171577000Y-91863000D03*
D12*
X171577000Y-88413000D03*
D10*
X155194000Y-110109000D03*
D19*
X155194000Y-114009000D03*
X155194000Y-116409000D03*
D12*
X155194000Y-120269000D03*
D13*
X146518000Y-39624000D03*
X141518000Y-39624000D03*
D14*
X147518000Y-42124000D03*
X140518000Y-42124000D03*
D13*
X170815000Y-39370000D03*
X170815000Y-41910000D03*
X170815000Y-44450000D03*
X170815000Y-46990000D03*
X170815000Y-49530000D03*
X170815000Y-52070000D03*
X170815000Y-54610000D03*
X170815000Y-57150000D03*
X170815000Y-59690000D03*
X170815000Y-62230000D03*
X170815000Y-64770000D03*
X170815000Y-67310000D03*
X155575000Y-67310000D03*
X155575000Y-64770000D03*
X155575000Y-62230000D03*
X155575000Y-59690000D03*
X155575000Y-57150000D03*
X155575000Y-54610000D03*
X155575000Y-52070000D03*
X155575000Y-49530000D03*
X155575000Y-46990000D03*
X155575000Y-44450000D03*
X155575000Y-41910000D03*
X155575000Y-39370000D03*
D33*
X92495000Y-57975500D03*
D35*
X81915000Y-57975500D03*
D33*
X81495000Y-57975500D03*
D35*
X92075000Y-57975500D03*
D34*
X86995000Y-57975500D03*
D37*
X89515000Y-53475500D03*
D45*
X90355049Y-54899269D03*
D44*
X83634951Y-54899269D03*
D37*
X84475000Y-53475500D03*
D34*
X86995000Y-77025500D03*
D33*
X92495000Y-77025500D03*
D35*
X81915000Y-77025500D03*
D33*
X81495000Y-77025500D03*
D35*
X92075000Y-77025500D03*
D37*
X89515000Y-72525500D03*
D45*
X90355049Y-73949269D03*
D37*
X84475000Y-72525500D03*
D44*
X83634951Y-73949269D03*
D35*
X81915000Y-96075500D03*
D33*
X92495000Y-96075500D03*
X81495000Y-96075500D03*
D34*
X86995000Y-96075500D03*
D35*
X92075000Y-96075500D03*
D45*
X90355049Y-92999269D03*
D37*
X89515000Y-91575500D03*
X84475000Y-91575500D03*
D44*
X83634951Y-92999269D03*
D35*
X81915000Y-115125500D03*
X92075000Y-115125500D03*
D33*
X92495000Y-115125500D03*
D34*
X86995000Y-115125500D03*
D33*
X81495000Y-115125500D03*
D37*
X89515000Y-110625500D03*
D45*
X90355049Y-112049269D03*
D44*
X83634951Y-112049269D03*
D37*
X84475000Y-110625500D03*
D33*
X130595000Y-53213000D03*
X119595000Y-53213000D03*
D35*
X120015000Y-53213000D03*
D34*
X125095000Y-53213000D03*
D35*
X130175000Y-53213000D03*
D37*
X127615000Y-48713000D03*
D45*
X128455049Y-50136769D03*
D44*
X121734951Y-50136769D03*
D37*
X122575000Y-48713000D03*
D33*
X130595000Y-72263000D03*
D35*
X130175000Y-72263000D03*
X120015000Y-72263000D03*
D34*
X125095000Y-72263000D03*
D33*
X119595000Y-72263000D03*
D37*
X127615000Y-67763000D03*
D45*
X128455049Y-69186769D03*
D37*
X122575000Y-67763000D03*
D44*
X121734951Y-69186769D03*
D34*
X125095000Y-91313000D03*
D35*
X120015000Y-91313000D03*
D33*
X119595000Y-91313000D03*
D35*
X130175000Y-91313000D03*
D33*
X130595000Y-91313000D03*
D45*
X128455049Y-88236769D03*
D37*
X127615000Y-86813000D03*
D44*
X121734951Y-88236769D03*
D37*
X122575000Y-86813000D03*
D35*
X187325000Y-74644250D03*
X177165000Y-74644250D03*
D33*
X187745000Y-74644250D03*
D34*
X182245000Y-74644250D03*
D33*
X176745000Y-74644250D03*
D37*
X184765000Y-70144250D03*
D45*
X185605049Y-71568019D03*
D37*
X179725000Y-70144250D03*
D44*
X178884951Y-71568019D03*
D34*
X182245000Y-93694250D03*
D33*
X176745000Y-93694250D03*
D35*
X187325000Y-93694250D03*
D33*
X187745000Y-93694250D03*
D35*
X177165000Y-93694250D03*
D45*
X185605049Y-90618019D03*
D37*
X184765000Y-89194250D03*
X179725000Y-89194250D03*
D44*
X178884951Y-90618019D03*
D33*
X187745000Y-112744250D03*
X176745000Y-112744250D03*
D35*
X187325000Y-112744250D03*
D34*
X182245000Y-112744250D03*
D35*
X177165000Y-112744250D03*
D45*
X185605049Y-109668019D03*
D37*
X184765000Y-108244250D03*
X179725000Y-108244250D03*
D44*
X178884951Y-109668019D03*
D35*
X81915000Y-134175500D03*
D33*
X92495000Y-134175500D03*
D35*
X92075000Y-134175500D03*
D34*
X86995000Y-134175500D03*
D33*
X81495000Y-134175500D03*
D37*
X89515000Y-129675500D03*
D45*
X90355049Y-131099269D03*
D37*
X84475000Y-129675500D03*
D44*
X83634951Y-131099269D03*
D34*
X125095000Y-129413000D03*
D33*
X119595000Y-129413000D03*
D35*
X130175000Y-129413000D03*
X120015000Y-129413000D03*
D33*
X130595000Y-129413000D03*
D45*
X128455049Y-126336769D03*
D37*
X127615000Y-124913000D03*
X122575000Y-124913000D03*
D44*
X121734951Y-126336769D03*
D33*
X138645000Y-127031750D03*
X149645000Y-127031750D03*
D35*
X139065000Y-127031750D03*
X149225000Y-127031750D03*
D34*
X144145000Y-127031750D03*
D37*
X146665000Y-122531750D03*
D45*
X147505049Y-123955519D03*
D37*
X141625000Y-122531750D03*
D44*
X140784951Y-123955519D03*
D55*
X79884000Y-68948000D03*
X83184000Y-68948000D03*
X83184000Y-64148000D03*
X79884000Y-64148000D03*
X79884000Y-87998000D03*
X83184000Y-87998000D03*
X83184000Y-83198000D03*
X79884000Y-83198000D03*
X79884000Y-107048000D03*
X83184000Y-107048000D03*
X83184000Y-102248000D03*
X79884000Y-102248000D03*
X79884000Y-126098000D03*
X83184000Y-126098000D03*
X83184000Y-121298000D03*
X79884000Y-121298000D03*
D56*
X98920000Y-141604000D03*
X98920000Y-138304000D03*
X94120000Y-138304000D03*
X94120000Y-141604000D03*
X121060333Y-141604000D03*
X121060333Y-138304000D03*
X116260333Y-138304000D03*
X116260333Y-141604000D03*
X143200667Y-141604000D03*
X143200667Y-138304000D03*
X138400667Y-138304000D03*
X138400667Y-141604000D03*
X165341000Y-141604000D03*
X165341000Y-138304000D03*
X160541000Y-138304000D03*
X160541000Y-141604000D03*
D57*
X203034942Y-136414539D03*
X200177058Y-134764539D03*
X197777058Y-138921461D03*
X200634942Y-140571461D03*
D58*
X208787000Y-110757000D03*
X205487000Y-110757000D03*
X205487000Y-115557000D03*
X208787000Y-115557000D03*
X208787000Y-90056000D03*
X205487000Y-90056000D03*
X205487000Y-94856000D03*
X208787000Y-94856000D03*
X208787000Y-71260000D03*
X205487000Y-71260000D03*
X205487000Y-76060000D03*
X208787000Y-76060000D03*
M02*
