M48
; DRILL file {KiCad (6.0.0)} date Mon Feb  7 00:58:55 2022
; FORMAT={-:-/ absolute / inch / decimal}
; #@! TF.CreationDate,2022-02-07T00:58:55-05:00
; #@! TF.GenerationSoftware,Kicad,Pcbnew,(6.0.0)
; #@! TF.FileFunction,NonPlated,1,2,NPTH
FMAT,2
INCH
; #@! TA.AperFunction,NonPlated,NPTH,ComponentDrill
T1C0.0472
; #@! TA.AperFunction,NonPlated,NPTH,ComponentDrill
T2C0.0669
; #@! TA.AperFunction,NonPlated,NPTH,ComponentDrill
T3C0.0748
; #@! TA.AperFunction,NonPlated,NPTH,ComponentDrill
T4C0.1200
; #@! TA.AperFunction,NonPlated,NPTH,ComponentDrill
T5C0.1570
; #@! TA.AperFunction,NonPlated,NPTH,ComponentDrill
T6C0.1575
; #@! TA.AperFunction,NonPlated,NPTH,ComponentDrill
T7C0.1969
%
G90
G05
T1
X7.6013Y-1.8191
X7.6013Y-2.0946
X7.7587Y-1.8191
X7.7587Y-2.0946
T2
X3.225Y-2.2825
X3.225Y-3.0325
X3.225Y-3.7825
X3.225Y-4.5325
X3.225Y-5.2825
X3.625Y-2.2825
X3.625Y-3.0325
X3.625Y-3.7825
X3.625Y-4.5325
X3.625Y-5.2825
X3.975Y-2.2825
X3.975Y-3.0325
X3.975Y-3.7825
X3.975Y-4.5325
X3.975Y-5.2825
X4.375Y-2.2825
X4.375Y-3.0325
X4.375Y-3.7825
X4.375Y-4.5325
X4.375Y-5.2825
X4.725Y-2.095
X4.725Y-2.845
X4.725Y-3.595
X4.725Y-4.345
X4.725Y-5.095
X5.125Y-2.095
X5.125Y-2.845
X5.125Y-3.595
X5.125Y-4.345
X5.125Y-5.095
X5.475Y-2.0012
X5.475Y-2.7512
X5.475Y-3.5012
X5.475Y-4.2512
X5.475Y-5.0012
X5.775Y-5.095
X5.875Y-2.0012
X5.875Y-2.7512
X5.875Y-3.5012
X5.875Y-4.2512
X5.875Y-5.0012
X6.175Y-5.095
X6.225Y-2.095
X6.225Y-2.845
X6.225Y-3.595
X6.225Y-4.345
X6.625Y-2.095
X6.625Y-2.845
X6.625Y-3.595
X6.625Y-4.345
X6.7619Y-5.4557
X6.9619Y-5.1093
X6.975Y-2.1887
X6.975Y-2.9387
X6.975Y-3.6887
X6.975Y-4.4387
X7.375Y-2.1887
X7.375Y-2.9387
X7.375Y-3.6887
X7.375Y-4.4387
X7.4114Y-5.8307
X7.5989Y-5.5059
X7.6114Y-5.4843
X7.725Y-2.5637
X7.725Y-3.3137
X7.725Y-4.0637
X7.7864Y-5.1812
X7.7989Y-5.1595
X7.9864Y-4.8348
X8.0609Y-6.2057
X8.125Y-2.5637
X8.125Y-3.3137
X8.125Y-4.0637
X8.2484Y-5.8809
X8.2609Y-5.8593
X8.4359Y-5.5562
X8.4484Y-5.5345
X8.6359Y-5.2098
T3
X3.2085Y-2.2825
X3.2085Y-3.0325
X3.2085Y-3.7825
X3.2085Y-4.5325
X3.2085Y-5.2825
X3.6415Y-2.2825
X3.6415Y-3.0325
X3.6415Y-3.7825
X3.6415Y-4.5325
X3.6415Y-5.2825
X3.9585Y-2.2825
X3.9585Y-3.0325
X3.9585Y-3.7825
X3.9585Y-4.5325
X3.9585Y-5.2825
X4.3915Y-2.2825
X4.3915Y-3.0325
X4.3915Y-3.7825
X4.3915Y-4.5325
X4.3915Y-5.2825
X4.7085Y-2.095
X4.7085Y-2.845
X4.7085Y-3.595
X4.7085Y-4.345
X4.7085Y-5.095
X5.1415Y-2.095
X5.1415Y-2.845
X5.1415Y-3.595
X5.1415Y-4.345
X5.1415Y-5.095
X5.4585Y-2.0012
X5.4585Y-2.7512
X5.4585Y-3.5012
X5.4585Y-4.2512
X5.4585Y-5.0012
X5.7585Y-5.095
X5.8915Y-2.0012
X5.8915Y-2.7512
X5.8915Y-3.5012
X5.8915Y-4.2512
X5.8915Y-5.0012
X6.1915Y-5.095
X6.2085Y-2.095
X6.2085Y-2.845
X6.2085Y-3.595
X6.2085Y-4.345
X6.6415Y-2.095
X6.6415Y-2.845
X6.6415Y-3.595
X6.6415Y-4.345
X6.7536Y-5.47
X6.9585Y-2.1887
X6.9585Y-2.9387
X6.9585Y-3.6887
X6.9585Y-4.4387
X6.9702Y-5.095
X7.3915Y-2.1887
X7.3915Y-2.9387
X7.3915Y-3.6887
X7.3915Y-4.4387
X7.4031Y-5.845
X7.5906Y-5.5203
X7.6197Y-5.47
X7.7085Y-2.5637
X7.7085Y-3.3137
X7.7085Y-4.0637
X7.7781Y-5.1955
X7.8072Y-5.1452
X7.9947Y-4.8204
X8.0527Y-6.22
X8.1415Y-2.5637
X8.1415Y-3.3137
X8.1415Y-4.0637
X8.2402Y-5.8953
X8.2692Y-5.845
X8.4277Y-5.5705
X8.4567Y-5.5202
X8.6442Y-5.1954
T4
X7.7021Y-5.8773
X8.1721Y-5.0632
X8.3516Y-6.2523
X8.8216Y-5.4382
T5
X7.1825Y-5.5773
X7.6525Y-4.7632
X7.832Y-5.9523
X8.302Y-5.1382
T6
X3.425Y-2.2825
X3.425Y-3.0325
X3.425Y-3.7825
X3.425Y-4.5325
X3.425Y-5.2825
X4.175Y-2.2825
X4.175Y-3.0325
X4.175Y-3.7825
X4.175Y-4.5325
X4.175Y-5.2825
X4.925Y-2.095
X4.925Y-2.845
X4.925Y-3.595
X4.925Y-4.345
X4.925Y-5.095
X5.675Y-2.0012
X5.675Y-2.7512
X5.675Y-3.5012
X5.675Y-4.2512
X5.675Y-5.0012
X5.975Y-5.095
X6.425Y-2.095
X6.425Y-2.845
X6.425Y-3.595
X6.425Y-4.345
X6.8619Y-5.2825
X7.175Y-2.1887
X7.175Y-2.9387
X7.175Y-3.6887
X7.175Y-4.4387
X7.5114Y-5.6575
X7.6989Y-5.3327
X7.8864Y-5.008
X7.925Y-2.5637
X7.925Y-3.3137
X7.925Y-4.0637
X8.1609Y-6.0325
X8.3484Y-5.7077
X8.5359Y-5.383
T7
X3.8Y-2.66
X3.8Y-4.92
X5.055Y-1.68
X5.3Y-3.22
X5.32Y-4.62
X7.315Y-4.91
X7.55Y-2.56
T0
M30
