M48
; DRILL file {KiCad (6.0.0)} date Mon Feb  7 00:58:54 2022
; FORMAT={-:-/ absolute / inch / decimal}
; #@! TF.CreationDate,2022-02-07T00:58:54-05:00
; #@! TF.GenerationSoftware,Kicad,Pcbnew,(6.0.0)
; #@! TF.FileFunction,Plated,1,2,PTH
FMAT,2
INCH
; #@! TA.AperFunction,Plated,PTH,ViaDrill
T1C0.0157
; #@! TA.AperFunction,Plated,PTH,ComponentDrill
T2C0.0157
; #@! TA.AperFunction,Plated,PTH,ComponentDrill
T3C0.0197
; #@! TA.AperFunction,Plated,PTH,ComponentDrill
T4C0.0236
; #@! TA.AperFunction,Plated,PTH,ComponentDrill
T5C0.0300
; #@! TA.AperFunction,Plated,PTH,ComponentDrill
T6C0.0315
; #@! TA.AperFunction,Plated,PTH,ComponentDrill
T7C0.0320
; #@! TA.AperFunction,Plated,PTH,ComponentDrill
T8C0.0390
; #@! TA.AperFunction,Plated,PTH,ComponentDrill
T9C0.0512
; #@! TA.AperFunction,Plated,PTH,ComponentDrill
T10C0.0591
; #@! TA.AperFunction,Plated,PTH,ComponentDrill
T11C0.0596
%
G90
G05
T1
X3.145Y-2.645
X3.145Y-2.785
X3.145Y-3.385
X3.145Y-4.1
X3.145Y-4.685
X3.16Y-3.34
X3.17Y-4.31
X3.17Y-5.055
X3.175Y-3.15
X3.18Y-3.585
X3.19Y-2.595
X3.21Y-2.425
X3.225Y-3.535
X3.23Y-4.855
X3.255Y-4.12
X3.275Y-2.645
X3.275Y-3.94
X3.28Y-2.43
X3.28Y-2.59
X3.285Y-4.89
X3.31Y-2.34
X3.585Y-5.545
X3.655Y-2.02
X3.665Y-4.65
X3.665Y-4.995
X3.685Y-2.485
X3.685Y-3.235
X3.685Y-3.985
X3.755Y-3.36
X3.755Y-4.095
X3.795Y-5.555
X3.82Y-5.445
X3.855Y-4.795
X3.895Y-4.445
X3.93Y-4.645
X3.935Y-4.735
X3.985Y-5.54
X4.085Y-1.905
X4.225Y-4.6443
X4.335Y-2.35
X4.435Y-4.79
X4.45Y-5.54
X4.625Y-5.385
X4.65Y-2.58
X4.655Y-2.3
X4.655Y-2.42
X4.655Y-3.795
X4.655Y-4.045
X4.68Y-5.535
X4.72Y-5.295
X4.725Y-4.09
X4.765Y-5.51
X4.77Y-1.775
X4.78Y-2.2
X4.78Y-2.36
X4.79Y-4.82
X4.845Y-5.445
X5.05Y-2.2
X5.055Y-4.04
X5.18Y-2.36
X5.245Y-2.235
X5.285Y-1.835
X5.32Y-2.1
X5.34Y-5.45
X5.435Y-3.0
X5.455Y-2.255
X5.47Y-2.2
X5.505Y-2.065
X5.515Y-2.955
X5.525Y-5.27
X5.545Y-2.215
X5.545Y-5.54
X5.56Y-4.725
X5.62Y-1.695
X5.64Y-5.51
X5.685Y-1.88
X5.725Y-2.33
X5.735Y-5.445
X5.795Y-2.19
X5.855Y-2.33
X5.885Y-2.15
X5.945Y-4.535
X6.03Y-2.2
X6.045Y-2.3
X6.055Y-1.7
X6.11Y-4.23
X6.125Y-4.825
X6.205Y-2.535
X6.21Y-2.24
X6.215Y-5.52
X6.2159Y-4.83
X6.295Y-5.315
X6.415Y-5.135
X6.415Y-5.205
X6.415Y-5.2843
X6.42Y-5.535
X6.435Y-5.415
X6.545Y-5.3493
X6.595Y-5.535
X6.61Y-2.2
X6.64Y-3.375
X6.645Y-2.565
X6.65Y-5.475
X6.665Y-2.3
X6.7Y-5.01
X6.7041Y-4.83
X6.795Y-2.5
X6.795Y-2.71
X6.8Y-3.36
X6.85Y-4.135
X6.87Y-2.71
X6.895Y-2.29
X6.895Y-2.515
X6.905Y-5.555
X6.935Y-2.775
X6.935Y-2.87
X6.945Y-2.28
X6.945Y-2.63
X6.9556Y-5.1957
X7.02Y-3.1157
X7.035Y-3.045
X7.04Y-2.665
X7.125Y-2.63
X7.195Y-5.005
X7.25Y-2.595
X7.25Y-5.365
X7.31Y-5.06
X7.345Y-3.36
X7.355Y-5.365
X7.395Y-5.725
X7.41Y-5.03
X7.42Y-5.0965
X7.4243Y-4.545
X7.4243Y-4.8
X7.44Y-4.075
X7.45Y-3.305
X7.4508Y-5.2407
X7.4602Y-5.0652
X7.47Y-5.155
X7.495Y-2.02
X7.595Y-3.26
X7.645Y-3.955
X7.645Y-4.23
X7.65Y-3.215
X7.65Y-3.515
X7.8Y-4.705
X7.825Y-5.255
X7.84Y-5.505
X7.881Y-5.405
X7.885Y-4.71
X7.925Y-5.455
X7.95Y-5.315
X7.965Y-5.265
X8.0057Y-5.7999
X8.03Y-2.9
X8.09Y-3.62
X8.1Y-4.425
X8.1007Y-5.225
X8.125Y-4.67
X8.13Y-2.72
X8.13Y-2.9
X8.13Y-4.29
X8.17Y-4.44
X8.185Y-3.09
X8.185Y-3.63
X8.19Y-3.47
X8.19Y-3.835
X8.205Y-4.48
X8.215Y-2.915
X8.22Y-5.4243
X8.36Y-6.16
X8.41Y-5.39
X8.705Y-5.46
T2
X3.755Y-2.2335
X3.755Y-2.328
X3.755Y-2.9885
X3.755Y-3.083
X3.755Y-3.7335
X3.755Y-3.828
X3.755Y-4.4635
X3.755Y-4.558
X3.845Y-2.2158
X3.845Y-2.3442
X3.845Y-2.9708
X3.845Y-3.0992
X3.845Y-3.7158
X3.845Y-3.8442
X3.845Y-4.4458
X3.845Y-4.5742
X4.1235Y-4.86
X4.1235Y-4.955
X4.127Y-2.61
X4.127Y-3.36
X4.1335Y-4.11
X4.1335Y-4.205
X4.218Y-4.86
X4.218Y-4.955
X4.2215Y-2.61
X4.2215Y-3.36
X4.228Y-4.11
X4.228Y-4.205
X4.3713Y-1.8567
X4.3713Y-1.9417
X4.45Y-1.8567
X4.45Y-1.9417
X4.505Y-2.2158
X4.505Y-2.3442
X4.505Y-2.9708
X4.505Y-3.0992
X4.505Y-3.7158
X4.505Y-3.8442
X4.505Y-4.465
X4.505Y-4.5933
X4.505Y-5.0358
X4.505Y-5.1642
X4.5287Y-1.8567
X4.5287Y-1.9417
X4.59Y-2.9708
X4.59Y-3.0992
X4.595Y-2.2158
X4.595Y-2.3442
X4.595Y-3.7158
X4.595Y-3.8442
X4.595Y-4.4658
X4.595Y-4.5942
X4.595Y-5.0358
X4.595Y-5.1642
X4.877Y-3.175
X4.877Y-3.925
X4.877Y-4.675
X4.877Y-4.765
X4.8785Y-2.425
X4.9715Y-3.175
X4.9715Y-3.925
X4.9715Y-4.675
X4.9715Y-4.765
X4.973Y-2.425
X5.255Y-2.7808
X5.255Y-2.9092
X5.255Y-3.5417
X5.255Y-3.67
X5.255Y-4.1708
X5.255Y-4.2992
X5.255Y-4.95
X5.255Y-5.0783
X5.355Y-4.17
X5.355Y-4.2983
X5.627Y-3.175
X5.627Y-3.83
X5.6285Y-3.08
X5.642Y-4.58
X5.642Y-4.675
X5.7215Y-3.175
X5.7215Y-3.83
X5.723Y-3.08
X5.7365Y-4.58
X5.7365Y-4.675
X6.0Y-4.4877
X6.0Y-4.5822
X6.005Y-2.9158
X6.005Y-3.0442
X6.005Y-3.56
X6.005Y-3.6883
X6.11Y-4.4885
X6.11Y-4.583
X6.377Y-3.265
X6.377Y-3.925
X6.3785Y-3.17
X6.3785Y-4.025
X6.4715Y-3.265
X6.4715Y-3.925
X6.473Y-3.17
X6.473Y-4.025
X6.755Y-2.9867
X6.755Y-3.115
X6.755Y-3.6167
X6.755Y-3.745
X6.755Y-4.3758
X6.755Y-4.5042
X6.835Y-2.1408
X6.835Y-2.2692
X6.845Y-2.9858
X6.845Y-3.1142
X6.845Y-4.3758
X6.845Y-4.5042
X6.85Y-3.6158
X6.85Y-3.7442
X6.985Y-4.985
X7.0962Y-5.0492
X7.1079Y-5.4924
X7.127Y-2.515
X7.127Y-3.265
X7.127Y-4.02
X7.127Y-4.74
X7.1721Y-5.3812
X7.2203Y-5.8139
X7.2215Y-2.515
X7.2215Y-3.265
X7.2215Y-4.02
X7.2215Y-4.74
X7.3022Y-5.8611
X7.505Y-2.8808
X7.505Y-3.0092
X7.505Y-3.4708
X7.505Y-3.5992
X7.505Y-4.0058
X7.505Y-4.1342
X7.505Y-4.72
X7.505Y-4.8483
X7.595Y-2.8985
X7.595Y-2.993
X7.595Y-3.4885
X7.595Y-3.583
X7.595Y-4.022
X7.595Y-4.1165
X7.6335Y-4.385
X7.6335Y-4.475
X7.728Y-4.385
X7.728Y-4.475
X7.8802Y-6.191
X7.962Y-6.2382
X8.0429Y-5.5974
X8.1071Y-5.4862
X8.53Y-5.06
X8.6118Y-5.1072
T3
X4.6256Y-1.72
X4.7044Y-1.72
T5
X3.6866Y-1.895
X3.785Y-1.895
X3.8834Y-1.895
X5.5716Y-1.56
X5.7684Y-1.56
X6.3116Y-1.56
X6.5084Y-1.56
X6.8666Y-1.8
X6.965Y-1.8
X7.0634Y-1.8
T6
X3.755Y-2.08
X3.755Y-2.48
X3.755Y-2.835
X3.755Y-3.235
X3.755Y-3.58
X3.755Y-3.98
X3.755Y-4.31
X3.755Y-4.71
X3.845Y-2.08
X3.845Y-2.48
X3.845Y-2.835
X3.845Y-3.235
X3.845Y-3.58
X3.845Y-3.98
X3.845Y-4.31
X3.845Y-4.71
X3.97Y-4.86
X3.97Y-4.955
X3.975Y-2.61
X3.975Y-3.36
X3.98Y-4.11
X3.98Y-4.205
X4.055Y-1.835
X4.37Y-4.86
X4.37Y-4.955
X4.375Y-2.61
X4.375Y-3.36
X4.38Y-4.11
X4.38Y-4.205
X4.4489Y-1.7655
X4.505Y-2.08
X4.505Y-2.48
X4.505Y-2.835
X4.505Y-3.235
X4.505Y-3.58
X4.505Y-3.98
X4.505Y-4.3292
X4.505Y-4.7292
X4.505Y-4.9
X4.505Y-5.3
X4.59Y-2.835
X4.59Y-3.235
X4.595Y-2.08
X4.595Y-2.48
X4.595Y-3.58
X4.595Y-3.98
X4.595Y-4.33
X4.595Y-4.73
X4.595Y-4.9
X4.595Y-5.3
X4.725Y-2.425
X4.725Y-3.175
X4.725Y-3.925
X4.725Y-4.675
X4.725Y-4.765
X5.125Y-2.425
X5.125Y-3.175
X5.125Y-3.925
X5.125Y-4.675
X5.125Y-4.765
X5.255Y-2.645
X5.255Y-3.045
X5.255Y-3.4058
X5.255Y-3.8058
X5.255Y-4.035
X5.255Y-4.435
X5.255Y-4.8142
X5.255Y-5.2142
X5.265Y-1.62
X5.265Y-2.02
X5.355Y-4.0342
X5.355Y-4.4342
X5.475Y-3.08
X5.475Y-3.175
X5.475Y-3.83
X5.49Y-4.58
X5.49Y-4.675
X5.875Y-3.08
X5.875Y-3.175
X5.875Y-3.83
X5.89Y-4.58
X5.89Y-4.675
X6.0Y-4.3342
X6.0Y-4.7342
X6.005Y-2.78
X6.005Y-3.18
X6.005Y-3.4242
X6.005Y-3.8242
X6.11Y-4.335
X6.11Y-4.735
X6.225Y-3.17
X6.225Y-3.265
X6.225Y-3.925
X6.225Y-4.025
X6.625Y-3.17
X6.625Y-3.265
X6.625Y-3.925
X6.625Y-4.025
X6.755Y-2.8508
X6.755Y-3.2508
X6.755Y-3.4808
X6.755Y-3.8808
X6.755Y-4.24
X6.755Y-4.64
X6.835Y-2.005
X6.835Y-2.405
X6.845Y-2.85
X6.845Y-3.25
X6.845Y-4.24
X6.845Y-4.64
X6.85Y-3.48
X6.85Y-3.88
X6.8674Y-4.9171
X6.975Y-2.515
X6.975Y-3.265
X6.975Y-4.02
X6.975Y-4.74
X7.04Y-5.61
X7.0874Y-5.7371
X7.2138Y-5.1171
X7.24Y-5.2636
X7.375Y-2.515
X7.375Y-3.265
X7.375Y-4.02
X7.375Y-4.74
X7.4338Y-5.9371
X7.48Y-4.385
X7.48Y-4.475
X7.505Y-2.745
X7.505Y-3.145
X7.505Y-3.335
X7.505Y-3.735
X7.505Y-3.87
X7.505Y-4.27
X7.505Y-4.5842
X7.505Y-4.9842
X7.595Y-2.745
X7.595Y-3.145
X7.595Y-3.335
X7.595Y-3.735
X7.595Y-3.87
X7.595Y-4.27
X7.7486Y-6.115
X7.88Y-4.385
X7.88Y-4.475
X7.975Y-5.715
X8.095Y-6.315
X8.175Y-5.3686
X8.3984Y-4.984
X8.7448Y-5.184
T7
X5.375Y-1.55
X5.375Y-1.65
X5.375Y-1.75
X5.375Y-1.85
X5.375Y-1.95
X5.375Y-2.05
X5.375Y-2.15
X5.375Y-2.25
X5.375Y-2.35
X5.375Y-2.45
X5.375Y-2.55
X5.375Y-2.65
X5.975Y-1.55
X5.975Y-1.65
X5.975Y-1.75
X5.975Y-1.85
X5.975Y-1.95
X5.975Y-2.05
X5.975Y-2.15
X5.975Y-2.25
X5.975Y-2.35
X5.975Y-2.45
X5.975Y-2.55
X5.975Y-2.65
X6.125Y-1.55
X6.125Y-1.65
X6.125Y-1.75
X6.125Y-1.85
X6.125Y-1.95
X6.125Y-2.05
X6.125Y-2.15
X6.125Y-2.25
X6.125Y-2.35
X6.125Y-2.45
X6.125Y-2.55
X6.125Y-2.65
X6.725Y-1.55
X6.725Y-1.65
X6.725Y-1.75
X6.725Y-1.85
X6.725Y-1.95
X6.725Y-2.05
X6.725Y-2.15
X6.725Y-2.25
X6.725Y-2.35
X6.725Y-2.45
X6.725Y-2.55
X6.725Y-2.65
T8
X3.375Y-2.4825
X3.375Y-3.2325
X3.375Y-3.9825
X3.375Y-4.7325
X3.375Y-5.4825
X3.475Y-2.4825
X3.475Y-3.2325
X3.475Y-3.9825
X3.475Y-4.7325
X3.475Y-5.4825
X4.125Y-2.4825
X4.125Y-3.2325
X4.125Y-3.9825
X4.125Y-4.7325
X4.125Y-5.4825
X4.225Y-2.4825
X4.225Y-3.2325
X4.225Y-3.9825
X4.225Y-4.7325
X4.225Y-5.4825
X4.875Y-2.295
X4.875Y-3.045
X4.875Y-3.795
X4.875Y-4.545
X4.875Y-5.295
X4.975Y-2.295
X4.975Y-3.045
X4.975Y-3.795
X4.975Y-4.545
X4.975Y-5.295
X5.625Y-2.2012
X5.625Y-2.9512
X5.625Y-3.7012
X5.625Y-4.4512
X5.625Y-5.2012
X5.725Y-2.2012
X5.725Y-2.9512
X5.725Y-3.7012
X5.725Y-4.4512
X5.725Y-5.2012
X5.925Y-4.895
X6.025Y-4.895
X6.375Y-2.3
X6.375Y-3.045
X6.375Y-3.795
X6.375Y-4.545
X6.475Y-2.3
X6.475Y-3.045
X6.475Y-3.795
X6.475Y-4.545
X7.0101Y-5.4258
X7.0601Y-5.3392
X7.125Y-2.3887
X7.125Y-3.1387
X7.125Y-3.8887
X7.125Y-4.6387
X7.225Y-2.3887
X7.225Y-3.1387
X7.225Y-3.8887
X7.225Y-4.6387
X7.3132Y-5.6008
X7.3632Y-5.5142
X7.6882Y-4.9513
X7.7382Y-4.8647
X7.875Y-2.7637
X7.875Y-3.5137
X7.875Y-4.2637
X7.9627Y-5.9758
X7.975Y-2.7637
X7.975Y-3.5137
X7.975Y-4.2637
X8.0127Y-5.8892
X8.3377Y-5.3263
X8.3877Y-5.2397
X8.4966Y-5.851
X8.5466Y-5.7644
T9
X5.5322Y-1.6584
X5.8078Y-1.6584
X6.2722Y-1.6584
X6.5478Y-1.6584
T10
X3.275Y-2.1825
X3.275Y-2.9325
X3.275Y-3.6825
X3.275Y-4.4325
X3.275Y-5.1825
X3.575Y-2.1825
X3.575Y-2.9325
X3.575Y-3.6825
X3.575Y-4.4325
X3.575Y-5.1825
X4.025Y-2.1825
X4.025Y-2.9325
X4.025Y-3.6825
X4.025Y-4.4325
X4.025Y-5.1825
X4.325Y-2.1825
X4.325Y-2.9325
X4.325Y-3.6825
X4.325Y-4.4325
X4.325Y-5.1825
X4.775Y-1.995
X4.775Y-2.745
X4.775Y-3.495
X4.775Y-4.245
X4.775Y-4.995
X5.075Y-1.995
X5.075Y-2.745
X5.075Y-3.495
X5.075Y-4.245
X5.075Y-4.995
X5.525Y-1.9012
X5.525Y-2.6513
X5.525Y-3.4013
X5.525Y-4.1513
X5.525Y-4.9013
X5.825Y-1.9012
X5.825Y-2.6513
X5.825Y-3.4013
X5.825Y-4.1513
X5.825Y-4.9013
X5.825Y-5.195
X6.125Y-5.195
X6.275Y-1.995
X6.275Y-2.745
X6.275Y-3.495
X6.275Y-4.245
X6.575Y-1.995
X6.575Y-2.745
X6.575Y-3.495
X6.575Y-4.245
X6.7003Y-5.3624
X6.8503Y-5.1026
X7.025Y-2.0888
X7.025Y-2.8388
X7.025Y-3.5888
X7.025Y-4.3388
X7.325Y-2.0888
X7.325Y-2.8388
X7.325Y-3.5888
X7.325Y-4.3388
X7.523Y-5.8374
X7.5373Y-5.4126
X7.673Y-5.5776
X7.6873Y-5.1528
X7.775Y-2.4638
X7.775Y-3.2138
X7.775Y-3.9638
X7.898Y-5.1879
X8.048Y-4.9281
X8.075Y-2.4638
X8.075Y-3.2138
X8.075Y-3.9638
X8.1725Y-6.2124
X8.1868Y-5.7876
X8.3225Y-5.9526
X8.3368Y-5.5278
X8.5475Y-5.5629
X8.6975Y-5.3031
T4
G00X7.5225Y-2.2069
M15
G01X7.5225Y-2.2423
M16
G05
G00X7.68Y-1.8722
M15
G01X7.68Y-1.9076
M16
G05
G00X7.68Y-1.9903
M15
G01X7.68Y-2.0257
M16
G05
G00X7.68Y-2.1478
M15
G01X7.68Y-2.1832
M16
G05
G00X7.8375Y-2.2069
M15
G01X7.8375Y-2.2423
M16
G05
T11
G00X3.3258Y-2.1257
M15
G01X3.3258Y-2.0849
M16
G05
G00X3.3258Y-2.8757
M15
G01X3.3258Y-2.8349
M16
G05
G00X3.3258Y-3.6257
M15
G01X3.3258Y-3.5849
M16
G05
G00X3.3258Y-4.3757
M15
G01X3.3258Y-4.3349
M16
G05
G00X3.3258Y-5.1257
M15
G01X3.3258Y-5.0849
M16
G05
G00X3.5242Y-2.1257
M15
G01X3.5242Y-2.0849
M16
G05
G00X3.5242Y-2.8757
M15
G01X3.5242Y-2.8349
M16
G05
G00X3.5242Y-3.6257
M15
G01X3.5242Y-3.5849
M16
G05
G00X3.5242Y-4.3757
M15
G01X3.5242Y-4.3349
M16
G05
G00X3.5242Y-5.1257
M15
G01X3.5242Y-5.0849
M16
G05
G00X4.0758Y-2.0849
M15
G01X4.0758Y-2.1257
M16
G05
G00X4.0758Y-2.8349
M15
G01X4.0758Y-2.8757
M16
G05
G00X4.0758Y-3.5849
M15
G01X4.0758Y-3.6257
M16
G05
G00X4.0758Y-4.3349
M15
G01X4.0758Y-4.3757
M16
G05
G00X4.0758Y-5.0849
M15
G01X4.0758Y-5.1257
M16
G05
G00X4.2742Y-2.0849
M15
G01X4.2742Y-2.1257
M16
G05
G00X4.2742Y-2.8349
M15
G01X4.2742Y-2.8757
M16
G05
G00X4.2742Y-3.5849
M15
G01X4.2742Y-3.6257
M16
G05
G00X4.2742Y-4.3349
M15
G01X4.2742Y-4.3757
M16
G05
G00X4.2742Y-5.0849
M15
G01X4.2742Y-5.1257
M16
G05
G00X4.8258Y-1.9382
M15
G01X4.8258Y-1.8974
M16
G05
G00X4.8258Y-2.6882
M15
G01X4.8258Y-2.6474
M16
G05
G00X4.8258Y-3.4382
M15
G01X4.8258Y-3.3974
M16
G05
G00X4.8258Y-4.1474
M15
G01X4.8258Y-4.1882
M16
G05
G00X4.8258Y-4.9382
M15
G01X4.8258Y-4.8974
M16
G05
G00X5.0242Y-1.9382
M15
G01X5.0242Y-1.8974
M16
G05
G00X5.0242Y-2.6882
M15
G01X5.0242Y-2.6474
M16
G05
G00X5.0242Y-3.4382
M15
G01X5.0242Y-3.3974
M16
G05
G00X5.0242Y-4.1474
M15
G01X5.0242Y-4.1882
M16
G05
G00X5.0242Y-4.9382
M15
G01X5.0242Y-4.8974
M16
G05
G00X5.5758Y-1.8037
M15
G01X5.5758Y-1.8445
M16
G05
G00X5.5758Y-2.5537
M15
G01X5.5758Y-2.5945
M16
G05
G00X5.5758Y-3.3037
M15
G01X5.5758Y-3.3445
M16
G05
G00X5.5758Y-4.0537
M15
G01X5.5758Y-4.0945
M16
G05
G00X5.5758Y-4.8445
M15
G01X5.5758Y-4.8037
M16
G05
G00X5.7742Y-1.8037
M15
G01X5.7742Y-1.8445
M16
G05
G00X5.7742Y-2.5537
M15
G01X5.7742Y-2.5945
M16
G05
G00X5.7742Y-3.3037
M15
G01X5.7742Y-3.3445
M16
G05
G00X5.7742Y-4.0537
M15
G01X5.7742Y-4.0945
M16
G05
G00X5.7742Y-4.8445
M15
G01X5.7742Y-4.8037
M16
G05
G00X5.8758Y-5.2926
M15
G01X5.8758Y-5.2518
M16
G05
G00X6.0742Y-5.2926
M15
G01X6.0742Y-5.2518
M16
G05
G00X6.3258Y-1.8974
M15
G01X6.3258Y-1.9382
M16
G05
G00X6.3258Y-2.6474
M15
G01X6.3258Y-2.6882
M16
G05
G00X6.3258Y-3.3974
M15
G01X6.3258Y-3.4382
M16
G05
G00X6.3258Y-4.1474
M15
G01X6.3258Y-4.1882
M16
G05
G00X6.5242Y-1.8974
M15
G01X6.5242Y-1.9382
M16
G05
G00X6.5242Y-2.6474
M15
G01X6.5242Y-2.6882
M16
G05
G00X6.5242Y-3.3974
M15
G01X6.5242Y-3.4382
M16
G05
G00X6.5242Y-4.1474
M15
G01X6.5242Y-4.1882
M16
G05
G00X6.6412Y-5.2696
M15
G01X6.6765Y-5.29
M16
G05
G00X6.7404Y-5.0978
M15
G01X6.7757Y-5.1182
M16
G05
G00X7.0758Y-1.9912
M15
G01X7.0758Y-2.032
M16
G05
G00X7.0758Y-2.782
M15
G01X7.0758Y-2.7412
M16
G05
G00X7.0758Y-3.532
M15
G01X7.0758Y-3.4912
M16
G05
G00X7.0758Y-4.282
M15
G01X7.0758Y-4.2412
M16
G05
G00X7.2742Y-1.9912
M15
G01X7.2742Y-2.032
M16
G05
G00X7.2742Y-2.782
M15
G01X7.2742Y-2.7412
M16
G05
G00X7.2742Y-3.532
M15
G01X7.2742Y-3.4912
M16
G05
G00X7.2742Y-4.282
M15
G01X7.2742Y-4.2412
M16
G05
G00X7.4782Y-5.3199
M15
G01X7.5136Y-5.3403
M16
G05
G00X7.5774Y-5.148
M15
G01X7.6128Y-5.1684
M16
G05
G00X7.6329Y-5.8422
M15
G01X7.5976Y-5.8218
M16
G05
G00X7.7321Y-5.6704
M15
G01X7.6968Y-5.6499
M16
G05
G00X7.8258Y-2.3662
M15
G01X7.8258Y-2.407
M16
G05
G00X7.8258Y-3.1162
M15
G01X7.8258Y-3.157
M16
G05
G00X7.8258Y-3.8662
M15
G01X7.8258Y-3.907
M16
G05
G00X8.0079Y-5.1927
M15
G01X7.9726Y-5.1723
M16
G05
G00X8.0242Y-2.3662
M15
G01X8.0242Y-2.407
M16
G05
G00X8.0242Y-3.1162
M15
G01X8.0242Y-3.157
M16
G05
G00X8.0242Y-3.8662
M15
G01X8.0242Y-3.907
M16
G05
G00X8.1071Y-5.0208
M15
G01X8.0718Y-5.0004
M16
G05
G00X8.1277Y-5.6949
M15
G01X8.1631Y-5.7153
M16
G05
G00X8.2269Y-5.523
M15
G01X8.2623Y-5.5434
M16
G05
G00X8.2824Y-6.2172
M15
G01X8.2471Y-6.1968
M16
G05
G00X8.3817Y-6.0454
M15
G01X8.3463Y-6.0249
M16
G05
G00X8.6574Y-5.5677
M15
G01X8.6221Y-5.5473
M16
G05
G00X8.7567Y-5.3958
M15
G01X8.7213Y-5.3754
M16
G05
T0
M30
